<svg xmlns="http://www.w3.org/2000/svg" viewBox="0 0 281 256" width="281" height="256"><path d="M0 0h281v256H0V0Z" style="fill:#f0d3e3"/><path d="M0 0h281v256H0V0Zm110 13-3.332031 1.125C84.09037 22.266862 64.557649 38.334698 51 58l-1.191406 1.701172C35.136105 81.031968 28.874922 109.426444 32 135l.253906 2.124023c3.863128 30.809803 19.312459 58.57531 43.933594 77.750977 1.749378 1.33512 3.506389 2.658565 5.271973 3.972168 1.324075.990853 2.627813 2.00878 3.927246 3.031738 7.735176 6.063527 14.58594 8.686882 24.363281 9.746094a2644.894221 2644.894221 0 0 1 5.546875.664063l2.829346.330322c2.947588.39039 5.852089.909425 8.776123 1.447021 6.32441 1.07567 12.504177 1.27713 18.910156 1.246094l3.538818-.0083c10.487151-.123688 20.653699-1.342117 31.004639-2.928223 2.606447-.37063 5.207522-.660077 7.827637-.91504l2.470459-.240722c1.500055-.14081 3.000854-.274043 4.502441-.397461 4.855693-.472787 8.49789-1.74048 12.843506-3.822754v-3l1.746094-.808594C213.877095 221.007775 217.363233 217.911628 221 215l2.785156-2.179688C229.480105 208.292554 234.484956 203.706833 239 198l1.476563-1.820313c19.56523-25.00583 28.069644-55.836658 24.242187-87.226562C261.128958 82.755714 249.908194 59.60367 231 41l-1.548584-1.638184C224.968788 34.681187 220.119457 30.987063 214.75 27.375l-2.562256-1.72876C206.33311 21.757576 200.642198 18.370318 194 16l-2.026855-.736328c-2.318491-.83504-4.643426-1.648011-6.973145-2.451172l-2.193604-.759521C159.669308 4.406216 132.946836 5.179066 110 13Z" style="fill:#000"/><path d="M0 0c2.875 1.4375 2.875 1.4375 5 3 2.86498 1.345897 2.86498 1.345897 4.914063.054688L12 2c4.632031-.252656 8.367592.683796 12.5 2.75C27.244176 7.219758 27.79853 8.373523 28 12l3-1c5.692628-.563841 10.149441-.3072 15 3 3.133603 2.810295 4.911749 5.046885 5.3125 9.375L51 26l3.125-.25c5.848894.377348 8.53458 3.026138 12.75 6.875C69.737013 37.17055 69.464952 40.77187 69 46l3.0625.1875C76.580222 46.839448 79.719871 48.88831 83 52c2.884084 4.388823 2.355469 9.915972 2 15-.297421 1.3418-.618808 2.679552-1 4l2.3125.625C90.013087 73.518324 90.712742 75.066713 92 79c.047066 3.87958-.181125 7.551884-2.113281 10.96875-1.180161 2.703453-.657515 4.094597.113281 6.90625.987651 4.354643 1.184524 7.05384-1 11.125l-2.070313 1.242188c-2.265386 1.680872-2.265386 1.680872-2.320312 4.89453L84.75 117.6875l.109375 3.574219L85 124h-2l-.8125 1.875C81 128 81 128 78 130c-.652599 2.252867-.652599 2.252867-.9375 4.8125C76.293102 139.219055 75.346307 141.850534 72 145c-3.032318 1.845198-5.22111 2.22879-8.75 2.125l-2.421875-.054688L59 147l.25 2.625c-.314656 4.247861-1.563063 6.107104-4.25 9.375-3.870294 2.862405-6.539598 3.344848-11.3125 3.1875l-3.238281-.082031L38 162l-.875 1.875C36 166 36 166 34 168c-2.164063-.023438-2.164063-.023438-4.625-.375l-2.476563-.335938L25 167c0-3.224026.904455-5.18854 2.198242-8.09082C33.79143 143.209202 33.21856 125.683336 33 109h-8v2h2c.6875 2.3125.6875 2.3125 1 5-1.1875 1.875-1.1875 1.875-3 3-2.1875-.3125-2.1875-.3125-4-1l-1.125 2.4375C18 123 18 123 14.8125 123.8125L12 124l-4-5-1 2H5c1.361545-4.455966 3.028547-6.54953 7-9 2.364757-.604282 4.694907-1.054382 7.109375-1.410156L21 110l1-3H4l1-5c7.110263-1.248197 13.847242-2.262296 21.074219-1.777344L28 100l2-3-4-1c-2.011677-5.78357-2.220846-10.90219-2-17l-2.6875-.5625c-3.897717-1.691462-5.047553-3.372702-7.234375-6.878906C13.070499 69.83476 13.070499 69.83476 11 69l-1 3c-2.967084 1.980263-5.476865 2.296388-9 2.3125l-2.5625.050781C-4.4637 73.930891-5.698158 72.74065-8 71c-2.354248.588562-4.686521 1.267398-7 2-3.838496.459185-7.003612.629298-10.375-1.5L-27 70h-2l-1.8125 2.375C-33.163175 75.19581-34.623208 75.805565-38 77l.105469 2.230469c.218789 7.886829.218789 7.886829-1.230469 11.832031C-41.517164 93.534403-43.69517 94.192153-47 95l1 2.0625c1.173073 3.445902 1.141805 6.321474 1 9.9375l1.476563-1.09375C-36.541908 101.336522-30.169846 101.28781-22 102c1.343255.290785 2.684042.603588 4 1v5l-2.625-.5c-6.072618-.892662-12.254661-.576398-18.375-.5-.117851 1.22097-.117851 1.22097 1.4375 2.4375 2.544063 1.551258 4.059994 1.927992 6.9375 2.4375 4.786026.917651 7.165128 2.753843 10.625 6.125l-1 3-1-3h-2l-.4375 2.4375C-25 123-25 123-26 124c-3 .125-3 .125-6 0-1-1-1-1-1.0625-4.5625L-33 116l-1.25 1.5625L-36 119c-1.340615-.30272-2.674059-.63838-4-1-2.21771.857902-2.21771.857902-4 2-2.679273-4.01891-2.156012-6.24162-2-11l-4 1c.571478 5.37496 1.174862 10.745074 1.80664 16.113281.210065 1.822275.411746 3.645539.604493 5.469727 1.660524 16.27171 1.660524 16.27171 10.765137 29.494629C-35 163-35 163-34.75 165.75L-35 168c-3.672486 2.350391-6.711571 2.517569-11 2-2.972392-1.784762-5.42604-3.85208-7-7l-1.90625.175781c-5.825217.307052-9.663037-.266957-14.464844-3.671875C-71.750818 157.3068-72.923944 155.026406-74 152v-2l-3 1c-4.952717.476223-8.297843-.021306-12.425781-2.683594-3.568142-2.98378-5.342534-6.285198-5.859375-10.816406l-.152344-2.625c-.235722-3.889411-.350532-4.624987-3-7.75L-101 125c-2.139914-2.95512-1.992432-4.093838-1.6875-7.875.097068-2.74345.007163-3.747983-1.792969-5.871094-1.231221-1.017979-2.495333-1.997846-3.792969-2.929687-2.299127-1.763359-3.594279-3.437748-4.027343-6.339844C-112.329204 96.565099-111.674967 92.755497-109 88l3-1-1.9375-2.8125C-111.142137 79.234879-111.887853 74.790772-111 69c1.378783-2.66381 2.714978-3.922707 5-6 2.171875-.65625 2.171875-.65625 4-1l-.253906-1.898438-.308594-2.476562-.316406-2.460938C-103 53-103 53-102 51h3l.183594 2.082031.253906 2.730469.246094 2.707031C-98.065102 61.127436-98.065102 61.127436-97 64l-3.375 1.75c-2.147526 1.247652-3.531863 2.13746-5.125 4.0625-1.006382 4.402921.301756 8.908056 1.5 13.1875h2l-1-2c-.347085-5.293043-.513519-8.733584 3-13 1.313309-.705296 2.645023-1.378502 4-2l-.140625-1.722656C-96.424172 58.211472-95.560327 54.944898-92 50c3.065039-3.065039 4.813796-3 9-3l2-3h3l-.3125-2.5625C-77.894337 36.837705-76.198466 34.26972-73 31c2.275552-1.60323 4.486947-2.768111 7-4-5.14779-.302811-7.713924.219842-12 3h-4c.253358-3.124744.590875-4.604512 2.875-6.8125 5.952309-2.261877 11.945383-2.074124 17.8125.3125L-59 25l1-3h2l-.175781-1.757813C-56.421491 15.9879-56.515513 12.970764-53.75 9.5625c3.640167-3.391974 5.14253-4.473196 10.125-4.75C-40 5-40 5-36.875 5.75c3.03025.569007 3.03025.569007 5.625-1.625L-29 2c3.036553-1.518277 5.639128-1.168044 9-1l3.125 1.1875L-14 3C-9.00347.02909-5.813066-.81383 0 0Z" transform="translate(156 19)" style="fill:#121211"/><path d="m0 0 6 3c4.471914.227385 7.453999.1729 11.75-1.1875L21 1l1.890625 1.429688C25.46807 4.348451 26.826502 4.375388 30 4.3125l2.5625-.011719C35.152556 3.981175 36.801018 3.38909 39 2l1-2c3 1 3 1 4.8125 3.875 1.922866 3.360379 1.922866 3.360379 5.375 4.375C53 10 53 10 53.535156 12.15625c.14507 1.751397.254914 3.506017.332031 5.261719C54.048153 20.936146 54.740482 23.711255 56 27l3 1-2 4-1.730469-.070313C48.016613 31.768255 41.133363 32.747749 34 34l-1 4h18l-1 4-1.792969.296875C43.166268 43.250755 39.688517 44.19971 36 48c-1.311653 2.116604-1.311653 2.116604-2 4h2l1-3 4 5c2.947275-.101692 2.947275-.101692 6-1 1.452913-2.462557 1.452913-2.462557 2-5l2.375.625L54 49c2.287287-1.838839 2.287287-1.838839 2.125-4.625L56 42h-2v-2c5.75-1.125 5.75-1.125 8 0 1.634658 4.903973 1.12136 9.869817 1 15l-.038086 1.96582C62.63112 71.081983 60.3736 84.2528 54 97l2.375.375C59 98 59 98 61 100c-2.585273 1.292636-4.308514.959428-7.1875.8125C48.255902 100.732287 45.535875 101.911745 41 105h-2v11l3.75.6875C55.695214 119.61389 67.190618 126.03149 76 136v2c-3.827638-.605301-6.097058-2.4018-9.125-4.75-5.074535-3.797364-10.132068-6.586611-15.875-9.25v17c-6.138467-1.911982-11.77146-4.222898-17.519531-7.109375C30.741209 132.90708 29.644944 132.859838 27 134c-1.754228 1.976706-1.754228 1.976706-3 4-3.795889-.54227-5.47212-2.201276-8-5-6.57735 1.754911-12.61521 4.057608-18.75 7.011719C-5 141-5 141-7 141c-.2019-6.359878.372217-11.852211 2-18-9.395183 4.210233-16.706734 8.589101-24 16l-3-1c2.553057-7.73937 9.19454-11.640537 16.195313-15.222656C-9.31958 119.617063-2.995102 116.815243 4 115l1-10-2.6875-.8125C-.911029 103.031895-3.333827 102.14775-6 100c-.672587-2.331634-1.338474-4.665204-2-7-1.37827-1.847042-2.85686-3.479797-4.464844-5.128906-3.801717-4.633646-4.99968-9.353129-5.703125-15.210938l-.25618-2.076309c-.175613-1.440651-.34592-2.881959-.511154-4.323837-.25124-2.189177-.518803-4.375872-.789306-6.562744C-20.478615 53.436474-21.100191 47.318113-21 41l4-1 2 10c2.235702.235702 2.235702.235702 4-2l4 2 1-3h2l1 7h6l2-5h2C3.897073 44.952704.913632 44.25929-3.878906 43.394531-7.004368 42.813184-8.723924 42.276076-11 40l-2-1c5.39424-3.59616 13.220987-2.691428 19.476563-1.546875C8.375 38 8.375 38 11 39v-5c-14.739084-.86625-14.739084-.86625-28 5l.0625-3.6875C-16.931759 32.080227-17.212337 29.150653-18 26l2.875-.6875c3.246482-.980855 3.246482-.980855 4.34375-3.550781.858006-3.033053.73023-5.14451.40625-8.261719-.078125-2.90625-.078125-2.90625.375-5.5 1.88961-1.906947 3.623407-2.884574 6.054688-4C-1.66777 3.028588-1.66777 3.028588 0 0Z" transform="translate(127 88)" style="fill:#a46947"/><path d="m0 0 2.609375.644531C17.816913 4.496114 34.830265 16.344563 45 28c.773438 2.769531.773438 2.769531 1 5h2l1 5 3 1c1.125 1.9375 1.125 1.9375 2 4l1 2-2 3c-2.347656.328125-2.347656.328125-5.0625.25l-2.722656-.046875C43 48 43 48 42 47c-.270134-1.559145-.51607-3.122513-.75-4.6875C40.237 37.09853 38.884444 34.619596 35 31c-3.033517-1.83275-5.145948-2.940415-8.6875-3.1875L24 27c-.659767-1.946314-1.313842-3.895078-1.917969-5.859375C19.748264 16.523641 14.481533 14.240767 10 12c-1.605432.082403-3.209634.189942-4.8125.3125-4.698955.074265-4.698955.074265-6.78125-1.574219C-2.766268 9.186198-3.884507 7.593561-5 6c-4.32093-2.640569-9.082547-2.34037-14-2l-2.8125.6875C-24 5-24 5-26.0625 3.625L-28 2C-31.593098.6371-35.20049.733368-39 1l-2.5625 1.5625C-44.840123 4.495457-46.322248 3.777986-50 3c-5.079296-.341616-9.372003-.388643-14 2v2l-2.816406-.140625C-76.71789 6.393153-76.71789 6.393153-85 11c-2.999204 4.350697-4.47297 8.729692-5 14l-2.4375-1c-5.104828-1.432934-9.733547-2.117611-14.777344-.125C-112.272179 26.737998-114.638119 29.731188-117 35l-.6875 3.75C-119 42-119 42-121.015625 43.070313-123.3299 43.839248-125.625327 44.449719-128 45l-3 1c-1.120853 2.34308-1.120853 2.34308-2 5l-1.039063 1.890625c-1.062072 2.33138-1.18964 4.002116-1.273437 6.546875-.416665 4.706771-2.072027 6.47612-5.6875 9.5625-2.92414 4.616536-2.562039 9.718373-2 15l1.75 3.25L-140 90c-.952586 1.675238-1.91848 3.346294-2.988281 4.949219C-145.024145 99.07597-144.655586 103.542016-144 108c1.2572 3.540688 2.86229 6.259315 6.082031 8.355469 2.559986 2.195018 2.521778 3.65212 2.855469 6.957031.591713 4.078022.845032 5.426538 3.5625 8.6875 2.684834 3.221801 2.963455 4.484782 3.5625 8.5.841945 5.597796 2.178484 9.203949 6.660156 12.933594 3.693586 2.592118 6.505288 3.78041 11.027344 4.003906 2.28125.132813 2.28125.132813 4.25.5625 2.25 2.8125 2.25 2.8125 4 6 3.731995 3.626123 6.366669 4.499728 11.5 4.9375 7.07527.879412 7.07527.879412 9.6875 3.625L-79 175c2.804714 1.402357 5.06472.94546 8.1875.8125 5.93481-.072376 9.081966.667102 13.8125 4.1875v6l-3.007813.996094c-12.242605 4.220385-24.149121 9.654232-32.5625 19.886719C-94 208-94 208-95.867188 207.804688L-98 207l-2.464844-.847656C-105.251377 203.976647-109.02185 200.38613-113 197l-2.964844-2.515625c-23.824568-20.72872-36.63079-50.243366-38.941894-81.483887C-155.480062 100.702553-153.248773 87.834817-150 76h2l.304688-2.519531c.793587-3.972395 2.180762-7.488276 3.820312-11.167969l.94336-2.12915C-138.56297 50.568099-132.71389 42.1221-126 34l1.84375-2.324219C-106.90366 11.07221-80.041901-2.720855-53.422363-5.793457-34.875448-7.374861-17.763504-5.427737 0 0Z" transform="translate(186 15)" style="fill:#e7216a"/><path d="m0 0 3 1 1 6 3 1v5h2c2.238911 5.451263 3.476063 10.131905 4 16h2c2.85214 8.216418 3.470595 16.044851 3.391113 24.677734-.015987 2.056025-.00012 4.110053.019043 6.166016C18.444972 81.832543 18.444972 81.832543 13 90c-.282663 2.118548-.503274 4.245633-.6875 6.375C11.256353 104.378612 8.283322 110.239155 4 117l-1.699219 2.683594C-3.178706 127.870893-9.870119 135.217919-17 142l-2.171875 2.121094C-31.733477 156-31.733477 156-40 156c-1.130315-1.404331-2.258853-2.810126-3.378906-4.222656C-51.238691 143.15999-63.795116 137.605787-75 135c-.488281-5.957031-.488281-5.957031 0-8 3.658698-3.006785 6.31688-3.26457 10.9375-2.9375 5.268793.1424 8.016715-.431667 12.0625-4.0625l1.316406-1.605469c2.333232-1.93263 4.063635-1.796067 7.058594-1.894531 4.366658-.271114 7.038351-.838938 10.625-3.5h2l.621094-2.152344.816406-2.785156.808594-2.777344C-28 103-28 103-27 102c1.410412-.320548 2.828714-.606744 4.25-.875 3.78038-.793339 6.512388-1.966592 9.75-4.125h2l.296875-2.738281L-10.25 90.6875l.421875-3.550781C-9 84-9 84-7.046875 82.08203-5 81-5 81-3 81l.296875-3.542969c.150135-1.548265.301227-3.096438.453125-4.644531l.1875-2.330078C-1.538985 65.399967-.476546 62.903369 3 59c1.595095-5.297648.978141-10.777258.058594-16.152344L3 41l2-2c.943615-6.59305-.281228-12.018702-3-18l-1-1c-.534382-3.1446-.799985-6.327671-1.125-9.5l-.300781-2.707031-.269531-2.574219-.250489-2.376953L-1 1l1-1Z" transform="translate(245 67)" style="fill:#e5236b"/><path d="m0 0 2.609375.644531C17.816913 4.496114 34.830265 16.344563 45 28c.773438 2.769531.773438 2.769531 1 5h2l1 5 3 1c1.125 1.9375 1.125 1.9375 2 4l1 2-2 3c-2.347656.328125-2.347656.328125-5.0625.25l-2.722656-.046875C43 48 43 48 42 47c-.270134-1.559145-.51607-3.122513-.75-4.6875C40.237 37.09853 38.884444 34.619596 35 31c-3.033517-1.83275-5.145948-2.940415-8.6875-3.1875L24 27c-.659767-1.946314-1.313842-3.895078-1.917969-5.859375C19.748264 16.523641 14.481533 14.240767 10 12c-1.605432.082403-3.209634.189942-4.8125.3125-4.698955.074265-4.698955.074265-6.78125-1.574219C-2.766268 9.186198-3.884507 7.593561-5 6c-4.32093-2.640569-9.082547-2.34037-14-2l-2.8125.6875C-24 5-24 5-26.0625 3.625L-28 2C-31.593098.6371-35.20049.733368-39 1l-2.5625 1.5625C-44.840123 4.495457-46.322248 3.777986-50 3c-5.079296-.341616-9.372003-.388643-14 2v2l-2.816406-.140625C-76.71789 6.393153-76.71789 6.393153-85 11c-2.999204 4.350697-4.47297 8.729692-5 14l-2.4375-1c-5.104828-1.432934-9.733547-2.117611-14.777344-.125C-112.272179 26.737998-114.638119 29.731188-117 35l-.6875 3.75C-119 42-119 42-121.015625 43.070313-123.3299 43.839248-125.625327 44.449719-128 45l-3 1c-1.120853 2.34308-1.120853 2.34308-2 5l-1.039063 1.890625c-1.062072 2.33138-1.18964 4.002116-1.273437 6.546875-.416665 4.706771-2.072027 6.47612-5.6875 9.5625-2.92414 4.616536-2.562039 9.718373-2 15l1.75 3.25L-140 90c-.952586 1.675238-1.91848 3.346294-2.988281 4.949219C-145.020302 99.06818-144.67296 103.550627-144 108c1.069551 2.690665 2.316664 4.60252 4 7l1 2-4-2v-2h-2c-2.07677-4.20924-2.105596-7.298141-1.6875-11.9375l.300781-3.589844C-146 94-146 94-145.429688 90.957031c.471695-3.246116.318112-6.07279-.007812-9.332031l-.308594-3.210938L-146 76c-2.49506 2.49506-2.359484 3.673289-2.625 7.125l-.226563 2.757813L-149 88h-2v31h2c1.016378 5.279247 2.003169 10.518259 2.5 15.875.346665 3.34113.868269 6.133493 2.5 9.125l3 2c1.333876 3.223533.830903 5.676387 0 9h2c1.030043 2.78858 2.04931 5.580303 3.0625 8.375l.892578 2.40625.830078 2.304688.777588 2.126464C-133 172-133 172-134 174c-17.416919-25.713143-24.316624-56.315902-19-87 .836828-3.729165 1.80112-7.371388 3-11h2l.304688-2.519531c.793587-3.972395 2.180762-7.488276 3.820312-11.167969l.94336-2.12915C-138.56297 50.568099-132.71389 42.1221-126 34l1.84375-2.324219C-106.90366 11.07221-80.041901-2.720855-53.422363-5.793457-34.875448-7.374861-17.763504-5.427737 0 0Z" transform="translate(186 15)" style="fill:#b93e70"/><path d="M0 0c1.21387 3.641608.66747 4.331655-.9375 7.6875l-1.152344 2.449219L-3 12l2.375.375C2 13 2 13 4 15c-2.585273 1.292636-4.308514.959428-7.1875.8125C-8.744098 15.732287-11.464125 16.911745-16 20h-2v11l3.75.6875C-1.304786 34.61389 10.190618 41.03149 19 51v2c-3.827638-.605301-6.097058-2.4018-9.125-4.75C4.800465 44.452636-.257068 41.663389-6 39v17c-6.138467-1.911982-11.77146-4.222898-17.519531-7.109375C-26.258791 47.90708-27.355056 47.859838-30 49c-1.754228 1.976706-1.754228 1.976706-3 4-3.795889-.54227-5.47212-2.201276-8-5-6.57735 1.754911-12.61521 4.057608-18.75 7.011719C-62 56-62 56-64 56c-.2019-6.359878.372217-11.852211 2-18-9.395183 4.210233-16.706734 8.589101-24 16l-3-1c2.553057-7.73937 9.19454-11.640537 16.195313-15.222656C-66.31958 34.617063-59.995102 31.815243-53 30l1-10-2.6875-.8125C-57.853709 18.052444-60.364976 17.092519-63 15c-.132813-2.605469-.132813-2.605469 0-5l2.054688 1.136719c1.952954 1.073854 3.910303 2.13974 5.871093 3.199219 1.902548 1.029841 3.79753 2.073974 5.679688 3.140624C-43.726101 20.558602-38.541237 22.65897-32 22c4.222325-1.261717 8.068304-3.023497 12-5l2.445313-1.167969C-10.659488 12.312356-3.115524 7.323926 0 0Z" transform="translate(184 173)" style="fill:#231b0f"/><path d="m0 0 1 3-2 1c-.46523 1.895333-.46523 1.895333-.625 4.0625L-2 12l3.5.5C13.279041 15.160984 25.09965 21.846228 33 31v2l2.875-1.5625L39 30l2 1c-1.375 1.5-1.375 1.5-3 3h-2l-.125 1.875C35 38 35 38 32.480469 39.070313 28.457649 40.14487 24.573779 40.615892 20.4375 41c-5.198241.500812-10.307036 1.14674-15.453125 2.046875-7.330825 1.151108-14.540195 1.256243-21.942139 1.213867-2.237658-.01078-4.474523-.000006-6.712158.012695C-39.424769 44.289997-39.424769 44.289997-46 42l-2-2-1 1c-4.61032.409806-6.463601-.148065-10-3-3.586097-1.102202-3.586097-1.102202-7 0l2-4 .6875-2.125C-61.233944 28.905635-58.406813 28.75707-55 28v-3l3-1 1-2-2-1h3l-2 18 4.453125-2.039063c1.931925-.8628 3.864237-1.724735 5.796875-2.585937l2.933594-1.351563 2.832031-1.25 2.60254-1.174316C-31 30-31 30-28.786134 30.787598-27 32-27 32-25.4375 33.625-23.970217 35.345611-23.970217 35.345611-21 35c2.201423-2.43907 2.201423-2.43907 4-5 5.564726.560028 9.926794 2.634524 14.875 5.0625L.25 36.205078C2.16995 37.129932 4.085439 38.06404 6 39l-.216553-1.790771C5.14574 31.750563 4.91275 26.496735 5 21c6.430222 1.9412 11.024812 5.018329 16.367188 9.058594C24.462543 32.341074 27.611258 34.19267 31 36 21.455738 23.458905 8.43012 18.81004-6 14V3l6-3Z" transform="translate(172 190)" style="fill:#aaded8"/><path d="m0 0 2.6875 1.5c7.060042 3.00732 15.466645 2.37481 22.625 0L29 0v12h7l1-2c11.573624 3.992808 23.288029 9.024446 31 19v2c-3.827638-.605301-6.097058-2.4018-9.125-4.75C53.800465 22.452636 48.742932 19.663389 43 17v17c-6.939986-2.161635-13.431176-4.893621-20-8l2-3-2-1-1-3-6 7c-4.606462-1.151616-5.527272-2.304783-8.5625-5.8125l-2.316406-2.644531L3 15l-1.765625-1.964844C-.411483 10.321575-.299833 8.395336-.1875 5.25l.082031-2.984375L0 0Z" transform="translate(135 195)" style="fill:#0a1314"/><path d="M0 0v2c-6.75 4-6.75 4-9 4v2l-3 1-1.5 1.5C-15 12-15 12-18 13l-1 2h17l1-8c2.0625-1.5 2.0625-1.5 4-2l-.875 1.9375C.675228 10.884103-.15778 14.88746-1 19l-2.4375-1c-5.104828-1.432934-9.733547-2.117611-14.777344-.125C-23.272179 20.737998-25.638119 23.731188-28 29l-.6875 3.75C-30 36-30 36-32.015625 37.070313-34.3299 37.839248-36.625327 38.449719-39 39l-3 1c-1.120853 2.34308-1.120853 2.34308-2 5l-1.039063 1.890625c-1.062072 2.33138-1.18964 4.002116-1.273437 6.546875C-46.729165 58.144271-48.384527 59.91362-52 63c-2.92414 4.616536-2.562039 9.718373-2 15l1.75 3.25L-51 84c-.952586 1.675238-1.91848 3.346294-2.988281 4.949219C-56.020302 93.06818-55.67296 97.550627-55 102c1.069551 2.690665 2.316664 4.60252 4 7l1 2-4-2v-2h-2c-2.07677-4.20924-2.105596-7.298141-1.6875-11.9375l.300781-3.589844C-57 88-57 88-56.429688 84.957031c.471695-3.246116.318112-6.07279-.007812-9.332031l-.308594-3.210938L-57 70c-2.49506 2.49506-2.359484 3.673289-2.625 7.125l-.226563 2.757813L-60 82h-2v31h2c1.016378 5.279247 2.003169 10.518259 2.5 15.875.346665 3.34113.868269 6.133493 2.5 9.125l3 2c1.333876 3.223533.830903 5.676387 0 9h2c1.030043 2.78858 2.04931 5.580303 3.0625 8.375l.892578 2.40625.830078 2.304688.777588 2.126464C-44 166-44 166-45 168c-17.416919-25.713143-24.316624-56.315902-19-87 .836828-3.729165 1.80112-7.371388 3-11h2l.304688-2.519531c.793587-3.972395 2.180762-7.488276 3.820312-11.167969l.94336-2.12915C-49.56297 44.568099-43.71389 36.1221-37 28l1.84375-2.324219C-30.482882 20.094701-25.247242 15.60653-19.5 11.1875l2.120605-1.63379C-4.638148 0-4.638148 0 0 0Z" transform="translate(97 21)" style="fill:#bc4675"/><path d="m0 0 2.11914.61377C30.109818 8.887024 53.499828 26.191412 69 51l1.675781 2.488281c15.140407 23.734518 19.455232 55.365234 13.88086 82.68457C82.922127 143.294664 80.761418 150.234528 78 157c-1.047943-3.143828-1.00521-4.872034-.6875-8.125l.238281-2.695313L78 144l2-1c2.901755-9.661842 3.458021-19.402094 3.336182-29.418945-.02399-2.108126-.020477-4.21501-.013916-6.323243C83.29589 100.781312 82.856848 95.250173 81 89v-4h-2c-.671846-2.102519-1.33731-4.207078-2-6.3125l-1.125-3.550781C75 72 75 72 75 69h-2l-.375-2.4375L72 64l-2-1c-.625-3.0625-.625-3.0625-1-6h-3c.277253 3.126456.574244 6.250725.875 9.375l.238281 2.695313c.08379.85078.167578 1.701562.253906 2.578125l.222168 2.38037C67.858845 76.224203 67.858845 76.224203 70 78l-1 3c-2.503906-1.542969-2.503906-1.542969-5-4-.277344-3.425781-.277344-3.425781.0625-7.3125.245352-4.68419.402327-8.228085-2.8125-11.9375-1.599634-1.520029-1.599634-1.520029-3.25-2.75l-2.375-1.9375L54 52l6-1 1-3-1.5-1.375C58 45 58 45 58 43l-2-1c-.625-2.5625-.625-2.5625-1-5h-2l-1.238281-2.734375c-5.313893-9.850143-16.505272-15.629947-25.884033-21.155273-1.764042-1.04315-3.505409-2.124374-5.244874-3.208008C16.354692 7.475919 11.772118 6.21051 7.0625 4.875l-2.591797-.761719C1.985554 3.389157-.505192 2.690021-3 2l-2.059082-.588867C-32.806474-6.126572-63.735453-.33787-88.5 13.375-95.242552 17.256148-101.17758 21.83795-107 27l-2.320313 1.886719C-125.32294 42.185069-134.052626 60.8513-141 80c-2.023166-6.8571 1.979964-14.082407 5.127441-20.186523C-119.8101 30.658623-95.293282 10.47671-63.76953-.082031-43.649711-5.715581-20.029998-5.823201 0 0Z" transform="translate(179 11)" style="fill:#ca3b73"/><path d="M0 0h47c-1.060882 9.547934-2.098046 12.151502-9 18-6.135503 4.077391-13.92341 3.771508-21 3-6.73995-1.768403-11.023393-6.481218-15-12C.163869 5.487401 0 4.061074 0 0Z" transform="translate(125 161)" style="fill:#1a0805"/><path d="M0 0h1v6h2V1h1l.367188 2.011719C5.4481 9.762402 5.4481 9.762402 8 16c2.442886 1.310683 2.442886 1.310683 5 2l2 1c1.707027.06996 3.41668.084402 5.125.0625l2.757813-.027344L25 19l.628906 1.609375c1.987078 4.556145 3.807557 7.534768 8.308594 9.804688 2.508896.712754 4.588932.60788 7.1875.460937 4.421786-.221761 4.421786-.221761 6.554688 1.410156C49 33.9375 49 33.9375 51 37c2.994246 1.497123 5.691734 1.114078 9 1l1.867188-.691406c3.264556-.472344 5.08673.997858 7.882812 2.628906l2.984375 1.714844L75 43v10l-4 1.5C54.150372 61.124017 54.150372 61.124017 40 72c-.758154 2.109142-.758154 2.109142-1 4 3.078654-1.379618 5.242987-3.001231 7.6875-5.3125C51.794568 66.12455 56.982418 62 64 62l-1 3h-3v3l-3.3125 1.125c-3.233385 1.35488-3.673265 1.85158-5.625 5.0625L50 77l3-1c5.357143 2.357143 5.357143 2.357143 7 4 4.142769.247331 4.142769.247331 8-1l1 1.4375c5.364907 4.191334 15.953887 2.886177 22.5 3.125l3.359375.13086c2.71344.105262 5.42696.207398 8.140625.30664v1c-16.58844.501978-32.100359-.332384-48.3833-3.55371-2.645767-.451247-5.25-.692903-7.925294-.895509C42.579878 80.18144 39.607178 79.232682 36 77.125l-2.75-1.554688C31 74 31 74 29 71l2.5 1c3.415512.376847 3.415512.376847 5.152344-1.398438L38.4375 68.625C46.229169 60.116856 57.871861 53.862093 69 51h3c-.025252-2.910385-.025252-2.910385-1-6-3.961252-3.301043-7.579364-3.07793-12.5-2.9375-7.07082.177578-7.07082.177578-10.25-1.875C46 38 46 38 45 35l-1.941406.140625C36.673507 35.407067 33.155314 34.841214 28 31c-1.927133-1.917351-3.40166-3.772012-5-6v-2l-1.6875.175781C14.859808 23.557275 10.967884 22.111741 6 18 1.82785 13.608263-.10371 9.733991-.125 3.6875L0 0Z" transform="translate(57 150)" style="fill:#f3d3e5"/><path d="m0 0 .395508 3.221924c.493993 3.99568 1.005078 7.98903 1.520996 11.981933.219739 1.718823.435019 3.438223.645508 5.158204C4.347126 37.211627 4.347126 37.211627 12 52l2.3125-.9375C19.508534 49.008254 21.65577 49.21859 27 51c1.353506.624695 2.699345 1.271633 4 2v2c7.665867 1.021068 14.48595 1.191598 22-1 0 4.36108-.293086 5.681848-3 9-9.131386 3.835182-18.918523 2.263293-28-1-9.830944-4.836824-17.532595-11.92366-22-22-.707764-3.507568-.707764-3.507568-1.167969-7.339844l-.25618-2.076309c-.175613-1.440651-.34592-2.881959-.511154-4.323837-.25124-2.189177-.518803-4.375872-.789306-6.562744C-3.478615 13.436474-4.100191 7.318113-4 1c2-1 2-1 4-1Zm54 53 2 1-2 1v-2Z" transform="translate(110 128)" style="fill:#a46847"/><path d="M0 0c5.277496 1.029755 8.295112 3.478438 11.648438 7.503906C14.135613 12.097274 13.659506 16.941285 13 22l-1 3 1.75.625C17.046641 27.639614 18.267788 29.535576 20 33c.424507 3.375347.520807 6.632921 0 10l-2 2c.096989 2.457043.279605 4.81383.5625 7.25.631758 5.657867.488366 8.874384-2.5625 13.75l-2 2c-.389715 2.461104-.389715 2.461104-.5 5.25-.628882 8.007764-.628882 8.007764-2.5 11.75l-2.5 1.1875c-2.719506 1.564294-2.719506 1.564294-3.128906 4.296875a1899.045243 1899.045243 0 0 0-.859375 5.917969C4 99 4 99 2.25 101.5c-5.030456 3.353637-9.202716 4.895272-15.25 5.5l-.628906 2.046875c-1.570675 4.547728-2.683152 7.3775-6.433594 10.515625-3.137708 1.47776-5.997367 1.647336-9.4375 1.8125-5.93769.31036-8.482426 2.502009-12.5 6.625-3.003137 1.501569-5.790675 1.092812-9.125 1.0625l-3.882813-.027344L-58 129l2-4 2.195313.140625C-47.648316 125.370463-43.80402 125.311299-39 121l2-3c2.644531-.441406 2.644531-.441406 5.8125-.5625 4.1656-.170764 7.437735-.535833 11.1875-2.4375 1.305147-2.217766 1.305147-2.217766 2-5l1.125-3.8125L-16 103l1.757813-.078125C-8.791338 102.526104-5.289525 101.66179-1 98c1.957252-2.60967 2.078509-4.841115 2.3125-8 .339037-3.441546.5063-3.82786 3.1875-6.375L7 82l1-2h2l-.394531-2.703125L9.1875 73.75l-.457031-3.515625C9 67 9 67 11.429688 64.808594L14 63c1.214557-4.777256 1.128513-7.957261-.125-12.6875-1.046363-4.014477-1.046363-4.014477.5625-6.8125L16 41c.25889-4.473957-.169075-7.92784-2.9375-11.5C11.078775 27.970888 11.078775 27.970888 9 27l.070313-2.886719L9.125 20.3125l.070313-3.761719C9.007395 13.134451 8.626662 10.984898 7 8 5.006282 6.657292 3.006544 5.323465 1 4 .125 1.75.125 1.75 0 0Z" transform="translate(231 63)" style="fill:#edc9dc"/><path d="M0 0c2.277344 1.019531 2.277344 1.019531 4 2L1 3v4l-1.828125.078125L-3.25 7.25l-2.390625.140625c-2.533399.424268-2.533399.424268-4.222656 2.660156C-12 12-12 12-15.277344 12.214844L-18.9375 11.9375c-4.682453-.312785-4.682453-.312785-8.984375 1.125C-29.361915 14.568106-29.361915 14.568106-31 17l-3 1-3-2c-4.59383-.444564-6.882561-.655888-10.875 1.6875C-50.071791 20.078126-50.86652 22.004375-52 25l-3 1v-3l-3-1h2l-.175781-1.757813C-56.421491 15.9879-56.515513 12.970764-53.75 9.5625c3.640167-3.391974 5.14253-4.473196 10.125-4.75C-40 5-40 5-36.875 5.75c3.03025.569007 3.03025.569007 5.625-1.625L-29 2c3.036553-1.518277 5.639128-1.168044 9-1l3.125 1.1875L-14 3C-9.050163.056854-5.763647-.79392 0 0Z" transform="translate(156 19)" style="fill:#1a161a"/><path d="m0 0 1 3-2 1c-.46523 1.895333-.46523 1.895333-.625 4.0625L-2 12l3.5.5C13.279041 15.160984 25.09965 21.846228 33 31v2l2.875-1.5625L39 30l2 1c-1.375 1.5-1.375 1.5-3 3h-2l-.125 1.875C35 38 35 38 32.480469 39.070313 28.457099 40.145016 24.57379 40.61353 20.4375 41c-5.57405.562806-11.09416 1.213887-16.625 2.125C-.541767 43.830502-4.596137 44.20483-9 44v-1l2.117188-.402344L-4.125 42.0625l2.742188-.527344C.999563 41.100363.999563 41.100363 3 40l2 1V21c8.950348 3.35638 8.950348 3.35638 13.5625 6.9375C22.588648 30.982345 26.549815 33.626568 31 36 21.455738 23.458905 8.43012 18.81004-6 14V3l6-3Z" transform="translate(172 190)" style="fill:#efc8df"/><path d="m0 0 2.6875 1.5c5.983637 2.581896 13.94192 2.76761 20.023438.480469L25 1h3c.801228 5.203035 1.129377 9.324525-1.898438 13.816406C23.810813 17.303613 21.427725 19.64775 19 22c-1.028811 1.31123-2.04069 2.637098-3 4-4.19527-.487378-5.878457-2.710636-8.5625-5.8125l-2.316406-2.644531L3 15l-1.765625-1.964844C-.411483 10.321575-.299833 8.395336-.1875 5.25l.082031-2.984375L0 0Z" transform="translate(135 195)" style="fill:#9c6240"/><path d="m0 0 7 3-.105469 2.335938L6.8125 8.375l-.105469 3.023438L7 14l3 2c.264648 1.983643.264648 1.983643.109375 4.394531l-.152344 2.646485L9.75 25.8125l-.160156 2.736328C9.321722 32.792011 8.895974 36.837415 8 41H7V17h-8v2h2c.6875 2.3125.6875 2.3125 1 5-1.1875 1.875-1.1875 1.875-3 3-2.1875-.3125-2.1875-.3125-4-1l-1.125 2.4375C-8 31-8 31-11.1875 31.8125L-14 32l-4-5-1 2h-2c1.361545-4.455966 3.028547-6.54953 7-9 2.364757-.604282 4.694907-1.054382 7.109375-1.410156L-5 18l1-3h-18l1-5C-13.889737 8.751803-7.152758 7.737704.074219 8.222656L2 8l2-3-4-1V0Z" transform="translate(182 111)" style="fill:#8c624a"/><path d="M0 0c2.375 2.9375 2.375 2.9375 4 6l1.6875 1.5625C7.485585 9.531832 7.551944 11.416348 8 14c-3.12255 1.339126-6.248424 2.670307-9.375 4l-2.695313 1.15625L-6.648438 20.25l-2.38037 1.015625C-11 22-11 22-13 22c-.2019-6.359878.372217-11.852211 2-18-9.395183 4.210233-16.706734 8.589101-24 16l-3-1c2.789032-8.454709 10.789359-12.599289 18.3396-16.510498L-17.4375 1.375l2.107666-1.112549C-9.958914-2.286769-5.513249-2.440986 0 0Z" transform="translate(133 207)" style="fill:#1e2f2e"/><path d="m0 0 2 2-1.828125.664063C-5.250353 4.815463-8.370708 6.522308-11 12c-.790705 3.230388-.790705 3.230388-1 6h-3l-.5625 1.9375L-17 22l-3.375.4375c-3.6277.260429-3.6277.260429-5.9375 2.375-1.749354 3.304335-2.13261 5.579463-2.625 9.25-.75956 5.63456-.75956 5.63456-3.625 8.5L-35 44c-1.004969 3.014906-1.103353 5.041817-1.0625 8.1875l.027344 2.730469L-36 57h-2c-2.074945-3.40291-3-5.537916-3-9.5625 1.51991-5.22469 4.585067-7.494211 9-10.4375l-1-2c-.06996-1.707027-.084402-3.41668-.0625-5.125l.027344-2.757813L-33 25h-3c1.114963-3.902371 2.87223-6.516762 6.070313-9.0625C-26.169221 14.110553-22.070148 14.63803-18 15l-1-2c.050781-2.347656.050781-2.347656.3125-5.0625l.238281-2.722656L-18 3l2-1v2C-5.870345-.314483-5.870345-.314483 0 0Z" transform="translate(90 45)" style="fill:#171618"/><path d="m0 0 2.11914.61377C22.567835 6.657826 43.659787 18.07291 57.4375 34.875l1.496094 1.804688L60 38l-1 2-2.421875-2.527344C41.870815 22.318096 25.426449 10.662546 5.0625 4.4375l-2.013672-.63086C1.037853 3.184429-.978043 2.585498-3 2l-1.934082-.562012C-32.739151-6.108404-63.676459-.370537-88.5 13.375-95.242552 17.256148-101.17758 21.83795-107 27l-2.320313 1.886719C-125.32294 42.185069-134.052626 60.8513-141 80c-2.023166-6.8571 1.979964-14.082407 5.127441-20.186523C-119.8101 30.658623-95.293282 10.47671-63.76953-.082031-43.649711-5.715581-20.029998-5.823201 0 0Z" transform="translate(179 11)" style="fill:#f9d2e6"/><path d="M0 0c12.14611 1.018027 12.14611 1.018027 15.5 4.875L17 8c3.720454 3.634086 6.37327 4.50029 11.5 4.9375 7.07527.879412 7.07527.879412 9.6875 3.625L40 19c2.804714 1.402357 5.06472.94546 8.1875.8125C54.12231 19.740124 57.269466 20.479602 62 24v6l-3.007813.996094c-12.242605 4.220385-24.149121 9.654232-32.5625 19.886719C25 52 25 52 23.132813 51.804688L21 51l-2.417969-.808594C15.559456 48.796723 13.26398 47.04067 10.6875 44.9375l-2.675781-2.160156L6 41v-1c2.6875-.375 2.6875-.375 6 0 1.228935 1.455318 2.45237 2.919802 3.566406 4.464844C18.15613 47.238034 21.434665 47.91227 25 49l.386719-1.890625C26.22071 44.240867 27.441237 43.46215 30 42h4l1-4 7-2v-2h5l1-4 9-1-1-5-14 1v-2h-2c-1.354327-1.312004-2.687335-2.646314-4-4l-2-1v-2l-3.375.1875C25.543758 16.178443 20.600787 15.190073 16 13c-2.609822-2.889446-3.465488-5.151517-4-9l-3.1875.125C5.259898 4.008521 3.151334 3.52792 0 2V0Z" transform="translate(67 171)" style="fill:#bd3f70"/><path d="M0 0c1.440966.425946 2.877687.866266 4.3125 1.3125l2.425781.738281C9.123963 3.052026 10.255806 4.135171 12 6l2.375.875C17.78005 8.334307 19.630676 10.169974 22 13c.8125 2.8125.8125 2.8125 1 5h2l1 5 3 1c1.125 1.9375 1.125 1.9375 2 4l1 2-2 3c-2.347656.328125-2.347656.328125-5.0625.25l-2.722656-.046875C20 33 20 33 19 32c-.219994-1.498334-.425762-2.998765-.625-4.5C17.244045 21.499894 14.338705 17.242074 10 13l-3-1v-2l-1.8125-.1875C2.055936 8.649347 1.38138 6.969967 0 4V0Z" transform="translate(209 30)" style="fill:#d7286a"/><path d="m0 0 3.632813.046875C6.229169.209538 8.40514.488153 10.875 1.25v5l-2.625-.5c-6.072618-.892662-12.254661-.576398-18.375-.5-.117851 1.22097-.117851 1.22097 1.4375 2.4375C-6.143437 9.238758-4.627506 9.615492-1.75 10.125c4.786026.917651 7.165128 2.753843 10.625 6.125l-1 3-1-3h-2l-.4375 2.4375C3.875 21.25 3.875 21.25 2.875 22.25c-3 .125-3 .125-6 0-1-1-1-1-1.0625-4.5625l.0625-3.4375-1.25 1.5625-1.75 1.4375c-1.340615-.30272-2.674059-.63838-4-1-2.21771.857902-2.21771.857902-4 2-2.10827-3.162406-2.338175-4.506575-2.625-8.1875l-.226563-2.730469L-18.125 5.25-16 4.4375c2.909432-1.131029 2.909432-1.131029 5.609375-2.746094C-6.651245.040891-4.066446-.087828 0 0Z" transform="translate(127.125 120.75)" style="fill:#8d5f46"/><path d="M0 0h3l.183594 2.082031L3.4375 4.8125l.246094 2.707031C3.934898 10.127436 3.934898 10.127436 5 13l-3.375 1.75c-2.147526 1.247652-3.531863 2.13746-5.125 4.0625-.741262 3.24302-.13602 5.949582.5 9.1875l.375 2.375L-2 32l3 1-3 3 4 2-1.5 2.0625C-1.366797 43.718312-1.428096 45.933084-1 50c1.341268 3.267509 1.341268 3.267509 3 6l1 2c-3.083135-1.198997-6.062795-2.477005-9-4v2h-2c-2.711345-4.067017-2.521467-7.22779-2-12 .724392-2.679259 1.617003-4.54134 3-7l3-1-1.9375-2.8125C-9.142137 28.234879-9.887853 23.790772-9 18c1.378783-2.66381 2.714978-3.922707 5-6 2.171875-.65625 2.171875-.65625 4-1-.08379-.626484-.167578-1.252969-.253906-1.898438L-.5625 6.625l-.316406-2.460938C-1 2-1 2 0 0Z" transform="translate(54 70)" style="fill:#1c1b1d"/><path d="M0 0h1v12h-2v31h2c1.016378 5.279247 2.003169 10.518259 2.5 15.875.346665 3.34113.868269 6.133493 2.5 9.125l3 2c1.333876 3.223533.830903 5.676387 0 9h2c1.030043 2.78858 2.04931 5.580303 3.0625 8.375l.892578 2.40625.830078 2.304688.777588 2.126464C17 96 17 96 16 98-1.416919 72.286857-8.316624 41.684098-3 11c.836828-3.729165 1.80112-7.371388 3-11Z" transform="translate(36 91)" style="fill:#d14279"/><path d="M0 0c2.2707.023874 4.54024.020499 6.811035.013916C13.53796.039452 19.460474.25199 25.877441 2.336182l-2 3h-4v2l-2.0625-.4375c-9.61278-2.214807-9.61278-2.214807-18.9375-.5625-1.391085.04847-2.784576.037098-4.17578-.007813l-2.509766-.050781c-1.739808-.04398-3.479432-.095957-5.21875-.15625-5.142552-.087635-7.700738.40411-12.095704 3.214844-3.55078.292968-3.55078.292968-7.3125.1875l-3.80078-.082032-2.88672-.105468 1-3c2.249689-1.038318 4.518372-1.569736 6.915528-2.192627 1.964649-.514255 3.924981-1.045515 5.878906-1.599121C-16.786525.30088-8.763579-.098564 0 0Z" transform="translate(146.122559 10.663818)" style="fill:#d62d6c"/><path d="M0 0c5.444916.39371 9.631684 2.579335 14.375 5.0625l2.230469 1.142578C18.407396 7.129444 20.20423 8.063726 22 9v2c-1.395678.313191-2.79155.625518-4.1875.9375l-2.355469.527344L13 13l-2.271484.525146c-2.99713.521602-5.79993.604411-8.841797.607667l-3.533203.003906L-5.3125 14.125l-3.63086.011719C-15.056956 14.129982-20.957382 13.9458-27 13v-1h16c1.161508-1.10291 1.161508-1.10291 2.4375-3.0625L-7 7h2c1.38124-1.96722 2.714881-3.968683 4-6l1-1Z" transform="translate(155 220)" style="fill:#b0e3dc"/><path d="m0 0-1 3h-3v3l-3.3125 1.125c-3.233385 1.35488-3.673265 1.85158-5.625 5.0625L-14 15l3-1c5.357143 2.357143 5.357143 2.357143 7 4 4.142769.247331 4.142769.247331 8-1l1 1.4375c5.364907 4.191334 15.953887 2.886177 22.5 3.125l3.359375.13086c2.71344.105262 5.42696.207398 8.140625.30664v1c-16.58844.501978-32.100359-.332384-48.3833-3.55371-2.645767-.451247-5.25-.692903-7.925294-.895509C-21.420122 18.18144-24.392822 17.232682-28 15.125l-2.75-1.554688C-33 12-33 12-35 9l1.75.9375c2.092942.988334 3.995353 1.579361 6.25 2.0625v2c4.277816-.508551 6.206973-1.752055 9.25-4.75C-12.525966 4.40098-7.33916 0 0 0Z" transform="translate(121 212)" style="fill:#eaf5f5"/><path d="m0 0 .395508 3.221924c.493993 3.99568 1.005078 7.98903 1.520996 11.981933.219739 1.718823.435019 3.438223.645508 5.158204C4.219207 37.861965 4.219207 37.861965 12.75 52.6875l1.859375 1.949219L16 56l-2 1c-1.224023-.93821-2.428191-1.902313-3.625-2.875l-2.039063-1.617188C.339645 43.923164-1.25707 35.054474-2.375 23.8125a1480.531568 1480.531568 0 0 0-.496094-4.310547C-3.568782 13.312813-4.085102 7.236952-4 1c2-1 2-1 4-1Z" transform="translate(110 128)" style="fill:#fbf7f1"/><path d="m0 0 1 3c-4.733328 5.071422-8.103485 6.204248-15 7l-.628906 2.046875c-1.570675 4.547728-2.683152 7.3775-6.433594 10.515625-3.137708 1.47776-5.997367 1.647336-9.4375 1.8125-5.93769.31036-8.482426 2.502009-12.5 6.625-3.003137 1.501569-5.790675 1.092812-9.125 1.0625l-3.882813-.027344L-59 32l2-4 2.195313.140625C-48.648316 28.370463-44.80402 28.311299-40 24l2-3c2.644531-.441406 2.644531-.441406 5.8125-.5625C-28.0219 20.266736-24.749765 19.901667-21 18c1.305147-2.217766 1.305147-2.217766 2-5l1.125-3.8125L-17 6l1.722656-.113281C-9.925914 5.431088-5.777109 4.488078-1 2l1-2Z" transform="translate(232 160)" style="fill:#e2c5d6"/><path d="M0 0c6.701946 2.109872 12.936285 5.007462 18 10 .625 3.9375.625 3.9375 0 7-4.970631.912973-9.029369.912973-14 0l1-3H3l-2 4C.229591 11.933033-.097061 6.11485 0 0Z" transform="translate(177 211)" style="fill:#a8dcd8"/><path d="m0 0 2 1c.340773 2.675813.559773 5.250593.6875 7.9375l.142578 2.248047C3.136537 16.726926 3.136537 16.726926 2 19c-.2303 2.371232-.4112 4.74742-.5625 7.125-.08379 1.281328-.167578 2.562656-.253906 3.882813L1 33c-2.35953-2.35953-2.491414-3.778956-3-7l.105469 3.578125c.028143 1.557277.055443 3.11457.082031 4.671875l.076172 2.355469.029297 2.285156.047607 2.094727C-2.10151 43.600475-3.304109 45.004834-5 47c-.024769-4.199215-.042892-8.39839-.054932-12.597656-.00502-1.427742-.011838-2.855479-.020507-4.283203-.012167-2.055352-.017812-4.110635-.022217-6.166016l-.01587-3.745117C-5.020716 17.585433-4.783565 15.483554-4 13h2l-.070313-2.082031L-2.125 8.1875l-.070313-2.707031C-2 3-2 3 0 0Z" transform="translate(39 90)" style="fill:#d42768"/><path d="m0 0 4 1-.091797 1.876709C3.769903 5.730203 3.634933 8.583845 3.5 11.4375l-.144531 2.951172-.136719 2.919922-.140625 2.909668c-.07199 2.563273.020345 5.069686.140625 7.629394C3.26649 32.267353 1.512658 34.378955-1 38c-.96391 3.812192-1.28678 7.725866-1.689453 11.63086C-2.97972 51.855002-3.268591 53.878373-4 56c-2.5625 1.746094-2.5625 1.746094-5 3-.669246 2.32515-.669246 2.32515-.5625 4.875C-9.788761 68.426841-10.503036 70.820942-14 74h-2v2h-6c4.75-4 4.75-4 7-4l.296875-2.738281L-14.25 65.6875l.421875-3.550781C-13 59-13 59-11.046875 57.08203-9 56-9 56-7 56l.296875-3.542969c.150135-1.548265.301227-3.096438.453125-4.644531l.1875-2.330078C-5.538985 40.399967-4.476546 37.903369-1 34c1.595095-5.297648.978141-10.777258.058594-16.152344L-1 16l2-2c.281472-2.303131.281472-2.303131.1875-4.875l-.019531-2.617188C1.013937 4.208079.641618 2.207166 0 0Z" transform="translate(249 92)" style="fill:#c7527f"/><path d="M0 0c1 3 1 3-.1875 5.785156C-8.035017 19.974956-17.51452 34.510218-31 44l1-7h5v-4h3l.375-2.25c.60301-2.653247 1.044845-4.537782 2.625-6.75 2.625-.75 2.625-.75 5-1v-3h2v-4h2l.625-3.6875C-8.189637 7.450794-5.96896 5.894034-2 3l2-3Z" transform="translate(255 168)" style="fill:#c7356e"/><path d="M0 0c3.843046.782843 5.658513 1.888696 8.375 4.6875v2l-2.230469-.175781C-.240282 6.073963-.240282 6.073963-5.625 9.125l-2 2.5625-3 1-3-2c-5.798596-.591415-5.798596-.591415-10.875 1.875l-2.125 2.125-2 2c-.477745-6.210682-.477745-6.210682 1.4375-9.375 3.700134-2.346427 7.207204-2.85749 11.5625-2.625 3.0625 1.4375 3.0625 1.4375 5 3l1.285156-1.53125C-4.563457.865483-4.563457.865483 0 0Z" transform="translate(132.625 24.3125)" style="fill:#f2f2f1"/><path d="m0 0 2 2c2.570613.647678 2.570613.647678 5 1L6 6 3.4375 5C-.350578 3.898014-3.074978 3.579462-7 4c-3.182884 1.871781-3.182884 1.871781-6 4-3.1097 1.155032-3.732856 1.089048-7 0-4.191717-.395445-6.480753-.269609-10.25 1.6875C-34.897725 13.595814-36.30454 17.019048-37 23l-2-1c-.313269-4.542398-.427352-7.111107 1.5625-11.25 3.39774-3.833347 6.597365-6.404117 11.714844-7.027344C-21.714206 3.66263-17.894654 3.994928-14 5V3C-9.820282-.50557-5.239421-.792604 0 0Z" transform="translate(136 17)" style="fill:#f2d1e2"/><path d="M0 0h1l1 5 1-5h1c.36923 6.523077.36923 6.523077-1.5 8.9375L1 10l-2.3125-1C-7.194888 7.404776-13.196174 7.006978-19 9.0625c-3.259797 3.157928-4.814284 6.628158-5.179688 11.171875C-24.186505 22.157171-24.10106 24.07985-24 26h-7v-1h5l-1-2-2.25 1.0625c-2.882273.982593-3.961763.97018-6.75-.0625l7-2 .75-3.625c1.496368-5.811239 4.017525-9.758089 8.9375-13.25C-14.893851 2.561194-11.00258 2.248662-6 3c3.0625 1 3.0625 1 5 2l1-5Z" transform="translate(96 34)" style="fill:#eaccdc"/><path d="M0 0c19.72544 9.088161 19.72544 9.088161 25 17l-5-2v-2l-2.25-.375C15.198585 12.045133 13.273243 11.262913 11 10c1.908847 4.54171 1.908847 4.54171 4 9l3 1v2l5 1-2 2c-3.20843-.645722-6.113095-1.43431-9-3-1.045594-1.949194-1.495521-3.795525-2.058594-5.929688C7.843416 11.456475 2.368094 9.184048-2 7c-1.707027-.06996-3.41668-.084402-5.125-.0625l-2.757813.027344L-12 7V5c1.937423-.027034 3.874955-.046411 5.8125-.0625l3.269531-.035156C0 5 0 5 3 6V3L0 2V0Z" transform="translate(198 20)" style="fill:#c44376"/><path d="M0 0c1 2 1 2 .5 3.875C-1.67722 6.959395-4.705624 8.341807-8 10l-2.4375 1.25L-12 12V9h-6v7l2.9375.1875C-10.117744 16.856258-6.188838 19.425907-2 22v2c-4.284566-1.393618-8.48886-2.928883-12.6875-4.5625C-17.780631 18.23521-20.851716 17.049428-24 16c-.488281-5.957031-.488281-5.957031 0-8 3.658698-3.006785 6.31688-3.26457 10.9375-2.9375C-7.570524 5.224824-5.081302 4.64008-1 1l1-1Z" transform="translate(194 186)" style="fill:#d42d6d"/><path d="M0 0h5c-.25 2.375-.25 2.375-1 5l-1.9375.8125L0 7l-2 8h-17l1-3 5-1 1-3h3V6c6.75-4 6.75-4 9-4V0Z" transform="translate(97 21)" style="fill:#e1266a"/><path d="M0 0h40l-2 4H2L0 0Z" transform="translate(129 164)" style="fill:#ebeaeb"/><path d="M0 0c6.354704.4796 6.354704.4796 8.9375 2.5625C10.466841 6.07099 10.65223 9.280139 10 13c-2.036257 3.854344-4.1633 6.841856-8 9h-4l1-4h2v-6l2-1V7h3V5L0 7V0Z" transform="translate(195 130)" style="fill:#7c553f"/><path d="m0 0 2 1C.625 2.5.625 2.5-1 4h-2l-.125 1.875C-4 8-4 8-6.519531 9.070313-10.542901 10.145017-14.42621 10.61353-18.5625 11c-5.57405.562806-11.09416 1.213887-16.625 2.125-4.354267.705502-8.408637 1.07983-12.8125.875v-1l2.117188-.402344L-43.125 12.0625l2.742188-.527344C-38.000437 11.100363-38.000437 11.100363-36 10l2 1V9h2V2l1 3h2l1 3h12l-1-6 2.125.875C-11.945475 4.021336-8.990783 5.026257-6 6V3C-4.035336 1.932248-2.031446.934465 0 0Z" transform="translate(211 220)" style="fill:#eef4f4"/><path d="M0 0c2.5625-.5 2.5625-.5 6 0 2.716454 2.374864 4.974313 5.015408 7 8v2l-16 6c.803571-12.321429.803571-12.321429 3-16Z" transform="translate(127 208)" style="fill:#afdad4"/><path d="m0 0 8 1c1.20568 4.672012 1.093824 9.214963 1 14-3.850259-.603554-6.861012-1.767726-10.3125-3.5625l-2.675781-1.378906L-6 9c1.838279-3.151335 3.759727-6.11965 6-9Z" transform="translate(165 208)" style="fill:#aae6e2"/><path d="M0 0v2h7C3.444821 6.99947.187947 9.813812-6 11c-6.891543.60659-13.138558 1.019274-19-3l2-3 2.132813.984375C-13.859528 8.466652-5.882646 7.50278 1 5V3l-24-1c7.444982-3.72249 14.927372-3.171833 23-2Z" transform="translate(161 171)" style="fill:#32090c"/><path d="M0 0c9.15225 13.728375 6.6423 37.484785 4 53C2.39165 60.882334.039743 68.552629-3 76c-1.047943-3.143828-1.00521-4.872034-.6875-8.125l.238281-2.695313L-3 63l2-1c2.901755-9.661842 3.458021-19.402094 3.336182-29.418945-.02399-2.108126-.020477-4.21501-.013916-6.323242C2.295952 19.796163 1.929668 14.225302 0 8c-.217948-2.715628-.095874-5.267602 0-8Z" transform="translate(260 92)" style="fill:#ebabc6"/><path d="m0 0 2.8125.25v6l-5-1v2l3 1-1 3 2 1v5h2v5c-3.5785-.298208-4.762265-.742454-7.25-3.4375-2.363102-3.460256-2.926044-5.283661-3-9.4375l-.078125-2.617188C-5.934756 2.318315-4.494119.35248 0 0Z" transform="translate(99.1875 129.75)" style="fill:#815d48"/><path d="M0 0c2.277344 1.019531 2.277344 1.019531 4 2L1 3v4l-1.828125.078125c-5.24169.29576-5.24169.29576-9.609375 2.984375L-12 12c-2 0-2 0-4.5625-2.1875C-19.011345 6.98691-19.687621 5.644417-20 2l2.6875.6875c3.293349.647881 3.293349.647881 5.625-1.125C-7.893657-.643223-4.3034-.592776 0 0Z" transform="translate(156 19)" style="fill:#262626"/><path d="m0 0 2.0625 1h2l-2 4-4-1-1.125 2.4375C-4.9375 9-4.9375 9-8.125 9.8125L-10.9375 10l-4-5-1 2h-2c.865716-2.66929 1.721912-4.677418 3.5625-6.8125C-9.771173-2.05539-4.76558-1.622325 0 0Z" transform="translate(178.9375 133)" style="fill:#261208"/><path d="M0 0c-.114096 1.459227-.241655 2.917406-.375 4.375l-.210938 2.460938C-1 9-1 9-3 11V2c-9.395183 4.210233-16.706734 8.589101-24 16l-3-1C-27.481156 9.114922-19.82794 4.80144-12.875.9375-8.129822-1.314958-5.056284-1.217254 0 0Z" transform="translate(125 209)" style="fill:#141415"/><path d="M0 0c1.21387 3.641608.66747 4.331655-.9375 7.6875l-1.152344 2.449219L-3 12l2.375.375C2 13 2 13 4 15c-2.585273 1.292636-4.308514.959428-7.1875.8125C-8.744098 15.732287-11.464125 16.911745-16 20h-2v11h-1l-1-10-4-1c2.626022-2.05951 5.21223-3.686316 8.1875-5.1875C-9.503888 11.365742-2.887343 6.787523 0 0Z" transform="translate(184 173)" style="fill:#21130c"/><path d="m0 0-2.746094 1.285156C-11.427656 5.431966-19.227134 9.819571-25.8125 17-28 19-28 19-30 18.9375L-32 18l-2.292969-.804688c-3.10828-1.372487-5.390464-3.111714-8.019531-5.257812l-2.675781-2.160156L-47 8V7c2.6875-.375 2.6875-.375 6 0 1.228935 1.455318 2.45237 2.919802 3.566406 4.464844C-34.84387 14.238034-31.565335 14.91227-28 16l.386719-1.890625C-26.77929 11.240867-25.558763 10.46215-23 9h4l1-4 7-2V1c7.625-2.125 7.625-2.125 11-1Z" transform="translate(120 204)" style="fill:#c3376c"/><path d="M0 0c-2.914058 1.942705-4.23174 2.376136-7.5625 2.9375C-12.786168 3.913097-18.058911 5.0036-23 7l-1 2c2.229883-.087506 4.45896-.19569 6.6875-.3125l3.761719-.175781C-9.859633 7.97977-8.124191 6.902779-5 5c2.9375-.328125 2.9375-.328125 6-.25l3.0625.046875C6.793582 4.985726 9.334168 5.392347 12 6l-1 2-2.4375-.5C2.43576 6.640107-3.346745 6.08219-9 9v2l-2.851563-.105469L-15.625 10.8125l-3.726563-.105469C-23.264077 11.021205-25.640702 12.030935-29 14v-4h-5c3.630155-3.183513 7.632318-4.522895 12.125-6.0625l2.293457-.795166C-5.205545-1.735182-5.205545-1.735182 0 0Z" transform="translate(131 11)" style="fill:#bc4573"/><path d="m0 0-2.25 1.5625c-4.702462 4.168091-6.812139 7.956905-7.1875 14.125-.239907 3.623205-.267339 4.032097-3.0625 6.6875L-15 24c-1.004969 3.014906-1.103353 5.041817-1.0625 8.1875l.027344 2.730469L-16 37h-2c-2.074945-3.40291-3-5.537916-3-9.5625 1.51991-5.224689 4.585067-7.494211 9-10.4375.212649-2.503307.212649-2.503307-.0625-5.3125-.119598-3.967525-.157002-5.321663 1.9375-8.8125C-6.661701-.180852-4.543711-.098776 0 0Z" transform="translate(70 65)" style="fill:#dddfdd"/><path d="M0 0c2.214844-.356445 2.214844-.356445 4.9375-.328125L7.898438-.3125 11-.25l3.101563.015625C21.691458-.154271 21.691458-.154271 24 1v2C17.369055 6.616879 10.008813 7.462305 2.671875 5.320313.75 4.5.75 4.5-2 3l2-3Z" transform="translate(138 173)" style="fill:#af4e5c"/><path d="M0 0v3h10l1 2h-45c3.2038-2.135867 4.0194-2.231322 7.6875-2.125l2.449219.054688L-22 3V0c1.999547-.042544 4.000416-.040808 6 0l1 1C-11.700872.619331-8.48879.111089-5.25-.625-3-1-3-1 0 0Z" transform="translate(161 156)" style="fill:#906b56"/><path d="M0 0c2.387094 1.44535 4.00415 3.00415 6 5L5 8 4 5H2l-.4375 2.4375C1 10 1 10 0 11c-3 .125-3 .125-6 0-1-1-1-1-1.0625-4.5625L-7 3l-1.3125 1.5C-10 6-10 6-13 6c.329876-2.474073.57972-3.663777 2.5625-5.25C-6.903276-.337454-3.619324-.714158 0 0Z" transform="translate(130 132)" style="fill:#38190b"/><path d="M0 0h47l-1 9-3 2c-1.125-4.75-1.125-4.75 0-7H3V2L1 1 0 4V0Z" transform="translate(125 161)" style="fill:#39261f"/><path d="M0 0h3l.183594 2.082031L3.4375 4.8125l.246094 2.707031C3.934898 10.127436 3.934898 10.127436 5 13l-3.375 1.75C-1.366826 16.475126-2.991851 17.572295-4 21c-.382905 1.991104-.726046 3.991005-1 6l-4-2c-.4256-4.255997-.418306-7.013098 2.25-10.375C-4.10296 12.09828-3.36609 11.618555 0 11c-.08379-.626484-.167578-1.252969-.253906-1.898438L-.5625 6.625l-.316406-2.460938C-1 2-1 2 0 0Z" transform="translate(54 70)" style="fill:#191719"/><path d="m0 0 3.5 1c4.75304 1.262394 8.700949.752634 13.5 0 1.665414-.21812 3.332103-.426756 5-.625l2.25-.289063L26 0c1 1 1 1 1.097656 3.285156L27.0625 6.0625l-.027344 2.785156L27 11l6 1v2h-7V2l-3.6875 2C16.349974 6.636362 10.416979 7.04222 4 6 1.510391 4.55232.639355 3.428674-1 1l1-1Z" transform="translate(138 193)" style="fill:#1f0703"/><path d="m0 0 1 6-3.625-.4375c-2.87711-.035836-4.005143.12877-6.242188 1.996094C-10.347834 9.319077-11.715388 11.092545-13 13l-2.5-1.4375C-19.527959 9.764304-22.631736 9.376575-27 9c1.1875-1.5 1.1875-1.5 3-3 3.124143-.312414 4.998258-.00058 8 1h2l.6875-1.8125C-10.126215-.122975-5.787227-.340425 0 0Z" transform="translate(136 20)" style="fill:#1d1d1d"/><path d="M0 0h1l2 16L4 4h1c.532786 4.081867 1.049154 8.165647 1.5625 12.25l.458984 3.511719.419922 3.378906.396729 3.110352C8 29 8 29 7 33L4 21h-5l2-1-1-3 1-2h-2v-5l-3-1 1-3-2-1V3l5 1V0Z" transform="translate(102 132)" style="fill:#4e453e"/><path d="M0 0h1v12h-2v44c-2.027358-4.054716-2.685266-7.45731-3.1875-11.875l-.260742-2.28418C-5.865652 27.884324-3.700796 13.48147 0 0Z" transform="translate(36 91)" style="fill:#e7adcc"/><path d="M0 0c1.896939.28439 3.79252.577838 5.6875.875l3.199219.492188C11.801063 1.959564 14.265813 2.860355 17 4h2c1.625 1.3125 1.625 1.3125 3 3v3L7 9V6H5L4 4 1 3 0 0Z" transform="translate(179 16)" style="fill:#df236f"/><path d="M0 0v4l3.375.875C7 6 7 6 9 8c4.145094.286022 4.145094.286022 8-1l1 1.4375c5.364907 4.191334 15.953887 2.886177 22.5 3.125l3.359375.13086c2.71344.105262 5.42696.207398 8.140625.30664v1c-13.599287.411524-26.924353.453004-40.375-1.8125l-3.019531-.500977C3.845392 9.810102-.030951 8.94723-4 6c2.875-4.875 2.875-4.875 4-6Z" transform="translate(108 222)" style="fill:#d5efed"/><path d="M0 0h29v5h-7V3c-8.037703-.141012-15.98867.408914-24 1l2-4Z" transform="translate(139 168)" style="fill:#1e1211"/><path d="M0 0v2l-1.679688.445313C-3.934674 3.143476-5.937737 3.845302-8 5c-.726939 1.97889-1.398163 3.979546-2 6-3.125 1.375-3.125 1.375-6 2v2c-1.286507.697107-2.579407 1.382429-3.875 2.0625l-2.179688 1.160156L-24 19l-2-1 1-1-5-1v-1l1.792969-.113281C-23.334284 14.481319-20.099448 13.85719-16 11h2l.621094-2.152344.816406-2.785156.808594-2.777344C-11 1-11 1-10 0c6.428571-1.190476 6.428571-1.190476 10 0Z" transform="translate(228 169)" style="fill:#c84578"/><path d="M0 0c1.792407.113899 3.583948.241477 5.375.375l3.023438.210938C11 1 11 1 13 3l-2.160156.007813C3.481548 3.304917.07282 4.794073-5 10c-3.003137 1.501569-5.790675 1.092812-9.125 1.0625l-3.882813-.027344L-21 11l2-4 2.195313.140625C-10.648316 7.370463-6.80402 7.311299-2 3l2-3Z" transform="translate(194 181)" style="fill:#fadced"/><path d="M0 0c9.279135 1.062808 16.480875 6.99565 22.855469 13.519531C24 15 24 15 24 17c-3.839953-.610086-6.188052-2.42292-9.25-4.75-3.979557-2.982-7.96137-5.69806-12.289063-8.144531C1 3 1 3 0 0Z" transform="translate(179 209)" style="fill:#12171a"/><path d="m0 0 3.632813.046875C6.229169.209538 8.40514.488153 10.875 1.25v5l-2.625-.5c-7.083644-1.018183-15.48217-1.655078-22.375.5 1-3 1-3 3.617188-4.671875C-6.740063.09887-4.031112-.087065 0 0Z" transform="translate(127.125 120.75)" style="fill:#341809"/><path d="M0 0c-2.978475 1.98565-4.872178 2.39943-8.342041 2.885254-15.079104 2.111996-28.78411 7.450552-41.759766 15.357422C-51.704728 19.212837-53.349142 20.113862-55 21l-2-1C-40.846021 7.876455-20.386848-.416058 0 0Z" transform="translate(138 8)" style="fill:#fbdfef"/><path d="M0 0c2.916915-.054017 5.832827-.09368 8.75-.125l2.5-.050781c.799219-.006446 1.598437-.01289 2.421875-.019532l2.22168-.031738C18.29896.032225 19.912515.807741 22 2v6c-1.93637.504357-3.874141 1.003339-5.8125 1.5l-3.269531.84375C10 11 10 11 7 11l1-3 9-1-1-5L2 3V1L0 0Z" transform="translate(107 193)" style="fill:#c53871"/><path d="m0 0 4 1-.105469 2.632813C3.560942 10.757146 3.560942 10.757146 5.75 17.375L7 20c-.952586 1.675238-1.91848 3.346294-2.988281 4.949219C1.979698 29.06818 2.32704 33.550627 3 38c1.069551 2.690665 2.316664 4.60252 4 7l1 2-4-2v-2H2C-.07677 38.79076-.105596 35.701859.3125 31.0625l.300781-3.589844C1 24 1 24 1.570313 20.957031c.471694-3.246116.318111-6.07279-.007813-9.332031l-.308594-3.210938L1 6l-3 2 2-8Z" transform="translate(39 85)" style="fill:#ba4e79"/><path d="M0 0c3 0 3 0 5.5625 2.25C7.593053 4.54088 8.849618 6.21991 10 9l1 2-2 3c-3.125.1875-3.125.1875-6 0v-2l-3-1V0Z" transform="translate(230 49)" style="fill:#e2296c"/><path d="M0 0c.508326 3.832276 1.005142 7.665963 1.5 11.5l.433594 3.265625C2.676168 20.564777 3.170275 26.153891 3 32H2L0 20l-1 6h-1c-.338212-2.853664-.670698-5.707806-1-8.5625l-.289063-2.423828C-3.827141 10.305478-4.101767 5.738527-4 1c2-1 2-1 4-1Z" transform="translate(110 128)" style="fill:#d9c6bb"/><path d="m0 0 1 2-2.875-.5C-9.302567.449637-16.609349.905089-24 2l1-5c8.109253-2.162467 16.029535-1.986703 23 3Z" transform="translate(184 124)" style="fill:#2f1307"/><path d="M0 0c2 2 2 2 2 4l2 2-1.9375.375L0 7c-3.208578 6.417156 1.3951 19.211809 3 26l1.160156 2.765625C5 38 5 38 4 41-2.78092 30.010232-3.362533 15.63943-4 3l3-1 1-2Z" transform="translate(115 136)" style="fill:#9a6d52"/><path d="m0 0 1 3-2 1c-.46523 1.895333-.46523 1.895333-.625 4.0625L-2 12l9 2 1 4c-1.771118-.478112-3.541885-.957528-5.3125-1.4375l-2.988281-.808594C-2.215175 15.219206-4.114336 14.628555-6 14V3l6-3Z" transform="translate(172 190)" style="fill:#dec3d2"/><path d="M0 0h1c.134894 2.269215.23194 4.540707.3125 6.8125l.175781 3.832031L1 14c-2.441406 1.601563-2.441406 1.601563-5 3-.99243 2.636268-.99243 2.636268-1.25 5.5625C-5.962025 27.92405-5.962025 27.92405-7 30l-2-1-3-1 1.4375-2c1.478438-2.838601 1.749351-4.012205 1.9375-7.0625C-8 15-8 15-5.5 12.625L-3 11l1-2h2V0Z" transform="translate(241 134)" style="fill:#caadbc"/><path d="M0 0c3.843046.782843 5.658513 1.888696 8.375 4.6875v2l-2.230469-.175781C-.262333 6.063032-.262333 6.063032-5.625 9.1875l-2 2.5h-3l1-1-2-1C-9.163726 4.764952-5.40994 1.026023 0 0Z" transform="translate(132.625 24.3125)" style="fill:#cfcfcf"/><path d="M0 0c3.214911 5.147538 2.333583 11.293505 2.315674 17.149658-.003108 2.117982.02012 4.234492.045654 6.352295C2.465271 45.802093 2.465271 45.802093-3 54c-1.188241-4.935878-.642413-7.995933.921875-12.785156C.477685 32.625363.458525 24.45337.25 15.5625a1816.310803 1816.310803 0 0 1-.054688-4.564453C.15198 7.331468.083367 3.665914 0 0Z" transform="translate(261 103)" style="fill:#c53b6f"/><path d="m0 0 2 2-1.828125.664063C-5.250353 4.815463-8.370708 6.522308-11 12c-.790705 3.230388-.790705 3.230388-1 6l-2-1c-.785452-9.96651-.785452-9.96651 2.375-14.125C-7.49306-.076386-5.10429-.273444 0 0Z" transform="translate(90 45)" style="fill:#e7e8e8"/><path d="m0 0 1.355469 1.171875L3.1875 2.75l1.792969 1.546875c1.464403 1.23497 2.977076 2.413417 4.515625 3.554688 2.755104 2.363973 4.452067 4.70538 6.378906 7.773437l1.867188 2.914063L19 21l-1 2c-3.875-3.75-3.875-3.75-5-6h-3c-4-4.342857-4-4.342857-4-7L4 9c-.625-2.5625-.625-2.5625-1-5H1L0 0Z" transform="translate(231 44)" style="fill:#cb4679"/><path d="M0 0h2v5l2.4375-.0625C7 5 7 5 8 6c4.05227.347337 7.298742-.31761 11-2 .96877-2.032435.96877-2.032435 1-4h2c.125 2.875.125 2.875 0 6-3.156969 3.156969-7.131258 3.813126-11.5 4.25C7.156144 9.915614 4.17149 9.097823 1 8-.354397 5.291207-.065015 2.990667 0 0Z" transform="translate(138 148)" style="fill:#321206"/><path d="m0 0 13 5 1-4 1 4 2-3v9C10.060014 8.838365 3.568824 6.106379-3 3l3-3Z" transform="translate(161 218)" style="fill:#19332e"/><path d="m0 0 1 2c-14.230126 18.037147-14.230126 18.037147-21 22l1-7h5v-4h3v-3h3l.8125-2.4375L-6 5l3-1c1.685386-1.996653 1.685386-1.996653 3-4Z" transform="translate(244 188)" style="fill:#db87aa"/><path d="M0 0h3L1 18H0l-1-8c-3.277735.7515-3.277735.7515-5 4-2.619412 1.746275-4.038249 2.387224-7 3l2-4 .6875-2.125C-8.233944 7.905634-5.406813 7.75707-2 7V4l3-1 1-2-2-1Z" transform="translate(119 211)" style="fill:#ade0da"/><path d="M0 0h1l.367188 2.738281L1.875 6.3125l.492188 3.550781C2.823005 13.14531 2.823005 13.14531 5 16c-.5 2.5625-.5 2.5625-2 5-5.067157 2.364673-9.013213 2.599785-14.3125 1L-14 21v-1l13-1v-3h2l-1-2c-.071164-2.374025-.08409-4.750007-.0625-7.125l.027344-3.882813L0 0Z" transform="translate(154 132)" style="fill:#87573b"/><path d="M0 0h2c1.14128 5.179651 1.14128 5.179651 1 8-2.375 2.875-2.375 2.875-5 5l-1 2h-4c.284824-1.418058.578181-2.834404.875-4.25l.492188-2.390625C-5.0085 6.031689-4.151616 4.10968-3 2h3V0Z" transform="translate(47 71)" style="fill:#b23c6d"/><path d="M0 0h2c-.25 1.875-.25 1.875-1 4l-2.015625.832031L-3 6c-.554463 2.255815-.554463 2.255815-.5 4.8125C-3.770558 15.372388-4.498101 17.816456-8 21h-2v2h-6c4.75-4 4.75-4 7-4l.296875-2.738281L-8.25 12.6875l.421875-3.550781C-7 6-7 6-5.046875 4.08203-3 3-3 3-1 3l1-3Z" transform="translate(243 145)" style="fill:#c83d72"/><path d="M0 0h2c1.091684 5.918766 1.462895 9.74153-2 15l-2 2c-.388048 2.59706-.388048 2.59706-.5 5.5-.277778 5.277778-.277778 5.277778-2.5 7.5l-.183594-2.046875L-5.4375 25.25c-.08121-.881719-.162422-1.763437-.246094-2.671875C-5.962384 20.306495-6.387906 18.201482-7 16l2.375-1.75C-1.516389 11.605377-1.516389 11.605377 0 8c.150073-2.690965.09-5.300014 0-8Z" transform="translate(247 114)" style="fill:#fad4e8"/><path d="m0 0 1 3c2.015084.733238 2.015084.733238 4 1l-2.375.6875C-.177083 5.760417-.177083 5.760417-1.1875 8.375L-2 11l-1.0625 1.875C-4.371236 15.84147-4.630463 18.797342-5 22h-1v-6h-2v2h-2c1.352624-4.741302 3.333544-8.322886 6.125-12.375l2.195313-3.210938L0 0Z" transform="translate(55 55)" style="fill:#b14a74"/><path d="m0 0 1 2c4.823602.192944 8.496467-.242524 13-2v3c-3.100011 1.801164-5.424821 2.29615-9 2.3125l-2.5625.050781C-.4637 4.930891-1.698158 3.74065-4 2c-2.354248.588562-4.686521 1.267398-7 2-2.695767.174682-5.294666.094924-8 0 3.227779-1.738035 6.519744-2.865134 10-4 3.118267-1.559133 5.670739-.665852 9 0Z" transform="translate(152 88)" style="fill:#251307"/><path d="M0 0h2l2 3 2.554688.855469L9 5c.820313 2.425781.820313 2.425781 1.125 5.3125C10.702873 14.546528 11.357937 17.51728 14 21c-5.527897-1.44206-5.527897-1.44206-7.375-3.625C5.700985 13.863744 5.87912 10.626418 6 7H1L0 0Z" transform="translate(41 128)" style="fill:#c62e6b"/><path d="m0 0 2.110596.666504 2.294922.703125 2.380859.773437 2.416016.75c1.969217.61317 3.93337 1.24256 5.896484 1.875v3l-3.5-1.4375c-4.185703-1.584587-8.05239-2.165392-12.5-2.5625v2l4 1v2h2l-1 3-2.375-2.375c-4.021637-3.41259-8.52228-3.949343-13.625-4.625v-1l3.3125-.875C-5.591128 1.978576-2.994151-.36528 0 0Z" transform="translate(180.901123 13.231934)" style="fill:#c34679"/><path d="M0 0h2c.074305 4.199182.128674 8.398013.164795 12.597656.015062 1.427802.035516 2.855559.061523 4.283203.0365 2.055455.053434 4.110296.06665 6.166016l.047608 3.745117C1.978596 30.201614 1.322902 31.545815-1 34c-.024769-4.199215-.042892-8.39839-.054932-12.597656-.00502-1.427742-.011838-2.855479-.020507-4.283203-.012167-2.055352-.017812-4.110635-.022217-6.166016l-.01587-3.745117C-1.020716 4.585433-.783565 2.483554 0 0Z" transform="translate(35 103)" style="fill:#c4306a"/><path d="M0 0c2.460445.834537 4.657353 1.852581 7 3C3.031557 5.645629.331315 5.07701-4.308594 4.875-7.102323 5.004752-8.632315 5.567075-11 7V5h-5l-1-2 2.1875.1875c2.882431.032223 2.882431.032223 5.1875-1.6875C-6.139062-.491965-3.973095-.41101 0 0Z" transform="translate(154 15)" style="fill:#edc5d7"/><path d="m0 0 2.195313 1.207031L5.125 2.8125l3.03125 1.671875C11.087384 6.096847 11.087384 6.096847 14.625 7.5625 17 9 17 9 17.875 11.6875L18 14l-5-2V9l-1.703125.652344C8.194968 10.12185 6.903676 9.16251 4.25 7.5625L1.828125 6.128906 0 5V0Z" transform="translate(121 183)" style="fill:#241810"/><path d="m0 0 2.382813.992188C6.975213 2.271712 11.13792 2.217744 15.875 2.125l2.664063-.027344C20.692826 2.074246 22.84645 2.03838 25 2c-1 2-1 2-3.65625 3.105469C15.087854 6.779067 7.145419 7.500289 1.1875 4.5L-1 3l1-3Z" transform="translate(137 176)" style="fill:#400807"/><path d="m0 0 1 3h2l1 3h5v3c-2.853051.50721-5.707168 1.005936-8.5625 1.5l-2.423828.433594C-6.735246 11.747694-11.182461 12.155196-16 12v-1l2.117188-.402344L-11.125 10.0625l2.742188-.527344C-6.000438 9.100363-6.000438 9.100363-4 8l2 1V7h2V0Z" transform="translate(179 222)" style="fill:#cdede9"/><path d="M0 0h1v6h2V1h1l.367188 2.011719C5.4481 9.762402 5.4481 9.762402 8 16c2.523729 1.36078 2.523729 1.36078 5 2l-4 2c-4.794755-3.516154-7.209065-6.129712-9-12-.215076-2.7243-.14423-5.259612 0-8Z" transform="translate(57 150)" style="fill:#d9b9cb"/><path d="M0 0c6.354704.4796 6.354704.4796 8.9375 2.5625C10.436866 6.002222 10.735212 9.309523 10 13c-1.523438 2.25-1.523438 2.25-3 4l.035156-2.117188L7.0625 12.125l.035156-2.742188C7.162493 6.983142 7.162493 6.983142 6 5L0 7V0Z" transform="translate(195 130)" style="fill:#755446"/><path d="M0 0h1v5h2l1-2c3.0625-.625 3.0625-.625 6-1v2H7l1 5H5v6H3l-1 4 2 1H1L2 6H0V0Z" transform="translate(191 133)" style="fill:#463126"/><path d="M0 0h2l1 7h6l2-5h2c.625 2.375.625 2.375 1 5-2.871053 2.871053-4.988802 2.802728-9 3C1.25151 8.688029-1.70069 7.19954-5 5V3h4l1-3Z" transform="translate(121 135)" style="fill:#94694e"/><path d="m0 0 3 1-1.5 2.0625C-.366797 6.718312-.428096 8.933084 0 13c1.341268 3.267509 1.341268 3.267509 3 6l1 2c-3.950607-1.281278-5.833886-2.44583-8-6-.892633-4.945671-.723135-8.870102 2-13.125L0 0Z" transform="translate(53 107)" style="fill:#e6e6e6"/><path d="m0 0 2 1c.492188 2.292969.492188 2.292969.875 5.1875C4.023237 13.112804 6.885927 17.251218 12 22c-5.75-.875-5.75-.875-8-2v-2l-3-1C-.225173 11.333574-.092289 5.762915 0 0Z" transform="translate(55 149)" style="fill:#c72d68"/><path d="M0 0h2c.222594 6.146077-.201501 11.075534-2 17-.445662 3.325325-.744256 6.655134-1 10h-2l-1 7h-2l.550781-2.105469C-2.848994 21.373622-1.420243 10.733265 0 0Z" transform="translate(191 139)" style="fill:#2a1507"/><path d="m0 0 1 2c-1.91147 5.237642-6.289213 8.334044-11 11-6.327896 1.681539-11.924546 1.295171-18-1l1-2 2.527344.140625C-17.17797 10.37459-11.157754 10.224655-5 6c1.971601-1.902015 3.411268-3.745026 5-6Z" transform="translate(169 171)" style="fill:#94604b"/><path d="M0 0c8.35011 2.310722 8.35011 2.310722 11.0625 5.1875L12 7c-2.8125 1.5625-2.8125 1.5625-6 3-3-1-3-1-4.6875-3.3125C0 4 0 4 0 0Z" transform="translate(209 30)" style="fill:#dd2f6f"/><path d="m0 0 2.476563.027344L4.375.0625v2l3 1v1l-2.195313-.070313C-.170782 3.892313-4.61946 3.897944-9.625 6.0625l-4-5 3.375.0625C-6.53413 1.060933-3.75909-.053701 0 0Z" transform="translate(171.625 17.9375)" style="fill:#f9e8f2"/><path d="M0 0c4.875 2.625 4.875 2.625 6 6 2.504475 1.2187 2.504475 1.2187 5 2v3l1.9375.3125L15 12c1 3 1 3 1 5l2 3c-4.149252-1.589075-6.684082-4.635323-9.5625-7.875l-1.458984-1.605469C0 2.78269 0 2.78269 0 0Z" transform="translate(53 189)" style="fill:#d6729c"/><path d="m0 0 2.6875 1.5c5.983637 2.581896 13.94192 2.76761 20.023438.480469L25 1h3v11h-1l-1-8-1.702148.493896c-2.433384.535955-4.574074.619718-7.063477.60376l-2.695313-.009765L11.75 5.0625l-2.835938-.013672C6.60931 5.03707 4.304689 5.020634 2 5l-1 6H0V0Z" transform="translate(135 195)" style="fill:#6a483a"/><path d="M0 0h1l.445313 2.308594C3.0511 9.70076 5.382122 15.03524 10 21l3 4c-6.006414-2.061746-9.88779-5.449514-13-11-.65551-4.74869-.487426-9.240824 0-14Z" transform="translate(113 160)" style="fill:#e2cfc0"/><path d="M0 0c2.4375.8125 2.4375.8125 5 2l1 3c2.000165 1.208821 2.000165 1.208821 4 2-1 2-1 2-4 3C4.11178 9.238086 2.224 8.475033.339844 7.703125-3.721426 6.48271-7.802785 6.767777-12 7V5c1.937423-.027034 3.874955-.046411 5.8125-.0625l3.269531-.035156C0 5 0 5 3 6V3L0 2V0Z" transform="translate(198 20)" style="fill:#c63771"/><path d="M0 0h2v12h7l1-2v4l-3.125-.5c-3.830719.096082-3.830719.096082-5.675781 2.28125C-.295783 17.807887-1.689755 19.849854-3 22l-2-4 2.5-2.25C1.39275 11.210287.410178 5.633115 0 0Z" transform="translate(162 195)" style="fill:#222119"/><path d="M0 0h1C.669508 8.691942-.354097 17.656417-6.75 24.125L-9 26c0-4.22528.256243-5.045185 3-8h2l.4375-3.1875C-2.798437 9.633854-1.726616 4.949633 0 0Z" transform="translate(188 154)" style="fill:#896148"/><path d="m0 0-1 7 2.089844.480469C7.710579 9.1243 13.216728 11.38724 19 15v2c-4.284566-1.393618-8.48886-2.928883-12.6875-4.5625C3.219369 11.23521.148284 10.049428-3 9c-.097656-6.152344-.097656-6.152344 0-8 1-1 1-1 3-1Z" transform="translate(173 193)" style="fill:#bb4674"/><path d="m0 0 3.4375.5C10.415435 1.362996 17.077414 1.178313 24 0v2C17.640288 4.94431 12.87471 5.54681 6 4 2.375 2.4375 2.375 2.4375 0 1V0Z" transform="translate(136 191)" style="fill:#865f49"/><path d="m0 0 4 1-1 7 1.800781-.65625C11.355223 5.141947 17.113438 4.646507 24 5v1l-2.492188.261719C13.77049 7.235585 7.716145 9.027923 1 13l.0625-3.6875C1.068241 6.080227.787663 3.150653 0 0Z" transform="translate(109 114)" style="fill:#966b54"/><path d="m0 0-2.25 1.5625C-6.4697 5.302688-8.573312 9.9444-11 15h-1c-.627178-7.996516-.627178-7.996516 1.875-12C-6.701555-.222066-4.609455-.100206 0 0Z" transform="translate(70 65)" style="fill:#f1f0f0"/><path d="m0 0 4 1-1 4-.1875 2.0625C2 9 2 9-.875 10.75-4 12-4 12-7 12c1-3 1-3 3-4l1-3 2-1c.652133-2.024633.652133-2.024633 1-4Z" transform="translate(64 45)" style="fill:#d22a69"/><path d="M0 0h1c.672991 5.000698 1.116359 9.248696-1.675781 13.628906C-2.69825 15.873218-4.774905 17.957848-7 20c-1.003331.996657-2.00472 1.995302-3 3l1-5h2l.8125-1.75C-5 14-5 14-3.4375 12.1875-1.490548 9.224747-1.335093 6.484968-1 3l-4 1 1-2h4V0Z" transform="translate(161 197)" style="fill:#885d46"/><path d="M0 0h1c1.20568 4.672012 1.093824 9.214963 1 14-3.820972-.53069-6.061714-1.497016-9-4l3-1-1-2 4-1 1-6Z" transform="translate(172 209)" style="fill:#a1cfc8"/><path d="m0 0 3 3 3-1 1 3 2 1v5c-3.458358-.288196-4.783807-.78965-7.3125-3.25C-.123289 4.799085-.386845 3.384893 0 0Z" transform="translate(94 141)" style="fill:#7f5e48"/><path d="M0 0c3.538422 1.125861 6.661895 2.330948 10 4v10l-2 1-.15625-1.828125c-.629078-4.981373-.629078-4.981373-3.757813-8.660156C2.082333 3.538235.11285 2.702646-2 2l2-2Z" transform="translate(122 189)" style="fill:#d6c3cf"/><path d="M0 0h1l1 5 1-5h1c.36923 6.523077.36923 6.523077-1.5 8.9375L1 10l-2.4375-.9375C-5.62249 7.814345-9.663061 7.36623-14 7V6l13-1 1-5Z" transform="translate(96 34)" style="fill:#d4cacf"/><path d="M0 0c-3.613072 2.362393-5.881288 1.805835-10 1l-2 1 1 2-6 3V4h2V1l-2-1c5.507842-3.525019 11.220076-2.25558 17 0Z" transform="translate(122 26)" style="fill:#2f2c2e"/><path d="m0 0 6 2-3 1v4l-1.792969.113281C-3.606675 7.51377-7.008418 8.038503-11 11c1.369835-3.161158 1.989064-3.99271 5-6h4l2-5Z" transform="translate(154 19)" style="fill:#646565"/><path d="m0 0 1 3c-3.945352 4.227163-6.965905 6.114639-12.75 6.625l-2.421875.226563L-16 10V7l3.5625-.8125C-8.380698 5.16969-4.758487 3.840891-1 2l1-2Z" transform="translate(232 160)" style="fill:#fce6f4"/><path d="m0 0 2 4c-3.75 5.75-3.75 5.75-6 8-2.625-.375-2.625-.375-5-1V9l2.8125-1.8125C-2.989845 4.99303-1.706531 3.413063 0 0Z" transform="translate(204 143)" style="fill:#20160c"/><path d="m0 0 1.5 1.1875C-2.887017 4.112178-6.560813 6.36379-11.9375 5.875L-14.5 5.1875C-10.655236 1.823331-5.128711-1.666831 0 0Z" transform="translate(139.5 218.8125)" style="fill:#102522"/><path d="M0 0h2l1 16-2 1v-2h-5v-3l3-1L0 0Z" transform="translate(132 192)" style="fill:#120d0b"/><path d="M0 0h2C1.756489 6.940072-.06708 10.172678-5 15l-2-4 1.375-1.125C-3.529706 7.457353-2.879867 5.045694-2 2h2V0Z" transform="translate(255 160)" style="fill:#ce306e"/><path d="m0 0 6 2-2.4375 2.4375C.31187 8.266633.119261 12.121126 0 17h-1V7h-3c1.074011-2.915173 1.778102-4.778102 4-7Z" transform="translate(58 63)" style="fill:#303232"/><path d="m0 0 1 4c2.900732.67801 2.900732.67801 6 1l2-2 1 4H-7l1-3 5-1 1-3Z" transform="translate(85 29)" style="fill:#d3326e"/><path d="m0 0 2 1c1.168337 4.776222 1.11987 9.494177 1.0625 14.375l-.013672 2.230469C3.037151 19.403682 3.01922 21.201852 3 23-1.324905 16.512642-.126899 7.543411 0 0Z" transform="translate(103 128)" style="fill:#130c06"/><path d="M0 0v4c-3.30135 2.567716-4.728745 3-9 3 .1875-2.3125.1875-2.3125 1-5 4.15625-3.28125 4.15625-3.28125 8-2Z" transform="translate(83 42)" style="fill:#19181a"/><path d="m0 0 3 1c-1.559047 3.826751-4.03166 6.180078-7 9l-2 2v-2l-4-1 1.679688-1.460938L-6.125 5.625l2.179688-1.898438C-2.59234 2.525733-1.279167 1.279167 0 0Z" transform="translate(100 214)" style="fill:#eac5d9"/><path d="M0 0c-2.132721 5.473985-7.016395 7.409135-12 10-3.625 1.375-3.625 1.375-6 2v-2l3.5625-1.625c3.863608-1.904403 6.79755-4.2312 9.894531-7.203125C-3 0-3 0 0 0Z" transform="translate(178 180)" style="fill:#92654f"/><path d="m0 0 1 2h2c2.628754 5.371802 3.608396 10.044926 4 16-2.310974-2.860575-3.829294-5.586271-5.1875-9L.769531 6.4375C0 4 0 4 0 0Z" transform="translate(37 156)" style="fill:#da82a6"/><path d="m0 0 2 1v7h2c.846811 5.080868 1.090381 9.848284 1 15H4L2 11l-1 6H0V0Z" transform="translate(108 137)" style="fill:#ebddd2"/><path d="m0 0 2.351563-.015625C4.375.25 4.375.25 6.375 2.25l-2.484375.585938L.625 3.625l-3.234375.773438C-5.183527 5.125335-7.301002 5.952622-9.625 7.25c.25-2.375.25-2.375 1-5C-5.741659.366217-3.407217-.02279 0 0Z" transform="translate(85.625 36.75)" style="fill:#f7d7e9"/><path d="M0 0c6.117749-.499408 9.02496.750994 14 4l-1 4-2.082031-1.058594L8.1875 5.5625 5.480469 4.191406C2.960005 2.91684 2.960005 2.91684 0 2V0Z" transform="translate(191 27)" style="fill:#f5dded"/><path d="M0 0h19v2c-3.828108 1.276036-7.234751.86284-11.1875.5625l-2.271484-.158203C3.693629 2.274862 1.846756 2.138135 0 2V0Z" transform="translate(128 12)" style="fill:#e0296b"/><path d="M0 0c4.136393 1.59092 7.232132 4.60475 10 8v2c-3.439504-.611984-5.515645-1.920588-8.25-4.0625L-.390625 4.277344-2 3l2-1V0Z" transform="translate(193 216)" style="fill:#181a1b"/><path d="m0 0-1 3h-3v3c-3.375.625-3.375.625-7 1l-2-2c1.41043-.843847 2.828641-1.674695 4.25-2.5l2.390625-1.40625C-4 0-4 0 0 0Z" transform="translate(121 212)" style="fill:#d4ebe5"/><path d="M0 0v2c-3.009398 1.738305-5.159427 2.251248-8.625 2.1875l-2.351563-.019531C-13 4-13 4-15 3V1l2.117188-.183594L-10.125.5625C-9.220078.48129-8.315156.400078-7.382812.316406-1.424385-.474794-1.424385-.474794 0 0Z" transform="translate(122 188)" style="fill:#f4daea"/><path d="M0 0c.382188 1.656147.713951 3.32457 1 5-1 1-1 1-4.5625 1.0625L-7 6V1C-4.537212-.231394-2.720495-.071592 0 0Z" transform="translate(130 134)" style="fill:#160f0b"/><path d="M0 0c-5.987041 6.153348-5.987041 6.153348-9 8h-4l-1-3 7-1V0c3.133497-1.0445 3.989683-.934236 7 0Z" transform="translate(224 212)" style="fill:#d8719b"/><path d="M0 0c.6875 1.625.6875 1.625 1 4-.981266 2.009258-1.984991 4.007575-3 6-.583802 2.339153-1.048903 4.673859-1.472656 7.046875C-4 19-4 19-6 21c.42935-8.187255 1.394145-14.091217 6-21Z" transform="translate(251 124)" style="fill:#d72d6c"/><path d="M0 0c1.457929-.053997 2.916427-.092792 4.375-.125l2.460938-.070313C9 0 9 0 11 2c2.570613.647678 2.570613.647678 5 1l-1 3-2.5-.9375C8.608738 3.881224 5.03833 3.417758 1 3L0 0Z" transform="translate(127 17)" style="fill:#f9e2ee"/><path d="M0 0c-3.133258 2.088839-5.417246 2.735303-9.015625 3.542969-2.111804.45321-2.111804.45321-4.609375 1.332031C-17.265129 5.066586-19.199116 3.149516-22 1c4.175877-1.39196 6.134748.176768 10 2V1C-7.672656-1.229238-4.715998-.924706 0 0Z" transform="translate(178 15)" style="fill:#cd346e"/><path d="m0 0 1.75.9375C3.842942 1.925834 5.745353 2.516861 8 3v2h6v2l1.75-.6875C18 6 18 6 20.25 7.4375L22 9c-8.05919.792707-13.38484-1.352427-20-6L0 0Z" transform="translate(86 221)" style="fill:#f9f4f7"/><path d="M0 0c2.5625-.5625 2.5625-.5625 6 0 2.692003 2.756482 4.857277 5.804933 7 9-3.97652 0-5.149162-1.442818-8.1875-3.9375L2.082031 2.847656 0 1V0Z" transform="translate(73 211)" style="fill:#d7709b"/><path d="m0 0 12 1v3H-2l2-4Z" transform="translate(175 188)" style="fill:#f9e2f2"/><path d="M0 0c2.351563.65625 2.351563.65625 5 2 1.398438 2.53125 1.398438 2.53125 2.375 5.5l1.023438 2.96875C9 13 9 13 8 15c-1.152646-1.74552-2.296873-3.496602-3.4375-5.25L2.628906 6.796875C1.242386 4.416184.45342 2.682197 0 0Z" transform="translate(44 174)" style="fill:#d5719b"/><path d="M0 0c11.752565.985042 11.752565.985042 14.71875 3.398438C15.75 5 15.75 5 17 8l1 2c-2.867247-.57345-3.861451-.861451-6-3V4l-3.1875.125C5.259898 4.008521 3.151334 3.52792 0 2V0Z" transform="translate(67 171)" style="fill:#bb517c"/><path d="M0 0c3.672307 3.08 4.568024 5.24826 5 10h5v1l-2.9375-.0625C4.125341 10.643815 4.125341 10.643815 3 12l3 1H2L.535156 7.042969C.089893 5.343168-.44434 3.66698-1 2l1-2Z" transform="translate(205 32)" style="fill:#efcbdd"/><path d="m0 0 5 1v10l6 1v2H4V2l-6 1 2-3Z" transform="translate(160 193)" style="fill:#0c0504"/><path d="m0 0 2.496094.035156L5 .0625l1.933594.035156v5c-3.3125.25-3.3125.25-7 0-1.9375-2-1.9375-2-3-4 1-1 1-1 3.066406-1.097656Z" transform="translate(161.066406 167.902344)" style="fill:#130d0b"/><path d="M0 0h10L9 4H0V0Z" transform="translate(168 126)" style="fill:#9a6847"/><path d="M0 0h1c.250689 4.26171.417525 7.909795-1.125 11.9375C-2.496949 14.546644-4.652723 15.05403-8 16l-1 2 1-5h3l2-4h2l1-9Z" transform="translate(117 98)" style="fill:#2c1809"/><path d="m0 0 1 2h3v14H2V4l-3-1 1-3Zm1 16v3c-3.200627 1.600313-5.722718.031737-9-1v-1l9-1Z" transform="translate(73 47)" style="fill:#4b4a4a"/><path d="m0 0 1 3-2 1c-.407292 2.321566-.744387 4.656879-1 7h-2l-2 3V3l6-3Z" transform="translate(172 190)" style="fill:#ceadbc"/><path d="m0 0 3 1c-.139592 3.229468-.287781 6.458487-.4375 9.6875l-.11914 2.763672-.126954 2.685547-.111084 2.459717C1.989626 21.121445 1.541005 23.526007 1 26H0V0Z" transform="translate(189 126)" style="fill:#75523d"/><path d="M0 0c3.73314 3.35706 4.983126 7.338537 6.75 11.9375.32871.811465.657422 1.62293.996094 2.458984l.925781 2.38086.84668 2.163818C10.073266 21.313314 9.76745 22.714681 9 25c-1.128984-2.852647-2.253276-5.707-3.375-8.5625l-.960938-2.423828C2.85132 9.387402 1.2764 4.802615 0 0Z" transform="translate(250 67)" style="fill:#f3c2da"/><path d="M0 0c1.75.0625 1.75.0625 4 1 3.039869 4.429523 4.237646 7.663524 5 13l2 1v2l-5-1-.296875-1.976563C4.735133 8.36569 3.565089 4.51578 0 0Z" transform="translate(222 46)" style="fill:#bd4472"/><path d="m0 0 1 2C.25 4.0625.25 4.0625-1 6c-2.707162.902387-4.237768 1.118513-7.011719 1.097656l-2.294922-.009765L-12.6875 7.0625l-2.416016-.013672C-17.069043 7.037058-19.03453 7.019123-21 7c2-2 2-2 4.609375-2.054688L-13.25 5.125C-7.697218 5.238322-5.122113 4.67648-1 1l1-1Z" transform="translate(194 186)" style="fill:#c35382"/><path d="M0 0h1L.859375 3.253906C.366246 13.807764.366246 13.807764 5 23l1 2-4-2v-2H0c-2.123712-4.271834-2.099648-7.475112-1.6875-12.1875l.300781-3.730469C-1 2-1 2 0 0Z" transform="translate(41 107)" style="fill:#b93e70"/><path d="M0 0h1l1 10H0l1 2c.1875 3 .1875 3 0 6l-2 2-.183594-2.265625L-1.4375 14.75l-.246094-2.953125c-.230878-2.722185-.230878-2.722185-.9375-4.984375C-3 5-3 5-1.625 2.25L0 0Z" transform="translate(247 104)" style="fill:#cebac5"/><path d="M0 0h5L4 5c-1.45736.194915-2.915946.380694-4.375.5625l-2.460938.316406C-5 6-5 6-7 5c4.75-3 4.75-3 7-3V0Z" transform="translate(97 21)" style="fill:#d52869"/><path d="M0 0h3L1 18H0l-1-8-3 1 1-1.8125C-1.79212 6.946135-1.79212 6.946135-2 4l3-1 1-2-2-1Z" transform="translate(119 211)" style="fill:#a3c8c2"/><path d="M0 0h2c.878906 6.152344.878906 6.152344 1 8C2 9 2 9-.5625 9.0625L-3 9l1-7h2V0Z" transform="translate(47 71)" style="fill:#c02b66"/><path d="m0 0 7 6-3 2c-1.9375-.8125-1.9375-.8125-4-2l-1-3h-10V2H0V0Z" transform="translate(103 182)" style="fill:#e8bad0"/><path d="m0 0 5 1c.840987 4.018047 1.05405 7.018035 0 11h2l-1 3-3-2c-.328125-2.09375-.328125-2.09375-.25-4.5l.046875-2.40625C3 4 3 4 4 2H0V0Z" transform="translate(185 112)" style="fill:#26150a"/><path d="m0 0 6 3c1.707027.06996 3.41668.084402 5.125.0625l2.757813-.027344L16 3l-1 2c-5.542344 1.446844-9.648572.866777-15-1-2.337258.74876-2.337258.74876-4 2l4-6Z" transform="translate(127 88)" style="fill:#88654f"/><path d="M0 0c4.496528-.364583 4.496528-.364583 6.8125 1.3125C8 3 8 3 8 6L-7 5l1-2h8L0 2V0Z" transform="translate(193 20)" style="fill:#cb2a6d"/><path d="M0 0c4.22798 3.082902 4.22798 3.082902 6 5 .375 2.8125.375 2.8125 0 5-2 0-2 0-3.507813-1.460938L.875 6.625-.757813 4.726562C-2 3-2 3-2 1l2-1Z" transform="translate(199 216)" style="fill:#e1c4d4"/><path d="M0 0c2.667933 2.667933 3.363408 5.326312 4.625 8.875l1.351563 3.742188C7 16 7 16 7 20H5c-.840399-2.581225-1.672506-5.164639-2.5-7.75l-.722656-2.210938-.683594-2.148437-.634766-1.967773C0 4 0 4 0 0Z" transform="translate(253 76)" style="fill:#c44879"/><path d="M0 0c1.67543.286049 3.343853.617812 5 1L4 3 2 2l1 8-3 1c-.194065-1.645072-.38008-3.291096-.5625-4.9375l-.316406-2.777344L-1 1l1-1Z" transform="translate(136 146)" style="fill:#8c5e42"/><path d="M0 0c4.391583 1.463861 4.879474 3.978313 7 8-3.875-.875-3.875-.875-5-2-2.32818-.367607-4.661838-.702416-7-1l5-5Z" transform="translate(167 88)" style="fill:#89634d"/><path d="M0 0c-.5 1.9375-.5 1.9375-2 4-2.696585.687904-5.201702.819465-8 1V2C-6.355823-.429452-4.287587-.161796 0 0Z" transform="translate(154 19)" style="fill:#0f0c0d"/><path d="m0 0 6 1c-.114096 1.459227-.241655 2.917406-.375 4.375l-.210938 2.460938C5 10 5 10 3 12V3l-5 1 2-4Z" transform="translate(119 208)" style="fill:#010d0a"/><path d="M0 0c1 3 1 3-.363281 6.101563C-1.00256 7.281767-1.652764 8.456107-2.3125 9.625l-.97461 1.8125C-5.724811 15.862406-5.724811 15.862406-8 17l.875-2.5625c1.17687-3.4422 1.17687-3.4422 2-7.0625C-3.953394 3.860183-2.808451 2.340376 0 0Z" transform="translate(255 168)" style="fill:#eaa9c9"/><path d="m0 0 1 2 3 1-1 3 2 1-1 4V8l-4 2-1-2-2 1V5h3V0Z" transform="translate(96 135)" style="fill:#71503b"/><path d="m0 0 1 4-3 1c-.354123 1.327963-.685216 2.662166-1 4-1.5625 1.75-1.5625 1.75-3 3l5-1-1 2h-5c.291235-5.970317 3.028144-8.894534 7-13Z" transform="translate(63 45)" style="fill:#bd3d6f"/><path d="m0 0 9 5-3 1-1 2C2.5 6.8125 2.5 6.8125 0 5V0Z" transform="translate(121 183)" style="fill:#2a2119"/><path d="M0 0c4.579952 1.4463 4.579952 1.4463 6.375 3.8125C7.150861 6.528015 6.747781 8.307988 6 11H4V5L0 3V0Z" transform="translate(54 145)" style="fill:#f4e2ee"/><path d="M0 0h2v7L0 8c-2.625-1.3125-2.625-1.3125-5-3V3h4l1-3Z" transform="translate(121 135)" style="fill:#815d48"/><path d="m0 0 2 1v10L0 9l-2 2c-.25-7.625-.25-7.625 2-11Z" transform="translate(39 90)" style="fill:#c12f6a"/><path d="m0 0 3 1v8l-3 1c-1.369527-2.739053-1.126214-4.970873-1-8l1-2Z" transform="translate(72 50)" style="fill:#211e1f"/><path d="M0 0c4.540758 4.140103 7.718421 8.823902 11 14l-1 2c-2.940977-2.656367-4.05866-4.234642-5-8L3 6C.91806 3.91806.407917 2.855419 0 0Z" transform="translate(239 51)" style="fill:#f1bfd6"/><path d="M0 0h2C.25 6.75.25 6.75-2 9h-3c.573234-3.869332 2.389536-6.15222 5-9Z" transform="translate(73 36)" style="fill:#b8366a"/><path d="m0 0 15 1v2c-1.936812.081076-3.874593.139225-5.8125.1875l-3.269531.105469C3 3 3 3 0 0Z" transform="translate(66 169)" style="fill:#fde6f4"/><path d="M0 0h8l1 2C6.75 4.0625 6.75 4.0625 4 6c-2.3125-.25-2.3125-.25-4-1l2-1V1L0 0Z" transform="translate(131 168)" style="fill:#0e0b09"/><path d="m0 0 6 2v2l5 2-4 2C1.125 3.375 1.125 3.375 0 0Z" transform="translate(59 162)" style="fill:#efcbdf"/><path d="m0 0 1 13c-3.933333-3.933333-3.933333-3.933333-4.1875-8C-2.875 0-2.875 0 0 0Z" transform="translate(113 160)" style="fill:#f3efe9"/><path d="m0 0 2 1c.597656 2.363281.597656 2.363281 1.0625 5.3125C3.591484 9.586955 4.139775 12.795093 5 16l-2-1v-2H1C-.322292 10.355416-.096772 8.322387-.0625 5.375l.027344-3.039063L0 0Z" transform="translate(55 149)" style="fill:#bd386e"/><path d="M0 0v2h-3l1 5h-3v5h-2c.087463-1.438613.195653-2.875975.3125-4.3125l.175781-2.425781C-5.605025 1.254269-4.070299 0 0 0Z" transform="translate(201 135)" style="fill:#33190d"/><path d="m0 0-1 2-7 2-1 2h-3c.335883-2.519124.57355-3.671961 2.625-5.25C-6.198963-.25296-3.307711-.12722 0 0Z" transform="translate(129 132)" style="fill:#2a1006"/><path d="m0 0 4 1c-.140631 2.291992-.28766 4.583592-.4375 6.875-.08121 1.276172-.162422 2.552344-.246094 3.867188C3 15 3 15 2 17H0l-1 3c.875-4.875.875-4.875 2-6 .09919-1.60164.129699-3.2078.125-4.8125l.007813-2.644531C1.011148 4.213458.655147 2.230619 0 0Z" transform="translate(249 92)" style="fill:#c24576"/><path d="M0 0h1C.384872 5.0089-.271755 10.006321-1 15c-2-2-2-2-2.3125-5.8125C-3.22977 5.402573-2.370957 3.034825 0 0Z" transform="translate(45 83)" style="fill:#fcdef0"/><path d="M0 0c1.959794.281683 3.917824.575667 5.875.875l3.304688.492188C12 2 12 2 14 4L7 3v3H5L4 4 1 3 0 0Z" transform="translate(179 16)" style="fill:#d72f71"/><path d="m0 0 8 1-2 3c-3.125.1875-3.125.1875-6 0l-1 3c-1-3-1-3-.0625-5.1875L0 0Z" transform="translate(196 184)" style="fill:#c2316a"/><path d="M0 0c1.875.25 1.875.25 4 1 2.355359 3.179735 2.174943 6.151246 2 10H4V7L1 6l1-3-2-1V0Z" transform="translate(97 135)" style="fill:#251105"/><path d="M0 0c3.373183 6.32129 3.142803 13.002647 3 20H2C.38795 13.235144-.266186 6.95041 0 0Z" transform="translate(36 134)" style="fill:#d62769"/><path d="m0 0 3 2-1 3-6 1-1-4C-2.6875.875-2.6875.875 0 0Z" transform="translate(173 133)" style="fill:#1a1611"/><path d="m0 0 9 1v1H2l.0625 2.875C2 8 2 8 1 10h-2L0 0Z" transform="translate(193 128)" style="fill:#1b0b03"/><path d="M0 0c5.653946-.34616 9.030068.565748 14 3-3.452149 2.301432-4.234793 2.138339-8.1875 1.625l-2.730469-.335938L1 4V3l5-1-6-1V0Z" transform="translate(147 15)" style="fill:#ddabc5"/><path d="m0 0 4 4c-2.229427-.14179-4.458536-.288597-6.6875-.4375-1.241367-.08121-2.482734-.162422-3.761719-.246094C-9.381803 3.055086-12.134416 2.652016-15 2V1l3.027344.035156L-8.0625 1.0625l3.902344.035156C-1.137016 1.365326-1.137016 1.365326 0 0Z" transform="translate(124 229)" style="fill:#d1edeb"/><path d="M0 0c2.08954 4.17908 2.165526 4.804106 1 9h2V7h6c-2.9174 2.9174-6.122596 3.624147-10 5L0 0Z" transform="translate(125 212)" style="fill:#b4d4cf"/><path d="M0 0v1c-1.577504.41846-3.162442.808964-4.75 1.1875l-2.671875.667969C-10 3-10 3-12.328125 1.55078L-14 0c4.918681-2.856008 8.847893-1.459202 14 0Z" transform="translate(133 207)" style="fill:#1e2020"/><path d="M0 0c3.568223 5.352335 4.326653 11.630265 4 18C.158397 12.237595-.235383 6.708421 0 0Z" transform="translate(260 92)" style="fill:#edadcc"/><path d="m0 0 1 2 3.875-.0625C8.75 1.875 8.75 1.875 11 3l1 5L0 3V0Z" transform="translate(208 41)" style="fill:#f7e3ef"/><path d="M0 0c3.1861.354011 4.790667.83027 7.3125 2.875C9 5 9 5 9 8 5.624963 6.814176 3.352773 5.724263 1 3l1-1-2-2Z" transform="translate(176 19)" style="fill:#f0d0e3"/><path d="M0 0h9l1 3-6 2-4-5Z" transform="translate(158 19)" style="fill:#f3dfec"/><path d="m0 0 2 1-1 3 3 1-1 2-7-1c1.151734-2.468 2.047836-4.047836 4-6Z" transform="translate(157 213)" style="fill:#14140a"/><path d="M0 0c-.625 1.9375-.625 1.9375-2 4-3.125.75-3.125.75-6 1 .1875-1.875.1875-1.875 1-4 4.333333-2.333333 4.333333-2.333333 7-1Z" transform="translate(201 147)" style="fill:#886550"/><path d="M0 0c1.593305 3.18661-.001585 5.711104-1 9v2l-5-2c1.838279-3.151335 3.759727-6.11965 6-9Z" transform="translate(165 208)" style="fill:#a5cdca"/><path d="M0 0c12.669704-.36902 12.669704-.36902 18 2-1.75 1.125-1.75 1.125-4 2l-1.8125-.9375C9.53375 1.773536 7.682097 1.79784 4.75 1.875l-2.703125.054688L0 2V0Z" transform="translate(186 25)" style="fill:#b83f73"/><path d="m0 0 2 3-2 4h-4c1.074011-2.915173 1.778102-4.778102 4-7Z" transform="translate(99 219)" style="fill:#252325"/><path d="m0 0 10 4C6 5 6 5 2 5l-1 6H0V0Z" transform="translate(135 195)" style="fill:#785748"/><path d="m0 0 1 4c-4.75 4-4.75 4-7 4l-1-3 2.9375-1.9375C-1.239637 1.303474-1.239637 1.303474 0 0Z" transform="translate(193 183)" style="fill:#ecd1e1"/><path d="m0 0 5 1-.625 1.5625C3.84113 6.032657 4.923232 8.706358 6 12 1.640992 8.512794 1.054478 5.27239 0 0Z" transform="translate(50 179)" style="fill:#ce2c68"/><path d="M0 0h4L1 12H0V0Z" transform="translate(234 148)" style="fill:#f4d7e6"/><path d="M0 0h1c.05447 1.416232.093005 2.833082.125 4.25l.070313 2.390625C.982838 9.207319.28654 10.791607-1 13h-3l-1 2-2-2 1.875-.1875c2.31899-.6264 2.31899-.6264 3.3125-2.9375C-.886435 6.598153-.397536 3.379053 0 0Z" transform="translate(118 100)" style="fill:#876044"/><path d="M0 0c4.555556 1.555556 4.555556 1.555556 6 3 1.34747.23075 2.703776.41153 4.0625.5625L14 4v1C5.81667 6.451317 5.81667 6.451317 2.625 4.6875L1 3l-3-2 2-1Z" transform="translate(146 89)" style="fill:#8b654d"/><path d="M0 0c2.292739.223682 4.357526.596674 6.5625 1.25l-1 3-11-1c3-3 3-3 5.4375-3.25Z" transform="translate(114.4375 25.75)" style="fill:#191616"/><path d="m0 0-1 2h8v1H-7l1-3c2.574743-.996675 3.489273-1.255364 6 0Z" transform="translate(114 17)" style="fill:#cf2d69"/><path d="M0 0c4.875 1.75 4.875 1.75 6 4H4v3h-5l2-1-1-6Z" transform="translate(194 222)" style="fill:#d6e8e9"/><path d="m0 0 2 1C.625 2.5.625 2.5-1 4h-2l-1 4-4-1c1.106999-3.210297 2.016038-4.00969 5-5.8125L0 0Z" transform="translate(211 220)" style="fill:#fae0ed"/><path d="m0 0-6 7-3-1c0-3 0-3 1.6875-4.6875C-4.6402-.20421-3.023466-.251955 0 0Z" transform="translate(157 219)" style="fill:#1a271d"/><path d="m0 0 5 1v2l1.8125.3125C9.282433 4.088765 10.322512 5.07089 12 7l-1 3C9.163757 8.524447 7.331072 7.044466 5.5 5.5625L2.40625 3.066406 0 1V0Z" transform="translate(192 210)" style="fill:#bb3d71"/><path d="m0 0 2.4375.0625 1 3-2.375.8125c-2.90615 1.035644-2.90615 1.035644-4.625 4.1875-.042417-2.332948-.04093-4.667026 0-7 1-1 1-1 3.5625-1.0625Z" transform="translate(129.5625 207.9375)" style="fill:#d4eeeb"/><path d="M0 0h1l1 6h2l2 5H4l-1 2C.33409 8.445738-.315632 5.26053 0 0Z" transform="translate(50 134)" style="fill:#ecc3da"/><path d="M0 0h2l1 13c-3-3-3-3-3.292969-5.480469L-.1875 4.8125l.082031-2.730469L0 0Z" transform="translate(181 99)" style="fill:#1f0f06"/><path d="M0 0c2.375.6875 2.375.6875 5 2 1.3125 2.625 1.3125 2.625 2 5H2L0 0Z" transform="translate(177 23)" style="fill:#282125"/><path d="M0 0h8L4 2l4 3c-6.75-.875-6.75-.875-9-2l1-3Z" transform="translate(139 174)" style="fill:#b1545f"/><path d="m0 0 1.6875 1C4.302845 2.13096 6.180665 2.15663 9 2v3L-1 4l1-4Z" transform="translate(97 150)" style="fill:#1a1008"/><path d="M0 0c2 2 2 2 2.3125 5.875C2.240888 9.45561 1.602086 11.397914-1 14c-.18451-9.410023-.18451-9.410023 1-14Z" transform="translate(203 133)" style="fill:#654a37"/><path d="m0 0 4 1c.168522 1.603973.334749 3.208187.5 4.8125l.28125 2.707031C5 11 5 11 5 14l-3-2 1-9-3-1V0Z" transform="translate(176 97)" style="fill:#8b6550"/><path d="M0 0c3.242086.350496 4.615277.562212 6.8125 3.0625L8 5c-1.75.75-1.75.75-4 1-2.25-1.8125-2.25-1.8125-4-4V0Z" transform="translate(143 219)" style="fill:#131d14"/><path d="m0 0 2 1C.902478 3.993243.323171 4.846109-2.625 6.25L-5 7l-1-4C-4.035336 1.932248-2.031446.934465 0 0Z" transform="translate(117 208)" style="fill:#211c1c"/><path d="M0 0c1.416232-.05447 2.833082-.093005 4.25-.125l2.390625-.070313C9 0 9 0 13 2L2 3V1L0 0Z" transform="translate(107 193)" style="fill:#d52f6e"/><path d="M0 0c8.571429 2 8.571429 2 12 4l-1 2c-1.462248-.424232-2.919734-.864902-4.375-1.3125l-2.460938-.738281C2 3 2 3 0 0Z" transform="translate(80 180)" style="fill:#c93873"/><path d="M0 0h13v3L0 2V0Z" transform="translate(90 181)" style="fill:#f3e6f2"/><path d="M0 0h7v1H1l.625 3.375L2 8l-2 2-2-1 2-9Z" transform="translate(215 166)" style="fill:#d2c3cd"/><path d="m0 0-1 2c-4.087187.240423-7.176794-.577412-11-2v-1c4.689657-1.116585 7.537635-.806195 12 1Z" transform="translate(152 153)" style="fill:#845f4d"/><path d="m0 0 7 1v3L0 6V0Z" transform="translate(176 136)" style="fill:#936750"/><path d="m0 0 6 1-2 5-3-1V3l-3-1h2V0Z" transform="translate(54 128)" style="fill:#090907"/><path d="M0 0c3.375-.125 3.375-.125 7 0l2 2-9 2V0Z" transform="translate(83 45)" style="fill:#dddedf"/><path d="M0 0h1c.6875 3.3125.6875 3.3125 1 7C.5625 8.9375.5625 8.9375-1 10l-1-3-3-1 3-1C-.7813 2.495525-.7813 2.495525 0 0Z" transform="translate(103 35)" style="fill:#343433"/><path d="m0 0 1 3C-.6875 5.0625-.6875 5.0625-3 7c-2.75-.25-2.75-.25-5-1 2.385734-1.892134 4.071753-3.023918 7-4l1-2Z" transform="translate(232 160)" style="fill:#eccfe0"/><path d="m0 0 1 3C0 4 0 4-3.0625 4.0625L-6 4l-1-3 7-1Z" transform="translate(130 139)" style="fill:#301505"/><path d="M0 0c1.750981 2.626472 3.387313 5.287754 5 8C1.596793 6.988236.242747 6.351564-1.8125 3.375L-3 1l3-1Z" transform="translate(52 120)" style="fill:#dbdbdb"/><path d="M0 0h1l1 10H0v2h-2c-1-3-1-3 0-5h2V0Z" transform="translate(48 114)" style="fill:#313032"/><path d="M0 0h6L4 3c-.451395 2.04921-.451395 2.04921-.625 4.1875L3 11H2L0 0Z" transform="translate(117 96)" style="fill:#996e55"/><path d="m0 0 2 1v2l4 1v3l2 1c-3.106526-.33584-4.604143-.590493-6.8125-2.875C0 3 0 3 0 0Z" transform="translate(170 88)" style="fill:#241108"/><path d="M0 0h1c.3125 2.8125.3125 2.8125 0 6-2.5 1.875-2.5 1.875-5 3l-2-3 2.4375-1.3125C-.721536 3.19526-.721536 3.19526 0 0Z" transform="translate(59 79)" style="fill:#c9ccca"/><path d="m0 0 1 4 4 1v2l2 1-8-1 1-7Z" transform="translate(226 58)" style="fill:#fbeef8"/><path d="M0 0h8l1 3-9-1V0Z" transform="translate(130 26)" style="fill:#f5f4f5"/><path d="M0 0h6v5c-1.875-.25-1.875-.25-4-1C.75 1.9375.75 1.9375 0 0Z" transform="translate(145 216)" style="fill:#956952"/><path d="m0 0 10 5v2C6.126979 5.855698 2.997366 4.766799 0 2V0Z" transform="translate(182 203)" style="fill:#bf336e"/><path d="M0 0h5C1.25 5.875 1.25 5.875-1 7l1-7Z" transform="translate(225 205)" style="fill:#cf5f8d"/><path d="m0 0 1 3c-1.455376.838488-2.914404 1.67064-4.375 2.5l-2.460938 1.40625C-8 8-8 8-10 8V6l1.679688-.804688L-6.125 4.125l2.179688-1.054688C-1.84865 2.034426-1.84865 2.034426 0 0Z" transform="translate(170 184)" style="fill:#986c56"/><path d="M0 0h1l1 9-4 2L0 0Z" transform="translate(217 170)" style="fill:#d34c80"/><path d="M0 0c2.64752 2.577848 4.94432 4.916481 7 8H3V6L0 5V0Z" transform="translate(127 170)" style="fill:#8c6048"/><path d="M0 0h3l1 5-3 1V4h-9V3H2V1L0 0Z" transform="translate(79 169)" style="fill:#e3c3d2"/><path d="m0 0-2 4-4-1-2 3V1c5.75-1 5.75-1 8-1Z" transform="translate(183 134)" style="fill:#462618"/><path d="m0 0-1 7-2-2-1 2h-2c2.578947-7 2.578947-7 6-7Z" transform="translate(167 133)" style="fill:#522d19"/><path d="M0 0v2c-1.790085.221515-3.582182.426822-5.375.625l-3.023438.351563L-11 3l-2-2C-8.208624-.629068-4.943675-1.205774 0 0Z" transform="translate(149 92)" style="fill:#9f6e51"/><path d="m0 0 4 1C2.523077 5.676923 2.523077 5.676923-.125 7.3125L-2 8l2-8Z" transform="translate(39 85)" style="fill:#af4975"/><path d="m0 0 10 2-2 3c-3.795889-.54227-5.47212-2.201276-8-5Z" transform="translate(84 218)" style="fill:#b63f70"/><path d="m0 0 5 2C3 4 3 4-.625 4.125L-4 4V2h4V0Z" transform="translate(183 185)" style="fill:#212122"/><path d="M0 0h3L2 4l-6 1-1-2c3-1 3-1 5 0V0Z" transform="translate(172 138)" style="fill:#321708"/><path d="m0 0 5 5-4 2-2-2c.375-2.625.375-2.625 1-5Z" transform="translate(45 124)" style="fill:#e2cddd"/><path d="m0 0 .8125 1.9375C1.886678 4.331317 1.886678 4.331317 5 5L0 8c-1.125-1.75-1.125-1.75-2-4 .875-2.25.875-2.25 2-4Z" transform="translate(50 98)" style="fill:#262626"/><path d="M0 0c5.784615 4.307692 5.784615 4.307692 6.875 7.8125L7 10 4 9 3 4H1L0 0Z" transform="translate(231 44)" style="fill:#c14372"/><path d="M0 0c4.109588 1.450443 7.432587 3.511108 11 6L9 7c-2.164063-.996094-2.164063-.996094-4.625-2.4375L1.898437 3.128906 0 2V0Z" transform="translate(203 23)" style="fill:#b64976"/><path d="M0 0c3.57968 1.65216 6.77983 3.731244 10 6v1c-2.1875.4375-2.1875.4375-5 0-1.984418-2.139953-3.50233-4.50176-5-7Z" transform="translate(67 204)" style="fill:#c24575"/><path d="m0 0 1 2h-5l-1 7-3-1 .9375-1.8125C-5.897903 3.910432-5.897903 3.910432-5 1l5-1Z" transform="translate(229 203)" style="fill:#d1336e"/><path d="M0 0c-2.385734 1.892134-4.071753 3.023918-7 4V2l-3-1C-6.42181-1.339586-4.077752-.926762 0 0Z" transform="translate(178 187)" style="fill:#2e1b1a"/><path d="M0 0h3v14H2l-.183594-2.046875L1.5625 9.25c-.08121-.881719-.162422-1.763438-.246094-2.671875C1.037616 4.306495.612094 2.201482 0 0Z" transform="translate(240 130)" style="fill:#faebf5"/><path d="M0 0h3L2 8 0 7V0Z" transform="translate(106 129)" style="fill:#e5dcda"/><path d="m0 0 2 1C.384052 3.041198-1.285638 5.04073-3 7h-2V4h2l1-3 2-1Z" transform="translate(126 87)" style="fill:#28170c"/><path d="M0 0c3.795213 1.490977 5.610427 3.757008 8 7-3.151404-.340692-4.607816-.580768-6.8125-2.9375C0 2 0 2 0 0Z" transform="translate(223 37)" style="fill:#c03c6f"/><path d="m0 0 6 2-2 2C.375 3.625.375 3.625-3 3l3-3Z" transform="translate(161 218)" style="fill:#112c26"/><path d="M0 0c2.375.3125 2.375.3125 5 1l2 3-3 1C1.8125 3.6875 1.8125 3.6875 0 2V0Z" transform="translate(192 213)" style="fill:#edd4e2"/><path d="M0 0c4.875 2.625 4.875 2.625 6 6l2 2H5C0 2.651163 0 2.651163 0 0Z" transform="translate(53 189)" style="fill:#dd8bb1"/><path d="m0 0 1 3C-.8125 4.0625-.8125 4.0625-3 5l-3-1C-4 1-4 1-1.875.3125L0 0Z" transform="translate(158 174)" style="fill:#b75262"/><path d="m0 0 12 3v1c-4.548056.178355-7.879425-.002146-12-2V0Z" transform="translate(67 171)" style="fill:#bc3c6e"/><path d="m0 0 1 2h2c2 3 2 3 2 6H3V6H1L0 0Z" transform="translate(37 156)" style="fill:#d16f98"/><path d="m0 0 2 1v5h2v4H2C.683733 6.380266 0 3.904329 0 0Z" transform="translate(36 148)" style="fill:#bb386c"/><path d="m0 0-1 14h-1V2l-2-1c2-1 2-1 4-1Z" transform="translate(245 128)" style="fill:#f1cedf"/><path d="M0 0v7l-4-2c.375-1.9375.375-1.9375 1-4 2-1 2-1 3-1Z" transform="translate(49 90)" style="fill:#111011"/><path d="m0 0 4 4-6 1-1-2h2l1-3Z" transform="translate(142 215)" style="fill:#161208"/><path d="m0 0-2 4-5-1c2.50044-3.000529 2.737852-3 7-3Z" transform="translate(115 215)" style="fill:#dfeeec"/><path d="m0 0 6 1v3L1 3 0 0Z" transform="translate(179 209)" style="fill:#0b0d11"/><path d="m0 0 2 4-2 2V4h-5l-1-2 2.4375-.4375C-1.078963 1.258648-1.078963 1.258648 0 0Z" transform="translate(133 203)" style="fill:#090807"/><path d="M0 0h1v5l5 1C4 8 4 8 0 8V0Z" transform="translate(167 196)" style="fill:#fae7ee"/><path d="m0 0 5 1 1 5c-2.4375-.75-2.4375-.75-5-2C.1875 1.875.1875 1.875 0 0Z" transform="translate(133 191)" style="fill:#230d08"/><path d="m0 0 2.875 1.0625-1 3c-2.915173-1.074011-4.778102-1.778102-7-4 2-1 2-1 5.125-.0625Z" transform="translate(125.125 189.9375)" style="fill:#e7c0d7"/><path d="m0 0 2 2c-.1875 2.0625-.1875 2.0625-1 4l-3 1V2h2V0Z" transform="translate(245 182)" style="fill:#d15b89"/><path d="m0 0 2 2H0V0Zm-3 2 2 1-2 6h-1c-.042544-1.999547-.040808-4.000416 0-6l1-1Z" transform="translate(115 136)" style="fill:#9b6e56"/><path d="M0 0c-1.5 1.5625-1.5 1.5625-4 3-2.774375-.031768-5.252865-.496359-8-1V1C-7.936313.225964-4.135748-.09847 0 0Z" transform="translate(166 93)" style="fill:#a27257"/><path d="M0 0h5v2l4 2-2 2C4.560703 4.074239 2.199094 2.199094 0 0Z" transform="translate(233 63)" style="fill:#c14476"/><path d="M0 0h1l1 5 1-5h1v7L1 8C0 7 0 7-.0625 3.4375L0 0Z" transform="translate(96 34)" style="fill:#c9b3bc"/><path d="M0 0h1L0 10l-2-1c-.201405-3.625286.142232-5.865017 2-9Z" transform="translate(102 31)" style="fill:#0d0d0e"/><path d="M0 0h5L4 5H2V2H0V0Z" transform="translate(97 21)" style="fill:#c8336b"/><path d="m0 0 9 1v1L-1 3l1-3Z" transform="translate(147 16)" style="fill:#ffe6f8"/><path d="M0 0c3.806346.671708 7.352068 1.727466 11 3L9 5c-3.850986-.265585-6.166955-2.560433-9-5Z" transform="translate(156 15)" style="fill:#bc4676"/><path d="m0 0-2 3h-4l-1-3c3.010317-.934236 3.866503-1.0445 7 0Z" transform="translate(217 217)" style="fill:#cf5c8c"/><path d="m0 0 6 2-3 2-1-1-1 6H0V0Z" transform="translate(177 211)" style="fill:#9bbeb9"/><path d="m0 0 4 1v8H3L2 3 0 4V0Z" transform="translate(173 210)" style="fill:#293f3d"/><path d="m0 0 4 1-1 4V3l-5 1 2-4Z" transform="translate(119 208)" style="fill:#121312"/><path d="m0 0 4 1-1 4-4-2 1-3Z" transform="translate(168 208)" style="fill:#a9dcd6"/><path d="M0 0h6v6L1 5l4-4H0V0Z" transform="translate(96 130)" style="fill:#745646"/><path d="m0 0 1 8-3-1c-.042544-1.999547-.040808-4.000416 0-6 1-1 1-1 2-1Z" transform="translate(55 71)" style="fill:#2d272c"/><path d="M0 0c1.5 1.125 1.5 1.125 3 3 .1875 3.1875.1875 3.1875 0 6L0 8V0Z" transform="translate(204 36)" style="fill:#4a4b4c"/><path d="M0 0c2.382813-.292969 2.382813-.292969 5.125-.1875l2.757813.082031L10 0v1L-2 3l2-3Z" transform="translate(106 23)" style="fill:#fcf1f9"/></svg>