<svg xmlns="http://www.w3.org/2000/svg" viewBox="0 0 281 256" width="281" height="256"><path d="M0 0h281v256H0V0Z" style="fill:#334792"/><path d="M0 0h281v256H0V0Zm61 32v2l-5 2v2h-2v2l-1.742188.675781c-2.94139 1.725141-4.370204 3.760165-6.382812 6.511719l-1.156982 1.581055C41.624978 53.037837 38.63709 57.380706 35.6875 61.75l-1.236816 1.821045c-3.991938 6.0043-7.184737 12.24277-9.575684 19.053955l-.945313 2.664063L23 88l-.984375 2.628906c-1.454265 4.827042-2.282199 9.720618-3.140625 14.683594l-.550781 3.013672c-1.635816 9.365967-1.56694 17.7969-.136719 27.173828.13092.861497.26184 1.722993.396729 2.610596C20.471072 149.740257 23.499687 161.524019 29 172l.873535 1.712402C35.123874 183.920386 41.172195 192.615677 49 201c.836602.90621 1.673203 1.812422 2.535156 2.746094C57.121594 209.562718 63.134376 214.732824 70 219h2v2c1.227829.627625 2.457338 1.25196 3.6875 1.875l2.074219 1.054688C80.138538 225.066247 82.550292 226.031251 85 227l2.628906 1.183594c9.3338 3.989547 18.601692 5.321956 28.62793 6.506836C118 235 118 235 119 236c2.711688.45986 5.397968.847761 8.125 1.1875l2.265625.326172c5.102323.635568 8.652846.08166 13.609375-1.513672 3.048867-.536677 6.11839-.90996 9.1875-1.3125 13.58603-1.930952 26.826175-5.044976 39.75-9.6875l1.952148-.680908c4.384266-1.667264 6.9759-3.88365 10.110352-7.319092 1.592831-1.470706 3.197045-2.929181 4.8125-4.375l2.394531-2.148438c1.543965-1.369054 3.095319-2.730376 4.675781-4.057128C235.492172 189.795534 245.263799 166.745608 250 142l.539795-2.466064c4.907857-27.023154-3.653308-58.029629-18.842041-80.456788C218.292634 40.33058 201.756634 27.523632 181 18l-1.86084-.875488C143.337653.341044 91.455716 5.535632 61 32Z" style="fill:#000"/><path d="M0 0c2.161238.003164 4.321107-.020403 6.482178-.045654C21.4571-.1145 37.09324 3.001562 49.04663 12.643799c6.431557 6.38679 8.93008 13.819502 9.011719 22.683838l-.015625 3.175537-.003907 3.286865c-.140675 12.274802-1.6277 24.379389-3.308593 36.525635l3.292968.355469c4.922663.85589 6.23381 2.171309 9.707032 5.64453 3.446013 5.287035 2.64202 11.976923 2 18-2.019753 6.085265-5.602414 10.61328-11 14-2.732687.65723-5.17143.853695-8 1l.4375 3.625c0 9.081858-6.170276 19.054056-12.269532 25.488282-12.509583 10.886719-12.509583 10.886719-17.167968 10.886719v14l4.375.0625c11.854748 1.088858 25.96453 6.666035 34.625 14.9375l1 3c-3.942391-.587466-6.755435-1.81004-10.1875-3.8125-9.387731-5.354607-9.387731-5.354607-19.8125-7.1875-1.711087 1.62103-3.372533 3.295034-5 5-10.393707 7.853023-22.268159 8.970957-35 8-8.77027-1.820637-16.915584-5.373376-22-13-6.286938.458643-10.778737 1.985114-16.3125 4.9375l-2.126954 1.091797c-2.960977 1.532708-5.784523 3.12002-8.560546 4.970703-2.1875-.375-2.1875-.375-4-1v-2c11.532354-8.767749 25.663837-14.238353 40-16 .61331-4.150072.844252-7.87197 0-12-2.87936-3.117886-6.323805-4.93551-10-7-9.5943-6.807023-15.48403-16.560931-18-28-.058115-1.999156-.073914-4.001366 0-6l-2.625.25c-5.53129-.409725-8.38715-3.217247-12.125-7.125-4.869895-6.763743-5.104235-14.035502-4.25-22.125 1.020065-2.663226 2.021108-3.851489 4-6l1.25-1.875c2.956855-1.900836 6.29956-1.187358 9.75-1.125l-.402344-3.226563c-1.556598-12.683769-2.662972-25.30179-2.910156-38.085937l-.090332-2.497315c-.085374-9.034124 3.382098-15.889551 9.500488-22.408935C-34.670977 1.391542-16.30144-.049784 0 0Z" transform="translate(134.269775 31.684326)" style="fill:#895634"/><path d="M0 0c2.161238.003164 4.321107-.020403 6.482178-.045654C21.4571-.1145 37.09324 3.001562 49.04663 12.643799c6.431557 6.38679 8.93008 13.819502 9.011719 22.683838l-.015625 3.175537-.003907 3.286865c-.140675 12.274802-1.6277 24.379389-3.308593 36.525635l3.347656.410156c3.58332.578697 5.126297 1.063797 7.652344 3.589844v2c-4.585945 1.528648-7.51325-.374366-12-2l1 10 3-3h4v2l-3 1c-.082267 3.043867.023917 5.071753 1 8h-4l-1 6h-1c-.142858-7.428572-.142858-7.428572 1-11l-5 1c-.81605-1.915158-1.627707-3.832189-2.4375-5.75l-1.371094-3.234375c-2.045152-5.17658-2.458-10.012437-2.769531-15.542969-.109482-1.696041-.220197-3.392003-.332032-5.08789-.173428-2.663571-.340086-5.326705-.48584-7.991944-.143551-2.579399-.316531-5.155451-.494628-7.732666l-.111145-2.402573c-.311843-4.12886-.729435-5.905122-3.317566-9.298843-2.665606-2.352058-2.665606-2.352058-6.680664-1.95874-2.658862.451649-5.231543 1.060168-7.842041 1.738525-8.124297 2.08819-15.723236 2.767538-24.09546 2.698975l-3.713622-.007569c-7.747181-.115983-14.343526-.78028-21.587159-3.652587-3.644268-1.025756-6.10861-.714793-9.761718.222656-2.571065 2.04363-3.827323 3.285425-4.605957 6.507568l-.151856 2.832276-.203125 3.192382-.164062 3.405274c-.14694 2.34775-.2954 4.695406-.445313 7.042969l-.211914 3.563964c-.319958 5.077003-.750043 10.140314-1.217773 15.205567l-.215332 2.573974c-.414429 4.496321-1.139749 8.42665-2.784668 12.676026h-2c.751042 24.735986.751042 24.735986 12 46l1.777343 2.433594c2.590688 2.991356 5.4634 5.045119 8.785157 7.128906l1.882812 1.181396c9.902446 6.050507 18.83043 8.632315 30.554688 7.256104 3.82104-1.038035 7.400897-2.354696 11-4v2h-2l-.257813 1.890625c-.742187 2.109375-.742187 2.109375-2.421875 3.15625-9.749472 3.122606-18.805643 2.822897-28.320312-1.046875l-3-2v16l6 2 2 1c9.516285.542595 17.990275.432276 27-3v-17h3v19c-9.867052 5.638315-19.6024 8.180903-30.91797 5.242187-4.688026-1.758875-7.600228-3.640323-11.08203-7.242187-3.63544-1.277653-3.63544-1.277653-7-2 2.35953-2.359531 3.778956-2.491414 7-3 .61331-4.150072.844252-7.87197 0-12-2.87936-3.117886-6.323805-4.93551-10-7-9.5943-6.807023-15.48403-16.560931-18-28-.058115-1.999156-.073914-4.001366 0-6l-2.625.25c-5.53129-.409725-8.38715-3.217247-12.125-7.125-4.869895-6.763743-5.104235-14.035502-4.25-22.125 1.020065-2.663226 2.021108-3.851489 4-6l1.25-1.875c2.956855-1.900836 6.29956-1.187358 9.75-1.125l-.402344-3.226563c-1.556598-12.683769-2.662972-25.30179-2.910156-38.085937l-.090332-2.497315c-.085374-9.034124 3.382098-15.889551 9.500488-22.408935C-34.670977 1.391542-16.30144-.049784 0 0Z" transform="translate(134.269775 31.684326)" style="fill:#141312"/><path d="M0 0c7.75.875 7.75.875 10 2l3-1c4.21311 5.961103 3.829064 11.95296 3 19-2.031593 6.086096-5.59672 10.609707-11 14-2.732686.657228-5.17143.853695-8 1l.4375 3.625c0 9.081857-6.170276 19.054055-12.269531 25.488281C-27.341615 75-27.341615 75-32 75v14l4.375.0625C-15.770252 90.151358-1.66047 95.728535 7 104l1 3c-3.94239-.587466-6.755434-1.81004-10.1875-3.8125C-11.575231 97.832893-11.575231 97.832893-22 96c-1.711087 1.62103-3.372533 3.295035-5 5-10.393707 7.853023-22.268159 8.970957-35 8-8.770269-1.820637-16.915584-5.373375-22-13-6.286938.458643-10.778737 1.985115-16.3125 4.9375l-2.126953 1.091797C-105.40043 103.562005-108.223976 105.149317-111 107c-2.1875-.375-2.1875-.375-4-1v-2c6.514724-4.952975 13.773863-8.604123 21.375-11.5625l1.978516-.797852c5.522594-2.030944 9.75083-1.535922 15.271484.172852C-74 93-74 93-71.6875 94.9375-64.42654 100.509864-56.863063 100.806698-48 100c5.054113-1.055477 9.384394-2.692197 14-5l1-19-2 1v16c-9.111889 4.555944-20.893678 6.199119-30.890625 3.105469C-68.0625 95-68.0625 95-71 93V77l6.640625 2.246094c8.394946 2.68249 16.315607 2.515956 24.679688-.296875C-37.64284 78.045754-37.64284 78.045754-37 75l-3.625 1.5c-9.929578 3.237229-19.655241 2.29425-29.144531-1.832031-10.79854-5.575546-22.067138-13.155914-26.46875-25L-97 47h2v2h2l2 2 .515625-2.773438L-89.75 44.625l.703125-3.585938C-88 38-88 38-85.890625 36.585938L-84 36l-1 7h3v2h2v-6c2.851604-.814341 5.366261-1.118812 8.328125-1.097656l2.421875.009765 2.5.025391 2.546875.013672C-62.135386 37.96292-60.067684 37.980855-58 38l-1-4-3.3125-.8125C-67.465011 31.528217-67.465011 31.528217-69 29c-.4375-2.9375-.4375-2.9375 0-6 1.875-2.375 1.875-2.375 4-4h2l1-15h2c.233965 5.73213.088983 10.612623-2 16l-3 2c-.250216 3.083659-.250216 3.083659 0 6l1.75.375c2.25.625 2.25.625 4 1.6875 3.513865 1.46411 6.455433 1.18231 10.25.9375l2-2c1.666171-.040638 3.333881-.042721 5 0 1.267896-1.044907 1.267896-1.044907 1.125-3.375-.011563-2.73593-.011563-2.73593-1.125-5.625 3.875 1.875 3.875 1.875 5 3-.317341 5.394799-1.398653 8.924791-5 13-3.6875 1.3125-3.6875 1.3125-7 2l-1 1 23 1v5l-1-4h-4v2h-43l2 4 29 1 1 2c-2.45828.167474-4.916619.334014-7.375.5l-2.117188.144531C-57.773438 51-57.773438 51-60 51c-4.611928 1.195235-4.611928 1.195235-9 3l-2-1v4c1.413281.818374 2.830783 1.629462 4.25 2.4375l2.390625 1.371094C-57.35512 64.34551-49.568913 63.77396-42.25 61.4375-36.984948 59.359778-34.211098 56.542528-31 52l2-2 1 1 2-15h2l-4-3c4.917418.43389 7.55892 2.55892 11 6 .875 2.8125.875 2.8125 1 5 8.733114-8.733114 7.305466-28.545837 8-40 1.990978 2.986468 2.94125 5.596873 4 9h5v9l1-4h4l-2-3c-.125-2.6875-.125-2.6875 0-5l4-1V7c-2.971939 1.124517-5.334407 2.222938-8 4V0Z" transform="translate(188 114)" style="fill:#885434"/><path d="m0 0 2.232391-.00055C19.599272.06002 36.429402 2.470289 49.679688 14.6875c7.355926 8.783196 8.890358 15.926191 8.882812 27.125.000645.993303.00129 1.986606.001953 3.01001-.07968 11.625017-1.089142 23.17356-2.189453 34.73999l2.832031.359375c4.856333.982045 6.910243 3.952463 9.777344 7.800781C70.783413 91.396534 70.950357 94.737364 70.9375 98.75l-.005127 2.281982C70.670921 109.17197 67.531132 114.240256 62 120.0625c-3.484706 1.99126-6.694486 2.700573-10.625 3.5l-.007813 1.800781c-.56233 12.05261-7.416529 21.143297-15.992187 29.199219-3.796444 2.981756-7.67266 5.83633-12 8-.466512 2.125768-.466512 2.125768-.625 4.5625l-.226563 2.503906L22.375 171.5625l1.84375.226563c12.820432 1.923064 24.21959 6.300859 34.410156 14.33203 3.61765 1.89888 5.842988 1.333959 9.746094.441407-4.230061 5.9879-8.187811 8.479868-15.125 10.625l-2.656738.868164c-2.729673.872676-5.468647 1.699346-8.218262 2.506836l-2.529297.743164c-12.2995 3.517637-24.654556 5.473329-37.344238 6.970215-2.23742.26711-2.23742.26711-4.833496.919433-3.16254.506438-5.892748.012473-9.042969-.507812l-3.484375-.554688C-17.625 207.5625-17.625 207.5625-18.625 206.5625c-1.331509-.236464-2.672628-.419412-4.015625-.578125-10.393627-1.327466-19.379045-3.097336-28.984375-7.421875l-2.578125-1.019531c-2.310652-.935442-4.513155-1.976035-6.734375-3.105469l-2.113281-1.070313-1.574219-.804687v-2l-5-2 1.695313-.300781c2.812868-.853396 4.75862-2.219936 7.179687-3.886719 9.673783-6.289896 22.32279-12.8125 34.125-12.8125.325347-3.2686.142751-5.904446-1-9-2.542122-2.388983-5.231024-4.194677-8.144531-6.109375-9.96376-6.597072-15.542084-16.087163-18.410156-27.542969C-54.625 126.5625-54.625 126.5625-54.625 123.5625l-2.5625-.1875c-5.279114-1.24779-8.872193-3.518862-11.957031-8.039063-4.496827-7.95692-5.20854-14.642215-4.480469-23.773437 1.512451-5.383998 4.216437-9.010273 9-12 1.324435-.367099 2.657231-.70698 4-1 .027144-2.708402.046908-5.416527.0625-8.125l.02539-2.304688c.013858-3.214979-.027658-6.219123-.572265-9.39453-.802262-4.941204-.781876-9.865277-.828125-14.863282l-.08789-3.107422c-.077567-9.445193 1.880284-18.613924 8.580078-25.65039C-38.553287 2.398248-18.840576-.071876 0 0Zm-52.226563 18.695313C-57.254314 25.408344-58.819772 31.831097-58.8125 40.125l.000244 2.613525c.109866 13.118004.408236 26.9701 3.187256 39.823975l-3.625-.4375c-2.819756-.025042-3.993071.127234-6.207031 1.925781-5.628571 6.614598-5.861837 11.887933-5.167969 20.511719 1.665208 6.801273 5.304335 11.071955 11 15 2.708793 1.354397 5.009333 1.065015 8 1l.078125 1.835938c.817147 12.071496 5.441745 20.55564 13.921875 29.164062 3.528424 2.89717 7.181054 5.502034 11 8l3 2c.292969 2.820313.292969 2.820313.1875 6.125l-.082031 3.320313-.105469 2.554687-2.535156.445313c-13.883887 2.6753-25.814718 7.368112-37.464844 15.554687l1 3c4.904363-1.069347 8.99158-3.610477 13.335938-6.029297 11.148028-6.102197 11.148028-6.102197 16.664062-4.970703 1.16344 1.42937 2.320532 2.865016 3.425781 4.339844 5.212735 5.4973 14.391024 8.416827 21.730469 8.84375 13.908836.25701 25.263589-1.595323 35.84375-11.183594l1-2c9.02498.601665 16.942728 4.955479 24.246094 10.082031 2.014628 1.22711 2.014628 1.22711 5.753906.917969-2.727435-6.863546-10.46678-9.964314-16.898438-12.75-7.72944-3.147317-14.679558-5.016055-23.101562-5.25v-14l5-2c11.240933-6.855457 20.056378-16.224885 24-29 .350641-3.142112.25992-5.82897 0-9l3.5625-.125c5.920412-.764938 9.176486-4.000377 12.761719-8.558594C68.4854 105.701452 68.207436 98.56176 67.375 91.5625c-2.217086-4.945807-5.229907-7.46893-10-10-2.627817-.135815-2.627817-.135815-5 0l.27539-1.98999c5.513561-30.209338 5.513561-30.209338-1.517578-58.838135C45.624046 13.927988 39.438412 10.844951 31.375 7.5625l-2.210938-1.015625C19.782919 3.235883 10.217516 3.160081.375 3.1875l-2.216156.001648c-17.701047.060563-37.628234 1.50439-50.385407 15.506165Z" transform="translate(136.625 28.4375)" style="fill:#dae0eb"/><path d="M0 0c7.75.875 7.75.875 10 2l3-1c4.21311 5.961103 3.829064 11.95296 3 19-2.031593 6.086096-5.59672 10.609707-11 14-2.732686.657228-5.17143.853695-8 1l.4375 3.625c0 9.081857-6.170276 19.054055-12.269531 25.488281C-27.341615 75-27.341615 75-32 75v14l4.375.0625C-15.770252 90.151358-1.66047 95.728535 7 104l1 3c-3.94239-.587466-6.755434-1.81004-10.1875-3.8125C-11.575231 97.832893-11.575231 97.832893-22 96c-1.711087 1.62103-3.372533 3.295035-5 5-10.393707 7.853023-22.268159 8.970957-35 8-8.770269-1.820637-16.915584-5.373375-22-13-6.286938.458643-10.778737 1.985115-16.3125 4.9375l-2.126953 1.091797C-105.40043 103.562005-108.223976 105.149317-111 107c-2.1875-.375-2.1875-.375-4-1v-2c6.514724-4.952975 13.773863-8.604123 21.375-11.5625l1.978516-.797852c5.522594-2.030944 9.75083-1.535922 15.271484.172852C-74 93-74 93-71.6875 94.9375-64.42654 100.509864-56.863063 100.806698-48 100c5.054113-1.055477 9.384394-2.692197 14-5l1-19-2 1v16c-9.111889 4.555944-20.893678 6.199119-30.890625 3.105469C-68.0625 95-68.0625 95-71 93V77l6.640625 2.246094c8.394946 2.68249 16.315607 2.515956 24.679688-.296875C-37.64284 78.045754-37.64284 78.045754-37 75h2l1-3c2.292969-1.648438 2.292969-1.648438 5.1875-3.375C-18.290076 62.080731-9.950112 53.461271-7 41c1.063485-6.401969 1.10847-12.89901 1.1875-19.375l.039795-2.054688C-5.76624 15.559812-6.35306 12.636188-8 9c-.125-2.8125-.125-2.8125 0-5 1.990978 2.986468 2.94125 5.596873 4 9h5v9l1-4h4l-2-3c-.125-2.6875-.125-2.6875 0-5l4-1V7c-2.971939 1.124517-5.334407 2.222938-8 4V0Z" transform="translate(188 114)" style="fill:#27170c"/><path d="M0 0c1.16344 1.42937 2.320532 2.865016 3.425781 4.339844 5.212735 5.4973 14.391024 8.416827 21.730469 8.84375C36.431952 13.391949 46.58505 12.68957 56 6l2.75-2.75C61.370754.629246 62.363762.304742 66 0c7.401508 1.927077 14.044653 5.262878 20.195313 9.765625C88.089313 11.182311 88.089313 11.182311 91 12v2c-18.2121 7.401845-36.373716 11.413163-55.873535 13.713379-2.23742.26711-2.23742.26711-4.833496.919434-3.16254.506437-5.892748.012472-9.042969-.507813l-3.484375-.554688C15 27 15 27 14 26c-1.331509-.236464-2.672628-.419412-4.015625-.578125C-.409252 24.094409-9.39467 22.32454-19 18l-2.640625-1.050781C-24.514153 15.793147-27.243771 14.410164-30 13c3.520637-2.850465 7.389105-4.947936 11.375-7.0625l1.960938-1.064453C-5.435218-1.114916-5.435218-1.114916 0 0Z" transform="translate(104 209)" style="fill:#d7d9da"/><path d="M0 0v2h5l1 3-3.5625-1.0625C-1.67255 2.926355-4.853185 2.88355-9 4c-2.563164 2.046177-3.828184 3.288994-4.605957 6.507568l-.151855 2.832276-.203126 3.192383L-14.125 19.9375c-.14694 2.34775-.2954 4.695406-.445313 7.042969l-.211914 3.563965C-15.102185 35.621436-15.53227 40.684748-16 45.75l-.215332 2.573975C-16.62976 52.820295-17.35508 56.750625-19 61h-2c.751043 24.735986.751043 24.735986 12 46l1.777344 2.433594c2.590687 2.991356 5.4634 5.045119 8.785156 7.128906l1.882813 1.181396C13.347758 123.794403 22.275742 126.376211 34 125c3.82104-1.038034 7.400897-2.354696 11-4v2h-2l-.257813 1.890625C42 127 42 127 40.320313 128.046875 30.570842 131.169482 21.51467 130.869772 12 127l-3-2v16l6 2 2 1c9.516285.542595 17.990275.432276 27-3v-17h3v19c-9.867052 5.638315-19.6024 8.180903-30.917969 5.242188C11.394004 146.483312 8.481802 144.601864 5 141c-3.635439-1.277653-3.635439-1.277653-7-2 2.35953-2.35953 3.778956-2.491414 7-3 .613311-4.150072.844252-7.87197 0-12-2.879359-3.117886-6.323805-4.935509-10-7-9.5943-6.807023-15.48403-16.560931-18-28-.058115-1.999155-.073914-4.001366 0-6l-3-1v-2h3l-.5-3.4375c-.85427-7.483887-.577702-15.04265-.5-22.5625l5-2-.070313-2.019531C-19.163968 45.197273-19.065147 40.798148-18 36.125c1.390483-6.552412 1.049659-13.119985.75-19.776855-.1776-6.700733-.1776-6.700733 2.195313-10.293457L-13 4l1-3C-7.829936-1.452979-4.62904-.907655 0 0Z" transform="translate(108 66)" style="fill:#1e1008"/><path d="m0 0 2.3125 1.9375C9.58403 7.517976 17.127461 7.788197 26 7c6.098563-1.15446 11.148889-3.119111 16-7l2-3c6.258032-1.355343 12.207394.699134 17.9375 3.0625l2.363037.948242C70.352228 3.53034 76.213433 6.428432 81 11l1 3c-3.94239-.587466-6.755434-1.81004-10.1875-3.8125C62.424769 4.832893 62.424769 4.832893 52 3c-1.711087 1.62103-3.372533 3.295035-5 5-10.393707 7.853023-22.268159 8.970957-35 8-8.770269-1.820637-16.915584-5.373375-22-13-6.286938.458643-10.778737 1.985115-16.3125 4.9375l-2.126953 1.091797C-31.40043 10.562005-34.223976 12.149317-37 14c-2.1875-.375-2.1875-.375-4-1v-2c6.514724-4.952975 13.773863-8.604123 21.375-11.5625l1.978516-.797852C-11.409722-3.653932-5.88027-2.940135 0 0Z" transform="translate(114 207)" style="fill:#0f0f0f"/><path d="M0 0h4c.665675 6.390477-1.028265 10.009064-5 15-5.632752 5.760769-11.986169 8.063026-19.9375 8.4375-6.754185-.231452-13.31802-2.372888-18.1875-7.1875L-41 14h2v-2l1.9375-.4375C-35.024549 11.189928-35.024549 11.189928-34 10c1.999584-.040808 4.000453-.042544 6 0l1-2 1 1c2.35695-.090316 4.711536-.246881 7.0625-.4375l3.910156-.308594L-12 8l-2.630371-.060059c-3.216892-.07804-6.4334-.16473-9.649902-.257324-1.392813-.03831-2.785725-.07316-4.178711-.104492-2.00088-.045604-4.001437-.104641-6.001953-.164063l-3.649903-.095214C-41 7-41 7-43 5V2H0V0Z" transform="translate(156 155)" style="fill:#290d0d"/><path d="m0 0 6.640625 2.246094C16.551806 5.413077 25.188485 4.058134 35 1v16c-9.178813 3.49669-20.29586 5.107016-29.871094 2.097656C2.9375 18 2.9375 18 0 16V0Z" transform="translate(117 191)" style="fill:#875436"/><path d="m0 0 2.216797.013672C3.998734.025319 5.780629.043248 7.5625.0625v1l-2.972656.445313C-9.029296 3.707082-21.301156 7.631044-32.4375 16.0625l-2.6875 1.75c-7.709235 7.500878-10.017267 17.123971-12.3125 27.25h-1c-1.058157-23.592015-1.058157-23.592015 5-31C-32.543612 2.66192-15.102099-.179622 0 0Z" transform="translate(130.4375 35.9375)" style="fill:#f0f0f0"/><path d="M0 0c1.524318 4.931618 2.522369 9.742115 3.125 14.875l.257324 2.111328C3.965874 22.035145 4.181208 26.926188 4 32c-3.925114 0-6.006872-.112234-8.988281-2.777344-4.65236-5.326615-6.222803-8.442778-6.324219-15.535156l-.113281-3.988281C-10.942193 5.497772-9.969288 3.936235-7 1-4.537212-.231394-2.720495-.071592 0 0Z" transform="translate(81 114)" style="fill:#74523e"/><path d="M0 0c7.75.875 7.75.875 10 2l3-1v3l-2-1 .972656 2.167969c1.89357 5.219919 2.175536 10.975785.082031 16.183594C9.686062 25.329066 7.012322 28.592606 3 31h-5V14l3-1v9l1-4h4l-2-3c-.125-2.6875-.125-2.6875 0-5l4-1V7c-2.971939 1.124517-5.334407 2.222938-8 4V0Z" transform="translate(188 114)" style="fill:#734e38"/><path d="M0 0c7.665412 4.905864 16.187095 5.11285 24.980469 3.464844C28.96217 2.362497 31.88215 1.16666 35.3125-1.1875 38.793927-3.431086 41.062362-3.325011 45.125-3c-.347803 2.729372-.74149 3.778343-2.863281 5.597656-11.050754 6.609303-22.753138 9.233287-35.5 6.746094C-.360561 7.437904-6.132486 4.817101-10.875-1v-2C-6.087316-4.709887-3.978762-2.767834 0 0Z" transform="translate(117.875 210)" style="fill:#c6c7c7"/><path d="M0 0c1.991104.382905 3.991005.726046 6 1v2l-3.59375-.105469c-16.41159-.3342-34.120242.593914-47.578125 11.179688C-48.705245 17.796339-50.83449 22.390088-53 27h-2l-1 19h-1c-.117928-3.145508-.187814-6.290435-.25-9.4375l-.101563-2.66211c-.139054-9.420912 3.040598-16.290503 9.44922-23.11914C-37.492644 1.034178-13.367906-7.251328 0 0Z" transform="translate(135 34)" style="fill:#262625"/><path d="M0 0c-2.964146 3.213556-6.455215 5.29011-10.136719 7.597656L-12 9v2c6.628365 3.063108 13.233986 5.498581 20.3125 7.25l1.990234.493164c9.23195 2.19387 18.19151 2.498643 27.634766 2.506836l2.111176.002045C50.354438 21.23617 59.982693 20.72221 70 18a21839.148902 21839.148902 0 0 1 4.667969-1.207031c5.99946-1.590197 11.910663-3.197256 17.675781-5.511719C96 10 96 10 99 11c-18.2121 7.401845-36.373716 11.413163-55.873535 13.713379-2.23742.26711-2.23742.26711-4.833496.919434-3.16254.506437-5.892748.012472-9.042969-.507813l-3.484375-.554688C23 24 23 24 22 23c-1.331509-.236464-2.672628-.419412-4.015625-.578125C7.590748 21.094409-1.39467 19.32454-11 15l-2.640625-1.050781C-16.514153 12.793147-19.243771 11.410164-22 10c3.289604-2.613989 6.760545-4.659861 10.4375-6.6875l3.371094-1.886719C-5.095006.042444-3.327446-.329635 0 0Z" transform="translate(96 212)" style="fill:#fcfdfd"/><path d="m0 0 1 3c-9.578446 9.019543-9.578446 9.019543-14.0625 11-3.092947 1.649411-3.092947 1.649411-3.585938 4.234375C-16.910224 20.512638-17.034274 22.708445-17 25l1.84375.226563c12.820432 1.923064 24.21959 6.300859 34.410156 14.33203C22.871556 41.457474 25.096894 40.892553 29 40l-6 7-4-1c-.69497-1.318802-1.359286-2.654003-2-4-9.850338-8.07474-24.557053-12.470994-37-14-.661914-4.820603-.937993-9.20464 0-14 3.159322-3.321338 6.941257-4.960221 11-7 1.761735-1.26845 3.494442-2.57874 5.1875-3.9375l2.230469-1.777344L0 0Z" transform="translate(176 175)" style="fill:#dde4eb"/><path d="m0 0 2 2h-4c4.681046 6.436438 9.70812 9.324248 17.4375 11.125L19 14l1 2c2.586053.468326 2.586053.468326 5.5625.625l3.066406.226563L31 17v1c-12.369219.658716-22.579689-.663592-32.476563-8.535156C-3 8-3 8-5 5c-6.286938.458643-10.778737 1.985115-16.3125 4.9375l-2.126953 1.091797C-26.40043 12.562005-29.223976 14.149317-32 16c-2.1875-.375-2.1875-.375-4-1v-2c6.514724-4.952975 13.773863-8.604123 21.375-11.5625l1.978516-.797852C-8.080784-1.039396-4.709678-1.162812 0 0Z" transform="translate(109 205)" style="fill:#1e1f1e"/><path d="M0 0h46v2H3l2 4 29 1 1 2c-2.45828.167474-4.916619.334014-7.375.5l-2.117188.144531C20.226563 10 20.226563 10 18 10c-4.611928 1.195235-4.611928 1.195235-9 3l-2-1v2H4C.336546 8.390336 0 7.388522 0 0Z" transform="translate(110 155)" style="fill:#140b05"/><path d="M0 0h44l-1 4c-4.136252 1.152869-8.147113 1.1619-12.414063 1.167969l-2.457122.010086c-1.7096.005052-3.419208.007409-5.128815.007248-2.622559.002195-5.244703.020392-7.867188.039306-1.661456.002933-3.322915.004919-4.984374.00586l-2.38321.021774C2.228836 5.228836 2.228836 5.228836 0 3V0Z" transform="translate(113 157)" style="fill:#d8d7d5"/><path d="m0 0 2.44336.015625C5.88556.061407 8.515585.151029 11.8125 1.25c.042544 1.999547.040808 4.000416 0 6-1.774905 1.774905-4.377849 1.235-6.785156 1.316406l-3.544922.126953L-2.25 8.8125l-3.74414.13086c-3.064333.106482-6.12875.208494-9.19336.30664v-6C-9.972662.058956-5.912095-.153436 0 0Z" transform="translate(112.1875 103.75)" style="fill:#2b1a0e"/><path d="M0 0c3.208158-.08774 6.416005-.140637 9.625-.1875l2.738281-.076172C17.710241-.322215 21.340145.050823 26 3v5H0V0Z" transform="translate(146 104)" style="fill:#301c0e"/><path d="M0 0c10.407753 10.407753 11.276021 35.32647 11.5 49.1875C11.454376 66.196705 7.662872 82.80592 0 98h-1c-.1875-3.3125-.1875-3.3125 0-7l1.441406-1.433594C2.45884 87.53886 2.647422 86.046003 3.125 83.25l.476563-2.667969c.341427-2.212583.631562-4.422108.898437-6.644531L5 71l2-1c.702481-2.928542.702481-2.928542 1.125-6.4375l.507813-3.558594c.91357-8.5191.20533-16.74023-1.007813-25.191406l-.382813-2.865234C6.525347 26.803932 5.574616 21.94977 4 17H2l-.183594-2.195313C1.385166 9.828836.929524 4.913198 0 0Z" transform="translate(240 76)" style="fill:#bec5d9"/><path d="M0 0h2c.233965 5.73213.088983 10.612623-2 16l-3 2c-.250216 3.083659-.250216 3.083659 0 6l1.75.375C1 25 1 25 2.75 26.0625 6.263865 27.52661 9.205433 27.24481 13 27l2-2c1.666171-.040638 3.333881-.042721 5 0 1.267896-1.044907 1.267896-1.044907 1.125-3.375-.011563-2.73593-.011563-2.73593-1.125-5.625 3.875 1.875 3.875 1.875 5 3-.453271 6.119159-.453271 6.119159-2.125 8.8125C17.925739 30.947032 11.741198 31.617253 6 32l-3-2-3.5-.9375C-5.444879 27.561376-5.444879 27.561376-7 25c-.4375-2.9375-.4375-2.9375 0-6 1.875-2.375 1.875-2.375 4-4h2L0 0Z" transform="translate(126 118)" style="fill:#3b1807"/><path d="M0 0c-1.184398 2.691814-2.652415 4.875492-4.4375 7.1875-5.550204 7.767488-5.996777 15.688277-5.8125 25l.015625 3.19336C-10.183919 40.385424-9.85542 45.065935-9 50c.118147 2.959686.095126 5.913594.0625 8.875l-.013672 2.375C-8.962859 63.1667-8.98079 65.08336-9 67l-1.609375.664063C-15.695859 69.94741-18.226086 71.985617-21 77l-2 3c-1.125-5.75-1.125-5.75 0-8l3-1 2-3h2v-2l2-1c2.12181-5.612499 2.226198-10.678456 2.089844-16.625a22547.30777 22547.30777 0 0 1-.060547-5.578125c-.043488-2.903114-.091967-5.806043-.145752-8.708984-.048464-2.820957-.078204-5.641667-.106201-8.462891l-.065933-2.60791C-12.333448 17.527293-11.490074 13.900682-9 9l1.4375-3.25C-5.727098 2.519692-3.932279 0 0 0Z" transform="translate(86 40)" style="fill:#384677"/><path d="M0 0h1v5l-3.6875.125c-3.453118.41021-5.027372 1.125735-7.25 3.8125C-13.888227 14.803732-13.567958 20.032511-13 27c1.6203 6.360837 4.48323 10.498972 10 14 2.675904.917729 5.206774 1.47025 8 2-2.332141 1.20628-4.496421 2.165474-7 3-7.128055-3.070136-11.0209-8.017733-14-15-2.19746-6.592378-2.295002-15.26313.6875-21.625C-13.396853 6.198162-11.158592 3.9949-8 2h2v2h6V0Z" transform="translate(80 106)" style="fill:#d4ddeb"/><path d="M0 0c2.899223.467617 3.866752.866752 6 3l2-3c2.296128 16.708428 2.296128 16.708428 2 25H9v-7c-3.074536.776393-3.074536.776393-5 3-3.813126-1.225648-5.390105-3.588633-7.25-7.046875C-4.404984 10.945354-4.25868 8.168821-4 5h4l-1 5c2.059905-1.294677 2.059905-1.294677 4-3V4C1.059905 2.294677 1.059905 2.294677-1 1l1-1Z" transform="translate(75 121)" style="fill:#714c35"/><path d="M0 0h1l.480469 3.148438C3.44622 15.221284 6.565002 25.559078 16 34c2.886082 2.009741 5.81231 3.863532 8.839844 5.652344L27 41v1c-2.628906.769531-2.628906.769531-6 1C9.854874 36.465637 2.316314 26.019457-1.347656 13.769531-2.392133 9.335194-2.77242 5.882774-1 1.5625L0 0Z" transform="translate(87 144)" style="fill:#221710"/><path d="m0 0 3.4375.0625c-2.581959 3.872938-4.60924 3.882352-9 5l-1 1 23 1v5l-1-4h-50l1 7v3l-3-2c-.292969-2.382813-.292969-2.382813-.1875-5.125l.082031-2.757813.105469-2.117187c2.851604-.814341 5.366261-1.118812 8.328125-1.097656l2.421875.009765 2.5.025391 2.546875.013672c2.067739.011748 4.135441.029683 6.203125.048828v-2l2.152344-.402344L-9.625 2.125l2.777344-.527344C-.027616.000485-.027616.000485 0 0Z" transform="translate(144.5625 146.9375)" style="fill:#73513a"/><path d="m0 0 4 1c4.038863 18.13882 2.3158 37.602286 1 56l6 1v4l-9-3 .21875-4.660156C2.708924 43.439548 3.126268 32.5362 3.25 21.625c.02127-.906291.04254-1.812583.064453-2.746338C3.34891 12.194865 2.02434 6.355447 0 0Z" transform="translate(191 49)" style="fill:#3a477d"/><path d="M0 0c-3.152557 1.779002-6.437593 2.796288-9.888184 3.85083C-32.79838 10.94185-50.209136 24.05895-67 41c1.99635-4.325425 4.10244-8.84038 8.25-11.375L-57 29v-2h2v-2l5-2v-2c1.509521-1.15747 1.509521-1.15747 3.621094-2.425781l2.33789-1.416016L-41.5625 15.6875l2.373047-1.435547C-36.803288 12.816326-34.404718 11.404303-32 10l2.320313-1.371338C-24.872892 5.85762-20.186343 3.778816-14.875 2.1875l2.011719-.654297C-8.467173.178238-4.584608-.20839 0 0Z" transform="translate(111 11)" style="fill:#f3f5fb"/><path d="M0 0v2l2 1-2.308594.953125C-16.353826 9.280783-16.353826 9.280783-28 20c-2.625.75-2.625.75-5 1v2c-5.47619 5-5.47619 5-8 5 3.657989-10.861412 16.341499-17.0845 26.016113-22.030762C-2.895116 0-2.895116 0 0 0Z" transform="translate(96 16)" style="fill:#3a4a80"/><path d="m0 0 1.746094 2.199219C7.01252 8.743462 11.950278 14.479883 19.0625 19.0625c4.739904 3.228152 4.739904 3.228152 5.632813 6.433594C24.688208 27.773184 24.415126 29.77054 24 32l-3.402344.988281C13.018526 35.198332 5.46398 37.421534-2 40v-3c7.93711-2.73982 15.737814-5.405543 24-7l1-5h-2l-1-2-2.75-.8125C12.964798 20.621753 10.057944 18.115889 8 14H6v-2H4V8H2V5H0V0Z" transform="translate(86 168)" style="fill:#39467a"/><path d="M0 0c1.062832-.00129 2.125664-.002578 3.220703-.003906l3.376953.011718 3.365235-.011718L13.1875 0l2.960693.003418c2.511963.129394 2.511963.129394 5.511963 1.129394v2c-5.25511 2.593253-9.293389 3.474215-15.125 3.375l-2.089843.035157c-4.426428-.02539-7.272329-.692686-10.785157-3.410157l-1-2C-4.760898-.15666-2.884624.003335 0 0Z" transform="translate(128.339844 167.867188)" style="fill:#ac545e"/><path d="m0 0 3 1-.140625 3.726563C2.82184 6.35935 2.785441 7.992164 2.75 9.625l-.101563 2.449219C2.542975 18.560244 4.353343 21.801955 8.5 26.8125c1.474883 1.340304 1.474883 1.340304 3.625 1.6875L14 29l1 3c-1.625.75-1.625.75-4 1-5.520753-2.936571-9.756336-6.925385-12.125-12.78125-.928964-3.417262-1.14156-6.308315-1.125-9.84375l-.015625-3.351563C-2.010484 4.119331-1.50902 2.455152 0 0Z" transform="translate(68 116)" style="fill:#20140f"/><path d="M0 0c7.75.875 7.75.875 10 2l3-1v3l-2-1 .992188 2.136719c1.09182 3.101953 1.211666 5.403342 1.132812 8.675781l-.054688 2.957031L13 19l-1-2-3 1 1-5-1.875-.9375L4 10l4-1V7c-2.971939 1.124517-5.334407 2.222938-8 4V0Z" transform="translate(188 114)" style="fill:#634030"/><path d="M0 0h1c.997113 11.448337-1.644361 19.540417-8.5625 28.6875C-12.173737 33.7089-18.331677 37.2912-24 41l-1-3 2.449219-2.230469A39444.245547 39444.245547 0 0 0-19.3125 32.8125l1.607422-1.46289c2.547126-2.328355 5.011486-4.66663 7.41211-7.150391C-8 22-8 22-5 21l1-5h2L0 0Z" transform="translate(180 145)" style="fill:#6f4b34"/><path d="M0 0c1.210873 3.487315.75072 5.529893-.375 9C-5.311081 26.10724-3.162515 45.437726-2 63c-1.923823-2.885734-2.356628-4.065616-2.851563-7.351563l-.390625-2.58203L-5.625 50.375l-.40625-2.621094c-1.456163-9.910822-.89253-18.599148.90625-28.441406l.527344-3.048828C-3.594342 10.626532-2.582171 5.164342 0 0Z" transform="translate(24 86)" style="fill:#c4cada"/><path d="M0 0h1c.342038 4.27547.2127 6.596605-1.8125 10.4375L-3 13h-3c-1.467744 5.22884-2.10723 9.531223-2 15l-1 3h-2l.0625 3.4375C-11 38-11 38-12 39c-.229323 2.142294-.395546 4.291401-.535156 6.441406l-.263672 3.955078A29423.899333 29423.899333 0 0 0-13.0625 53.5625a6851.373929 6851.373929 0 0 1-.27539 4.177734C-13.562715 61.15991-13.78322 64.579808-14 68h-1c-.192378-9.137946-.189563-18.16081.875-27.25l.237793-2.0896C-13.362624 34.559892-12.360388 30.892221-11 27c.32025-1.598706.613447-3.20315.875-4.8125C-8.553104 14.059942-4.889749 6.671145 0 0Z" transform="translate(35 63)" style="fill:#414f7e"/><path d="M0 0h4c.66567 6.390424-1.15801 9.935558-5 15-2 2-2 2-5 2l-1-6-5-1V7L0 5V0Z" transform="translate(156 155)" style="fill:#221912"/><path d="M0 0c10.141762 2.557878 20.488618 6.488618 28 14v2c-3.879051-.58082-6.583002-1.744537-9.9375-3.75C11.632963 8.613622 4.995552 6.308022-2 4l2-1V0Z" transform="translate(168 205)" style="fill:#1b1c1c"/><path d="M0 0c1.583575.311275 3.16685.624073 4.75.9375l2.671875.527344C10 2 10 2 11.773682 2.525146c2.845333.606884 5.51598.604669 8.425537.607667l3.666015.003906L27.6875 3.125l3.763672.011719C38.053025 3.129722 44.45749 2.893127 51 2v2c-7.50973 3.203045-14.332018 3.319812-22.374268 2.963867-2.055477-.088533-4.11008-.145224-6.166748-.198242C7.181742 6.26671 7.181742 6.26671 1 3L0 0Z" transform="translate(106 69)" style="fill:#805a41"/><path d="M0 0c3.061887 4.082516 3.372435 4.56498 3.1875 9.25l-.082031 2.703125L3 14l2.6875.1875C10.852561 15.454402 13.132941 18.699412 16 23c.195313 3.355469.195313 3.355469.125 7.1875l-.054688 3.855469L16 37h-1l-.296875-2.195313C13.626472 27.843568 12.491746 22.596428 6.5625 18.1875 3.690507 16.734991 3.690507 16.734991-1 16L0 0Z" transform="translate(190 94)" style="fill:#e3e7ed"/><path d="M0 0c-3.359826 2.239884-6.788648 3.42151-10.5625 4.75-5.923512 2.139733-11.22827 4.580952-16.519531 8.050781C-29 14-29 14-32 15l1 3h-2v-2l-5-2 1.695313-.300781c2.812868-.853396 4.75862-2.219936 7.179687-3.886719C-20.114777 3.982356-10.959888-1.133782 0 0Z" transform="translate(105 203)" style="fill:#ebf0f5"/><path d="M0 0v1l-1.885742.120117c-12.215675.81139-24.108678 1.909394-36.042969 4.734375C-39.936366 6.313552-41.967525 6.667646-44 7l-2-2 7-1 1-3C-25.130178-.880735-12.960964-1.00116 0 0Z" transform="translate(144 27)" style="fill:#364276"/><path d="m0 0-.96875 3.847656c-1.353445 6.082164-1.445957 12.100361-1.597656 18.30664l-.089844 2.591798-.05664 2.33374C-3 29-3 29-5 31l-3-1v-2h3l-.5-3.4375c-.526431-4.830778-.680576-9.644896-.75-14.5-.02127-.757888-.04254-1.515776-.064453-2.29663C-6.328125 5.597655-6.328125 5.597655-6 2c3-2 3-2 6-2Z" transform="translate(90 118)" style="fill:#160a04"/><path d="m0 0 1 3c-1.602905.814986-3.207373 1.6269-4.8125 2.4375l-2.707031 1.371094C-13.79664 10.303898-22.077112 10.0507-29.777344 7.98828-32.985973 6.807648-36.023994 5.68498-39 4l-1-3 4.125 1.375 2.5.828125c1.841164.617759 3.67276 1.264069 5.5 1.921875 6.22487 1.894526 10.816506 2.004928 17.0625.125l3.605469-1.046875C-4.291534 3.109369-2.337303 2.018317 0 0Z" transform="translate(154 183)" style="fill:#7a5540"/><path d="m0 0 1 2 3 1-2 8H0l-.1875 2.1875c-1.357333 4.69846-4.618226 7.042857-8.625 9.625L-11 24c1.641548-5.682281 1.641548-5.682281 3.375-7.21875 2.487638-2.726834 3.525477-6.065288 4.8125-9.46875l.826172-2.126953C-1.317145 3.459757-.657615 1.73023 0 0Z" transform="translate(176 150)" style="fill:#7f4c2b"/><path d="M0 0v16l-4-1-1-4h-2l-1-9c5.75-2 5.75-2 8-2Z" transform="translate(152 192)" style="fill:#76462c"/><path d="m0 0-1 5h-2l-1 3c-2.66084 1.993963-5.612423 4-9 4v2h-2l-1 8h-2l-.375 2.375C-19 27-19 27-21 29c-1.217883-3.653648-.648972-4.391446.875-7.8125 1.36573-3.137984 2.12056-5.107585 2.3125-8.5625C-17 10-17 10-15.121094 8.925781c1.597308-.665764 3.206029-1.304705 4.824219-1.917969C-7.029529 5.574181-5.315707 3.677536-3 1c1-1 1-1 3-1Z" transform="translate(205 142)" style="fill:#404c7f"/><path d="m0 0 1 3c-13.805556 13-13.805556 13-19 13l.070313 1.898438L-17.875 20.375l.070313 2.460938C-18 25-18 25-20 27c-.66954-4.49741-.93314-8.528266 0-13 3.18311-3.24724 6.988064-4.937453 11-7 1.760542-1.270105 3.493126-2.580382 5.1875-3.9375l2.230469-1.777344L0 0Z" transform="translate(176 175)" style="fill:#e0e4ee"/><path d="M0 0h2c.8125 1.632813.8125 1.632813 1 4C1.401317 6.173967-.126368 7.965803-2 9.875l-1.524658 1.606445C-7.145545 15.2512-10.91597 18.732776-15 22l-2-1 1-3h3v-4l4-1v-3c1.375-1.6875 1.375-1.6875 3-3h2V4h2V2h2V0Z" transform="translate(224 191)" style="fill:#55618d"/><path d="M0 0c9.780875 3.567978 25.10446 13.20892 30 23-2.875-.3125-2.875-.3125-6-1-2-3-2-3-2.8125-5.125-1.075283-2.157779-1.075283-2.157779-3.8125-2.625L15 14v-3l-2.519531-.628906C3.710395 7.884679 3.710395 7.884679 1.535156 5.17578.75 3.25.75 3.25 0 0Z" transform="translate(190 23)" style="fill:#6d77a0"/><path d="M0 0c.943208 9.589282-2.868326 16.318114-8.8125 23.6875L-11 26h-1v-6h2l1-3 2 1-.125-2.8125C-7 12-7 12-5 9l1-3.5625C-2.418182 0-2.418182 0 0 0Z" transform="translate(239 167)" style="fill:#404e84"/><path d="M0 0c1.125 3.75 1.125 3.75 0 6h-2l-.292969 1.847656c-.863683 2.629225-1.701728 3.155486-4.019531 4.589844-2.492953 1.646768-3.860824 2.783094-5.75 5.1875C-14 20-14 20-17.125 21.375c-3.253715 1.432026-3.253715 1.432026-4.25 5.3125L-22 30h-1c-.905795-3.274796-1.05196-5.74488 0-9 2.472541-2.157854 4.937819-3.81961 7.716553-5.53711C-9.157955 11.644143-3.279727 6.559457 0 0Z" transform="translate(182 170)" style="fill:#424f7f"/><path d="M0 0c-5.625 5-5.625 5-9 5l.534912 2.08667c.535354 3.353478.291543 6.153584-.093506 9.526611l-.419922 3.779297L-9.4375 24.3125a3761.582781 3761.582781 0 0 0-.447266 3.978516C-10.249683 31.528183-10.62167 34.764377-11 38h-2l.183594-2.902344.119629-1.924316c.09053-1.423125.18535-2.845982.28418-4.268555.259874-3.8527.438402-7.679571.455566-11.541504.139933-11.01798.139933-11.01798 2.4375-14.800781C-6.223776-.473249-4.359897-1.52067 0 0Z" transform="translate(105 69)" style="fill:#78543d"/><path d="M0 0c-2.964146 3.213556-6.455215 5.29011-10.136719 7.597656L-12 9c-.235702 2.235702-.235702 2.235702 2 4-4.244805.332926-6.355426.438859-9.9375-2L-22 9c2.720088-1.495564 5.443169-2.985046 8.171875-4.464844C-11.754379 3.40949-9.687631 2.270906-7.625 1.125-4.854448-.06238-2.981148-.263042 0 0Z" transform="translate(96 212)" style="fill:#f6f6f8"/><path d="m0 0 6.640625 2.246094L9 3l1.8125.59375c3.301.613043 6.593956.509833 9.9375.46875l2.113281-.013672C24.575558 4.0371 26.287791 4.019167 28 4c-1.636052 1.987384-2.515173 2.915879-5.09375 3.363281-5.744554-.121232-11.132329-.817124-16.753906-2.023437L4 5C2.713873 6.05979 2.713873 6.05979 2.902344 8.503906L2.9375 11.5625l.027344 3.066406L3 17l-3-1V0Z" transform="translate(117 191)" style="fill:#76533f"/><path d="m0 0 1.6875 1.125c-1.247356.650926-2.498018 1.295517-3.75 1.9375l-2.109375 1.089844C-7.915917 5.85356-11.21355 6.281258-15.3125 6.3125l-2.5625.042969c-2.591586-.245038-4.20775-.92462-6.4375-2.230469l1-3 3.324219.070313c1.45442.018766 2.908848.036965 4.363281.054687l2.185547.050781c3.280105.029956 5.839425-.058174 8.896484-1.308593C-2.3125-.875-2.3125-.875 0 0Z" transform="translate(150.3125 171.875)" style="fill:#46120e"/><path d="m0 0 2 1v3l3.25.4375C7.91663 4.837494 10.413997 5.27592 13 6c.192944 4.823602-.242524 8.496467-2 13-1-4-1-4 1-12h-24c3.39955-4.532734 4.71532-4.750894 10-6l2-1Z" transform="translate(149 147)" style="fill:#8b6246"/><path d="M0 0h1v17l-3.75 1.625C-6.876275 20.673557-8.747667 22.928475-11 27l-2 3c-1.125-5.75-1.125-5.75 0-8l3-1 2-3h2v-2l2-1c.730756-2.314062 1.401383-4.648289 2-7h1l1-8Z" transform="translate(76 90)" style="fill:#465486"/><path d="M0 0v2l-1.617188.487305C-4.080429 3.23416-6.540164 3.992006-9 4.75l-2.542969.765625C-17.017273 7.213084-21.939419 9.305709-27 12V8C-9.515393-.47577-9.515393-.47577 0 0Z" transform="translate(116 31)" style="fill:#e3e9f1"/><path d="M0 0c1.729077-.027253 3.458282-.04651 5.1875-.0625l2.917969-.035156C10.855765-.004866 13.324796.378884 16 1c-1 3-1 3-4 5-2.917969.195313-2.917969.195313-6.1875.125l-3.292969-.054688L0 6V0Z" transform="translate(146 105)" style="fill:#1d1206"/><path d="M0 0c1.9375.375 1.9375.375 4 1 2.567877 5.135754 1.86829 13.37617.105469 18.703125C3 21.875 3 21.875 1 25l-2-3 .875-2.5C1.919017 13.140836 1.46228 6.46913 0 0Z" transform="translate(199 117)" style="fill:#37312c"/><path d="M0 0h1c1.873877 9.770928 2.228673 19.103551 2 29h-6v-2l2-1L0 0Z" transform="translate(77 81)" style="fill:#eaeff5"/><path d="m0 0 3.867188.332031L5.89746.501953c6.173493.56583 11.95905 1.680686 17.844727 3.642578v5l-4 1-.6875-1.875c-1.797535-2.910294-3.020215-3.140708-6.3125-4.125-3.265923-.373768-6.528546-.507453-9.8125-.625L.251952 3.402344c-2.169595-.09382-4.339651-.176886-6.509765-.257813C-3.994733.541776-3.651295.161988 0 0Z" transform="translate(153.257813 100.855469)" style="fill:#885e43"/><path d="M0 0v2l2 1c-3.993052 1.683737-7.994623 3.345818-12 5l-2.4375 1.035156C-16.105712 10.528841-18.225838 11.208394-22 10c2.394118-1.294932 4.790179-2.586022 7.1875-3.875l2.041016-1.105469C-3.416904 0-3.416904 0 0 0Z" transform="translate(96 16)" style="fill:#475487"/><path d="M0 0c9.332084.16557 16.612298 1.904384 25 6v1c-5.287822-.537745-10.550914-1.1833-15.8125-1.9375l-3.269531-.464844C3.261986 4.05366 1.330693 3.348754-1 2l1-2Z" transform="translate(154 11)" style="fill:#757fa3"/><path d="M0 0h23v1l-6 1 1 5-9-1V4L0 1V0Z" transform="translate(100 112)" style="fill:#7f583f"/><path d="M0 0c2.5625.1875 2.5625.1875 4.5625 2.1875.25 2.5.25 2.5 0 5-2 2-2 2-4.5 2.25-2.5-.25-2.5-.25-4.5-2.25C-3.733386.287184-3.733386.287184 0 0Z" transform="translate(157.4375 116.8125)" style="fill:#341706"/><path d="m0 0 3.714844.292969C6.658368.749782 8.55 1.282332 11.0625 2.8125c-2 2-2 2-4.828125 2.265625L2.8125 5.0625l-3.390625.015625C-3.998533 4.807675-6.743288 4.032108-9.9375 2.8125-7.20702-1.058181-4.427532-.3949 0 0Z" transform="translate(130.9375 210.1875)" style="fill:#231a16"/><path d="M0 0c3.125.375 3.125.375 6 1 .625 2.875.625 2.875 1 6-2 2-2 2-4.5 2.25C0 9 0 9-2 7c-.25-2.5-.25-2.5 0-5l2-2Z" transform="translate(110 117)" style="fill:#271407"/><path d="M0 0h1c.700205 5.001463 1.133875 9.95765 1.4375 15 .25903 3.918882.5631 7.591046 1.625 11.375C5.123999 30.479462 5.15059 33.78346 5 38H4C-1.438001 25.788774-.397447 13.077547 0 0Z" transform="translate(21 120)" style="fill:#3c4b81"/><path d="M0 0h2l.078125 2.308594C2.637936 12.499702 5.070843 19.493414 12 27H5c-1-3-1-3-1.375-5.1875-.577648-3.01377-.577648-3.01377-2.1875-6.4375C-.55467 10.326881-.265332 5.345947 0 0Z" transform="translate(61 122)" style="fill:#3c4b7f"/><path d="M0 0h1l1 8 1.25-1.5C5 5 5 5 9 5v2L6 8c-.082267 3.043867.023918 5.071753 1 8H3l-1 6H1c-.142857-7.428571-.142857-7.428571 1-11H0V0Z" transform="translate(187 116)" style="fill:#371d10"/><path d="m0 0 .839844 3.175781C1.20568 4.554701 1.571568 5.933606 1.9375 7.3125l.552734 2.091797C3.259326 12.298878 4.052616 15.157847 5 18H3l-1 2c-4.124804-9.362345-4.124804-9.362345-4.625-14.5625L-3 2l-2-1c1-1 1-1 5-1Z" transform="translate(85 150)" style="fill:#e3e7ed"/><path d="M0 0c5.632816-.239694 10.545388.614702 16 2v2l3-1c3.1875 1.4375 3.1875 1.4375 6 3l-1 3-2.097656-.875C18.822227 6.931092 15.725 5.953593 12.5625 5 8.352255 3.727482 4.167074 2.40788 0 1V0Z" transform="translate(156 29)" style="fill:#435280"/><path d="m0 0 8 1v4c-2.43879 2.373465-5.18276 4.063147-8 6V0Z" transform="translate(188 114)" style="fill:#664835"/><path d="M0 0h1c.342038 4.27547.2127 6.596605-1.8125 10.4375L-3 13h-3l-.875 3.875C-7.541025 19.824539-7.802026 20.802026-10 23c.86216-8.40606 5.049585-16.246089 10-23Z" transform="translate(35 63)" style="fill:#acb2ca"/><path d="M0 0h5L1 9h-2l-1 19h-1c-.08821-3.166487-.14079-6.33265-.1875-9.5l-.076172-2.6875C-3.329802 9.816733-2.441319 5.484958 0 0Z" transform="translate(81 52)" style="fill:#454647"/><path d="M0 0v1l15 1v1l-2.092041.075928c-3.156973.116729-6.313704.239104-9.470459.361572l-3.291016.11914C-5.304107 3.772015-10.620754 4.081593-16 5l3-1V2l-2-1C-9.949978-.035902-5.125836-.102517 0 0Z" transform="translate(129 29)" style="fill:#ced3db"/><path d="m0 0 2.783203-.007813L5.69922.015626l2.88086-.023438c8.620365.024097 8.620365.024097 12.80664 2.273438v1c-9.367498.18209-18.658731-.38674-28-1C-4.141485-.206171-3.401635.009163 0 0Z" transform="translate(133.613281 28.734375)" style="fill:#f3f9fc"/><path d="M0 0c2.621391.26214 3.754414.743553 5.589844 2.660156C7.367524 5.609825 7.501499 7.82758 7.6875 11.25l.199219 3.265625L8 17H6l-1-6-4 1 2-8-4-3 1-1Z" transform="translate(75 121)" style="fill:#33180b"/><path d="M0 0c4.229152-.029086 8.458279-.046828 12.6875-.0625l3.63086-.02539 3.505859-.009766 3.221435-.01587C25.813451-.007167 28.30793.371053 31 1v2c-24.729304.369707-24.729304.369707-31-3Z" transform="translate(123 10)" style="fill:#374578"/><path d="M0 0c6.09781-.220846 11.21643-.011677 17 2-2 2-2 2-4.679688 2.265625L9.125 4.25l-3.179688.015625C3.08401 4.007576 1.427232 3.477445-1 2l1-2Z" transform="translate(127 169)" style="fill:#d25664"/><path d="M0 0h2C3.070342 8.868545-.505982 15.598087-5 23l-2 1c.282119-1.626685.576024-3.251329.875-4.875l.492188-2.742188C-5 14-5 14-3 12l1 1L0 0Z" transform="translate(183 149)" style="fill:#2a241e"/><path d="m0 0 2.269287.01587L4.72046.025634l2.576172.02539 2.58789.013672c2.116566.011825 4.233097.02976 6.34961.048828v1l-2.371094.148438-3.066406.226562-3.058594.210938-2.503906.414062-1 2 4 2h-10c-.382188-1.656146-.713951-3.32457-1-5 1-1 1-1 2.765869-1.113525Z" transform="translate(102.76587 104.886475)" style="fill:#180c04"/><path d="M0 0h1c.08145 2.708948.140706 5.415413.1875 8.125l.076172 2.304688C1.327975 15.402425.655944 18.636164-2 23l-3-2 .9375-2.3125c1.177055-4.085074 1.481838-7.872678 1.71875-12.101563C-1.996544 3.974006-1.316406 2.261246 0 0Z" transform="translate(206 119)" style="fill:#d4dae6"/><path d="M0 0h1c.747517 5.793255 1.168914 11.600417 1.375 17.4375l.148438 3.558594C2 24 2 24-.523439 25.910156L-3 27l-4-3h3l1-4 1 2h3l-.496094-1.949219C-.153347 16.071598-.106353 12.211856-.0625 8.1875l.013672-2.388672C-.037113 3.865852-.01918 1.932916 0 0Z" transform="translate(176 88)" style="fill:#6d4933"/><path d="m0 0-1.726563 1.292969C-3.2106 2.407273-4.685123 3.534397-6.148436 4.67578-8.386344 6.320838-10.49904 7.786235-13 9c-3.5625-.625-3.5625-.625-6-2 2.332141-1.20628 4.496421-2.165474 7-3l1-2C-7.473032-.441747-4.174471-.160557 0 0Z" transform="translate(84 208)" style="fill:#4b5781"/><path d="M0 0c6.823347-.272934 11.778278 1.438114 18 4v2h4l1 3-2 1c-2.503906-1.109375-2.503906-1.109375-5.5625-2.75C10.3601 4.616367 5.471355 2.641406 0 1V0Z" transform="translate(170 202)" style="fill:#475685"/><path d="m0 0 2 1C2.843908 9.439081.14181 18.438121-4.667969 25.421875L-6 27c-.1875-3.3125-.1875-3.3125 0-7l1.441406-1.433594C-2.54116 16.53886-2.352578 15.046003-1.875 12.25l.46875-2.664063C-.904691 6.393321-.41801 3.20475 0 0Z" transform="translate(245 147)" style="fill:#838dae"/><path d="M0 0c4.103357.157821 6.336446.404503 9.4375 3.1875C12.44307 8.367311 11.283581 15.2496 11 21h-1l-.296875-2.195313C8.443253 10.658964 6.117163 5.680224 0 0Z" transform="translate(195 110)" style="fill:#e4eaf3"/><path d="M0 0h1v12c-5.324335 2.320864-9.438426 1.91457-15 1 2.719395-1.457693 5.247543-2.424427 8.25-3.125L-2 9l2-9Z" transform="translate(113 190)" style="fill:#dbd9da"/><path d="M0 0h1v5l-3.6875.125c-2.550198.296848-3.89966.499691-5.816406 2.242188C-9.677603 8.905134-10.839214 10.452285-12 12c-2.3125.875-2.3125.875-4 1 1.394937-4.438434 3.518982-6.943496 7-10l3-1v2h6V0Z" transform="translate(80 106)" style="fill:#dae1eb"/><path d="M0 0v2c-1.413969.507579-2.831317 1.00575-4.25 1.5l-2.390625.84375C-9 5-9 5-13 5V3h-19V2l2.016113-.075928c3.036462-.116583 6.07266-.239026 9.108887-.361572l3.171875-.11914C-11.782855 1.199803-5.874814 0 0 0Z" transform="translate(157 71)" style="fill:#6b4a34"/><path d="M0 0c1 2 1 2 .875 3.8125C-.375894 6.939735-2.581413 8.699393-5 11l-2 3c-1.967528 1.062465-3.965876 2.071378-6 3 2.163893-6.688396 7.070908-11.207827 12-16l1-1Z" transform="translate(49 46)" style="fill:#7d86a6"/><path d="M0 0h1c2.581732 11.991183 2.581732 11.991183 1 17l-2 1C-1.800473 12.486053-3.307044 7.18592-1 1.5625L0 0Z" transform="translate(87 144)" style="fill:#241810"/><path d="m0 0 1.9375 2C3.640823 4.116024 3.640823 4.116024 5 4c.38991 1.934555.761453 3.872818 1.125 5.8125l.632813 3.269531C7 16 7 16 5 19c-.843343-2.225824-1.674786-4.45496-2.5-6.6875l-.722656-1.896484C.458727 6.818077-.293292 3.834797 0 0Z" transform="translate(22 149)" style="fill:#5f6a9a"/><path d="M0 0c-1.4463 4.579952-1.4463 4.579952-3.8125 6.375C-6.681684 7.194767-8.17308 6.96529-11 6c-2.8125-2.0625-2.8125-2.0625-5-4h5v2C-.428571 0-.428571 0 0 0Z" transform="translate(208 210)" style="fill:#4f5c8b"/><path d="M0 0c-5.193313 3.462209-10.568175 3.208656-16.625 3.25l-2.3125.0625c-5.592898.039248-5.592898.039248-8.085938-1.828125C-27.345703.994531-27.667967.504687-28 0l3 .5c6.996498.967452 12.968343.480916 19.800781-1.160156C-3-1-3-1 0 0Z" transform="translate(150 208)" style="fill:#7c5741"/><path d="M0 0c.75 1.6875.75 1.6875 1 4-2.564382 4.205586-5.410206 6.278827-10 8-2.375-.3125-2.375-.3125-4-1l3-1c1.711087-1.62103 3.372533-3.295035 5-5l5-5Z" transform="translate(202 139)" style="fill:#dce4eb"/><path d="M0 0c-2.605607 3.286932-5.300828 3.812983-9.3125 4.6875l-3.363281.761719C-15.856574 5.976236-18.783538 6.102187-22 6l1-2c2.040365-.583795 4.109692-1.068004 6.1875-1.5 3.473932-.730518 6.76042-1.481756 10.113281-2.65625C-2-1-2-1 0 0Z" transform="translate(164 67)" style="fill:#1f0f04"/><path d="m0 0 3 1-1 15H1l-1-5-1 6h-1c-.054183-2.083045-.092876-4.166498-.125-6.25l-.070313-3.515625C-2.010394 4.17214-1.60823 2.557972 0 0Z" transform="translate(68 116)" style="fill:#392e29"/><path d="M0 0h16v3c-1.916352.054236-3.83315.0929-5.75.125l-3.234375.070313C4.075299 3.004876 2.476381 2.5267 0 1V0Z" transform="translate(122 192)" style="fill:#1a0704"/><path d="M0 0h1c.057918 3.124923.093567 6.249708.125 9.375l.050781 2.695313c.006446.85078.01289 1.701562.019532 2.578124l.031738 2.380372C1 19 1 19-1 21l-3-1v-2h3l-.289063-2.921875L-1.625 11.25l-.351563-3.796875C-1.998886 4.164131-1.77961 2.689792 0 0Z" transform="translate(86 128)" style="fill:#260e04"/><path d="M0 0c3.630463 1.561944 6.211932 3.789652 9.125 6.4375l2.632813 2.371094C14 11 14 11 16 14c-2.875-.3125-2.875-.3125-6-1-2-3-2-3-2.8125-5.125C6.112217 5.717221 6.112217 5.717221 3.375 5.25L1 5 0 0Z" transform="translate(204 32)" style="fill:#7683aa"/><path d="M0 0c-3.443581 1.81509-6.995324 3.223929-10.625 4.625l-3.476563 1.351563C-17 7-17 7-19 7V4c2.412673-.867242 4.829045-1.71897 7.25-2.5625l2.066406-.748047C-3.416578-1.470537-3.416578-1.470537 0 0Z" transform="translate(103 201)" style="fill:#424d7f"/><path d="M0 0h22l-4 1-1 2V1h-2l-1 4-6-1 3-1C7.37918 1.98617 3.721886 1.501023 0 1V0Z" transform="translate(147 112)" style="fill:#895f43"/><path d="m0 0 1 2h-21c6.572469-3.286234 12.845962-3.549368 20-2Z" transform="translate(127 11)" style="fill:#4f5a8b"/><path d="M0 0c0 3 0 3-1.19336 4.442139l-1.65039 1.47583-1.777344 1.611328L-6.5 9.1875l-1.878906 1.69336C-9.912684 12.26126-11.455508 13.631596-13 15l-2-1 1-3h3V7l2.6875-.6875C-4.566195 4.828115-2.662706 2.975965 0 0Z" transform="translate(222 198)" style="fill:#a1a7c2"/><path d="m0 0 5 2 2-2h3v7C2.183635 5.082778 2.183635 5.082778 0 2V0Z" transform="translate(74 139)" style="fill:#7b5c44"/><path d="M0 0c-2.302833 2.541314-4.673138 4.071103-7.6875 5.6875l-2.449219 1.324219L-12 8V6l-3-1c1.55576-.84585 3.119961-1.676184 4.6875-2.5l2.636719-1.40625C-4.882111-.048188-2.98371-.215042 0 0Z" transform="translate(96 212)" style="fill:#eeeff1"/><path d="M0 0h13v2C6.458416 5.651117.361204 5.298876-7 5V4l2.589844-.183594L-1.0625 3.5625l3.339844-.246094C4.911099 3.29582 4.911099 3.29582 6 2L0 1V0Z" transform="translate(137 169)" style="fill:#b95f66"/><path d="m0 0 .9375 1.9375C1.834516 3.936108 1.834516 3.936108 3 5c.073196 2.696549.092425 5.366915.0625 8.0625l-.013672 2.298828C3.037007 17.240918 3.019071 19.12047 3 21H2C-.212117 13.948876-.20177 7.353422 0 0Z" transform="translate(180 123)" style="fill:#6b452e"/><path d="m0 0 4 1-2.25 1.625C-1.195986 5.16926-2.964005 7.700284-5 11l-2 3c-1.125-5.75-1.125-5.75 0-8l3-1 2-3h2V0Z" transform="translate(70 106)" style="fill:#3f4f81"/><path d="m0 0 1.5625 1.0625C4.940067 2.361564 7.50468 1.672177 11 1L5 8 1 7 0 0Z" transform="translate(194 214)" style="fill:#e6e9f1"/><path d="M0 0c-2.219282 2.908025-3.929691 4.953128-7 7-2.1875-.375-2.1875-.375-4-1V4c1.644531-1.324219 1.644531-1.324219 3.8125-2.6875l2.144531-1.386719C-3-1-3-1 0 0Z" transform="translate(84 214)" style="fill:#1b1c19"/><path d="M0 0c1 3 1 3 .3125 5.5625C-1.186246 8.345886-2.162484 8.810074-5 10l-1 2h-3v2h-2c1.564713-3.84066 4.060341-6.130333 7-9 1.355553-1.648645 2.696317-3.31004 4-5Z" transform="translate(176 167)" style="fill:#1a0d06"/><path d="M0 0h2v2h2l.988281 1.828125L6.3125 6.25l1.300781 2.390625C8.939621 10.897271 10.388842 12.939986 12 15H9c-2.007813-2.265625-2.007813-2.265625-4.125-5.25L2.742187 6.796875C1.245415 4.393982.433092 2.756043 0 0Z" transform="translate(91 161)" style="fill:#77523c"/><path d="m0 0 2 1v3l2 2H-9V4c1.453819-.696996 2.91323-1.382339 4.375-2.0625L-2.164062.777344 0 0Z" transform="translate(149 147)" style="fill:#915f3c"/><path d="M0 0h5L3 2 1 1l2 3c.125 2.6875.125 2.6875 0 5l-4 2c-1.600802-4.002004-.292797-7.045562 1-11Z" transform="translate(145 133)" style="fill:#7c533b"/><path d="m0 0 1 3c-.90675.988357-1.82589 1.965355-2.75 2.9375l-1.546875 1.652344C-5.193781 9.160447-6.597012 9.587313-9 10-7.6835 5.811134-4.975323 0 0 0Z" transform="translate(91 43)" style="fill:#121314"/><path d="M0 0h1v9l8 1-2 1v2l-9-1L0 0Z" transform="translate(158 191)" style="fill:#dadfe8"/><path d="m0 0 2.4375.0625-3 1 1 2.875c1 3.125 1 3.125 1 5.125l1 3-2 1c-4.670141-7.443038-4.670141-7.443038-4-12 1-1 1-1 3.5625-1.0625Z" transform="translate(113.5625 155.9375)" style="fill:#21110a"/><path d="M0 0h2l.367188 2.992188L2.875 6.875l.492188 3.867188C3.698774 14.071642 3.698774 14.071642 6 16l-1 3v-2l-3-1C.16918 10.50754-.205681 5.75908 0 0Z" transform="translate(88 144)" style="fill:#835d43"/><path d="m0 0-2 4V2h-2v2l-7 2-2-2C-8.486493.477262-5.716583-.457327 0 0Z" transform="translate(163 207)" style="fill:#b9bbbc"/><path d="m0 0 3 1c1.155404 2.968194 1.134524 5.90542 1.125 9.0625l.007813 2.597656C4 15 4 15 3 18H1l.035156-2.667969L1.0625 11.8125l.035156-3.480469C1.011928 5.406994.67849 2.836837 0 0Z" transform="translate(199 117)" style="fill:#190b05"/><path d="M0 0c1.599797 3.999492.301925 7.380323-.875 11.3125C-2.305251 16.200013-3.3856 20.947546-4 26h-1c-.505105-8.250048.357834-19.03675 5-26Z" transform="translate(24 86)" style="fill:#f3f5fa"/><path d="M0 0h9l1 4-5 1V3l-6-1 1-2Z" transform="translate(158 204)" style="fill:#0c0d0f"/><path d="M0 0v20c-2.985717-4.478575-3.13801-7.846886-3.125-13.1875l-.007813-3.230469C-2.948562 0-2.948562 0 0 0Z" transform="translate(67 118)" style="fill:#eeeff4"/><path d="M0 0c3.331614 2.986964 5.348266 5.827197 7 10-.3125 2.375-.3125 2.375-1 4C2.193397 9.68585 0 5.846234 0 0Z" transform="translate(187 45)" style="fill:#d3dbeb"/><path d="M0 0c3.22534 3.22534 4.774212 7.543985 5.191406 12.082031C5.188065 13.722591 5.102336 15.362631 5 17H2l-.183594-2.195313C1.385166 9.828836.929524 4.913198 0 0Z" transform="translate(240 76)" style="fill:#9097b8"/><path d="m0 0 3.320313.027344L5.875.0625l1 2-15 1v-2C-5.36048-.31976-3.078864-.032754 0 0Z" transform="translate(138.125 161.9375)" style="fill:#151213"/><path d="M0 0c2.742167 1.235108 3.918872 1.889898 5.75 4.375C7.545795 9.582805 7.238384 14.543653 7 20H6l-.296875-2.34375C4.745021 10.982558 3.371385 5.843735 0 0Z" transform="translate(202 111)" style="fill:#3b487a"/><path d="M0 0c4.014767 6.022151 4.285738 11.999431 4 19-2.046067-3.0691-2.509133-4.806882-3.125-8.375L.367187 7.789062C.020095 5.15263-.067582 2.655036 0 0Z" transform="translate(243 90)" style="fill:#39467f"/><path d="M0 0c2 3 2 3 1.625 5.6875L1 8h-2l.1875 3.25C-1.005433 15.108662-1.39665 16.288178-4 19c.53951-6.689932 1.887062-12.634607 4-19Z" transform="translate(25 86)" style="fill:#58658e"/><path d="M0 0h1v14l4 1-2 1 2 2-5 1c-1.35863-3.904802-.894697-7.710178-.5625-11.75l.158203-2.113281C-.275259 3.424038-.138404 1.711949 0 0Z" transform="translate(155 189)" style="fill:#2c2b29"/><path d="M0 0v16h-1L-2 4h-5l-1-2c5.75-2 5.75-2 8-2Z" transform="translate(152 192)" style="fill:#644534"/><path d="M0 0h5l1 2c2.586053.468326 2.586053.468326 5.5625.625l3.066406.226563L17 3v1c-2.249934.027071-4.499961.046428-6.75.0625l-3.796875.035156C3.714635 4.02021 1.581197 3.827808-1 3l1-3Z" transform="translate(123 219)" style="fill:#373737"/><path d="M0 0h1l3 12H2l-1 3-2-2c.023438-3.039063.023438-3.039063.375-6.625l.335938-3.601563L0 0Z" transform="translate(82 155)" style="fill:#465588"/><path d="M0 0c1.107092 3.321276.876748 4.6956.1875 8.0625l-.519531 2.660156C-1 13-1 13-3 15c-.097463-4.775679.061287-9.306437 1-14l2-1Z" transform="translate(244 151)" style="fill:#3f4d85"/><path d="m0 0-1 2h-6l3 11-4-2V1C-5.291207-.354397-2.990667-.065015 0 0Z" transform="translate(116 152)" style="fill:#805940"/><path d="m0 0 12 3C8 5 8 5 5 6 1.8125 4.0625 1.8125 4.0625-1 2l1-2Z" transform="translate(73 146)" style="fill:#e0e5e9"/><path d="M0 0h1c.249425 2.416114.475075 4.830591.6875 7.25l.220703 2.066406c.273504 3.314223.338009 5.270426-1.388672 8.167969L-1 19l-2-1 .960938-1.546875C-.660238 13.197853-.570642 10.271569-.375 6.75l.226563-3.828125L0 0Z" transform="translate(207 122)" style="fill:#515e8d"/><path d="M0 0c3.262688 3.086326 6.022352 5.934835 8 10l-1 2C1.215385 7.938462 1.215385 7.938462.125 3.1875L0 0Z" transform="translate(228 56)" style="fill:#919ab7"/><path d="m0 0 5 5 1.8125 1.6875C8 8 8 8 8 10c-3.299361-.568855-4.760243-1.546933-7-4H0V0Z" transform="translate(220 46)" style="fill:#8891ad"/><path d="M0 0c-2.994249 1.643355-5.784631 2.552013-9.125 3.25l-2.632813.578125L-14 4l-2-2c1.72493-.534698 3.455198-1.052192 5.1875-1.5625l2.917969-.878906C-4.872474-1.02461-2.940701-.811784 0 0Z" transform="translate(114 30)" style="fill:#485684"/><path d="m0 0-2 3c-2.62697.221374-5.00894.28162-7.625.1875l-2.140625-.041016C-13.510741 3.11111-15.255466 3.057302-17 3l1-2C-10.80342-.182055-5.30442-.11286 0 0Z" transform="translate(122 27)" style="fill:#3a4782"/><path d="M0 0c7.625.875 7.625.875 11 2l-1 3L0 2V0Z" transform="translate(165 202)" style="fill:#e7eef3"/><path d="M0 0h1c.338957 1.728073.670915 3.45752 1 5.1875l.5625 2.917969C2.968776 10.79342 3.079336 13.28771 3 16l-3-1V0Z" transform="translate(67 121)" style="fill:#160d0b"/><path d="M0 0v3l-6 3-2-4C-4.772084-.151944-3.715992-.200864 0 0Z" transform="translate(98 40)" style="fill:#1f201f"/><path d="M0 0h2C.541444 3.686461-1.30229 5.16144-4.625 7.25l-2.476563 1.578125L-9 10c.57345-2.867247.861451-3.861452 3-6l2 1V3h3l1-3Z" transform="translate(171 176)" style="fill:#262220"/><path d="M0 0c2.038334 1.273959 4.038521 2.61062 6 4v2l3 1c-4.056062-.468007-7.465887-.879532-11-3V2h2V0Z" transform="translate(120 169)" style="fill:#370c08"/><path d="M0 0c3.969126.350217 6.815152 1.701788 9.839844 4.324219C12.066115 7.539944 11.439027 11.268273 11 15h-1l-.410156-2.046875C8.43117 7.645695 8.43117 7.645695 5.242188 3.445312 3.129439 2.22606 3.129439 2.22606 0 1V0Z" transform="translate(160 147)" style="fill:#52250a"/><path d="m0 0 9 2v1L4 4l4 2C3.131037 5.4038-1.32791 4.430232-6 3V2h6V0Z" transform="translate(129 144)" style="fill:#432311"/><path d="M0 0v12l-3 1c-.026866-1.979094-.046334-3.95829-.0625-5.9375l-.035156-3.339844C-2.964132 0-2.964132 0 0 0Z" transform="translate(189 127)" style="fill:#5f4539"/><path d="M0 0v2h5l1 3-3.5-1.0625C-1.98343 2.792624-5.472146 3.191455-10 4l1-3c3.058478-.54373 5.887728-1 9-1Z" transform="translate(108 66)" style="fill:#2a160b"/><path d="M0 0h2v17H1l-.183594-1.757813C.431318 11.651986.021334 8.117337-.625 4.5625-1 2-1 2 0 0Z" transform="translate(80 61)" style="fill:#1a191c"/><path d="M0 0c4.344645.60825 8.675519 1.261674 13 2v2h3l-1 2c-1.752807-.426114-3.502174-.866393-5.25-1.3125l-2.953125-.738281C4.010243 3.003476 2.226956 1.892913 0 0Z" transform="translate(166 16)" style="fill:#34437e"/><path d="M0 0c3.53586 3.173208 5.58578 5.167437 6 10-1.149263-.954218-2.294305-1.91352-3.4375-2.875L.628906 5.507812C-1 4-1 4-2 2h2V0Z" transform="translate(51 198)" style="fill:#636e97"/><path d="m0 0 4 1C2.557463 4.365919.667353 6.51047-2 9V3h2V0Z" transform="translate(229 184)" style="fill:#7e8bad"/><path d="M0 0c2.00721.286744 4.008594.618667 6 1L5 5 0 6c-.382188-1.656147-.713951-3.32457-1-5l1-1Z" transform="translate(74 115)" style="fill:#83593f"/><path d="m0 0 1.6875.75c-5.625 5-5.625 5-9 5l-1 2C-7.980358 4.650013-7.257999 3.695499-5 1.4375-2.3125-.25-2.3125-.25 0 0Z" transform="translate(103.3125 68.25)" style="fill:#7d5a41"/><path d="m0 0-1 3h-12C-8.218522.60926-5.278197-.117293 0 0Z" transform="translate(170 68)" style="fill:#7a553f"/><path d="m0 0 3.855469.335938L6.8125.625v1l-2.046875.183594L2.0625 2.0625c-.881719.08121-1.763437.162422-2.671875.246094-2.53501.234307-2.53501.234307-4.71875.976562C-7.1875 3.625-7.1875 3.625-10.1875 1.625-6.352075-.93195-4.528475-.415456 0 0Z" transform="translate(131.1875 210.375)" style="fill:#322016"/><path d="M0 0c1.305239 3.915717.322398 5.03893-1.4375 8.6875l-1.433594 3.011719L-4 14h-1c-.37049-6.545309-.37049-6.545309 1.375-8.6875L-2 4C-.824253 1.900103-.824253 1.900103 0 0Z" transform="translate(244 160)" style="fill:#adb6cd"/><path d="M0 0h10L9 3H1L0 0Z" transform="translate(130 143)" style="fill:#855b41"/><path d="M0 0h16v1L2 3V1L0 0Z" transform="translate(122 36)" style="fill:#dedede"/><path d="m0 0 3 1c-.113987 1.62581-.241557 3.250672-.375 4.875l-.210938 2.742188C2 11 2 11 0 13V0Z" transform="translate(156 189)" style="fill:#eef3f5"/><path d="M0 0c2 1 2 1 2.6875 3C3.1139 7.093437 2.574918 10.940192 2 15H1C.639114 12.68854.286458 10.375792-.0625 8.0625l-.597656-3.902344L-1 1l1-1Z" transform="translate(82 113)" style="fill:#23130a"/><path d="M0 0h2c.36902 9.410023.36902 9.410023-2 14h-1L0 0Z" transform="translate(91 113)" style="fill:#825b41"/><path d="M0 0c1.460672.450825 2.91848.910935 4.375 1.375l2.460938.773438C9 3 9 3 11 5c-2.605824.930651-3.641982 1.149174-6.25.0625L3 4V2H0V0Z" transform="translate(179 18)" style="fill:#7780a3"/><path d="M0 0v2l2 1-9 1-2-3c3.058478-.54373 5.887728-1 9-1Z" transform="translate(149 218)" style="fill:#262624"/><path d="m0 0 3 1v9l-8 1c3-2 3-2 6-3l1-5H0V0Z" transform="translate(107 190)" style="fill:#3a436b"/><path d="m0 0 9 3-2 4C4.0625 5.75 4.0625 5.75 1 4L0 0Z" transform="translate(73 149)" style="fill:#41517f"/><path d="M0 0c-.350496 3.242086-.562212 4.615277-3.0625 6.8125L-5 8c-.36626-4.517203-.36626-4.517203 1.375-6.8125C-2 0-2 0 0 0Z" transform="translate(199 139)" style="fill:#271f18"/><path d="m0 0 1 4-5 3-2-3c3.75-4 3.75-4 6-4Z" transform="translate(75 111)" style="fill:#251a13"/><path d="M0 0h1c.2019 6.359878-.372217 11.852211-2 18h-1c-.026882-1.645746-.046341-3.291614-.0625-4.9375l-.035156-2.777344C-2 8-2 8-1 7c.367607-2.32818.702416-4.661838 1-7Z" transform="translate(24 94)" style="fill:#374681"/><path d="M0 0c2.047954 1.962623 2.949766 3.42773 3.199219 6.269531C3.188589 8.519544 3.129585 10.753856 3 13H1C-.102287 8.590852-.076545 4.516176 0 0Z" transform="translate(190 94)" style="fill:#d6dae7"/><path d="m0 0 3.9375.5625L7 1v1c-2.291413.053845-4.583182.09272-6.875.125l-3.867188.070313C-7 2-7 2-9 0c3.08567-1.542835 5.643792-.550198 9 0Z" transform="translate(131 71)" style="fill:#1c0d02"/><path d="m0 0 4 1 1 9-2 1L0 0Z" transform="translate(191 49)" style="fill:#3f4c81"/><path d="M0 0c-3.364233 2.960525-6.691593 3.922898-11 5V2C-7.365768-.325909-4.229117-.162658 0 0Z" transform="translate(84 208)" style="fill:#404f81"/><path d="m0 0-2 3-9-1c6.680851-3.340426 6.680851-3.340426 11-2Z" transform="translate(110 201)" style="fill:#d8dfe7"/><path d="m0 0 10 3v1c-6.054688.976563-6.054688.976563-8 1-2-2-2-2-2-5Z" transform="translate(118 188)" style="fill:#2b1306"/><path d="m0 0 2 1C.875 3.4375.875 3.4375-1 6c-3.1875.8125-3.1875.8125-6 1 1.33332-3.999963 3.495783-4.837823 7-7Z" transform="translate(162 181)" style="fill:#170c06"/><path d="m0 0 1.8125.625-1 4c-2.4375-.375-2.4375-.375-5-1l-1-2c3-2 3-2 5.1875-1.625Z" transform="translate(195.1875 133.375)" style="fill:#815235"/><path d="m0 0-1 2-2-1 1 5-4-3 1-3c3-1 3-1 5 0Zm-6 3v2l-3-1c1-1 1-1 3-1Z" transform="translate(202 116)" style="fill:#543b2e"/><path d="m0 0 .875 1.875C1.9372 4.133258 1.9372 4.133258 4 6l-6 1V1l2-1Z" transform="translate(99 106)" style="fill:#2f1406"/><path d="m0 0 10 2 1 3C7.193654 4.328292 3.647932 3.272534 0 2V0Z" transform="translate(106 69)" style="fill:#79543c"/><path d="M0 0c3.766879 0 4.911903.235373 8 2v4C4.634081 4.557463 2.48953 2.667353 0 0Z" transform="translate(57 208)" style="fill:#7c89ab"/><path d="M0 0c4.75.75 4.75.75 7 3-.375 2.125-.375 2.125-1 4-2.041198-1.615948-4.04073-3.285638-6-5V0Z" transform="translate(104 177)" style="fill:#805740"/><path d="M0 0c0 3 0 3-1 6-1.847656.949219-1.847656.949219-4.0625 1.6875l-2.222656.761719L-9 9V7c1.979466-1.363632 3.981924-2.694186 6-4 1.793944-1.623511 1.793944-1.623511 3-3Z" transform="translate(156 168)" style="fill:#835a40"/><path d="M0 0c2.681528 3.076927 3.420878 5.197347 3.6875 9.25l.199219 2.703125L4 14C.735497 10.735497.06764 6.589527-.125 2.0625L0 0Z" transform="translate(22 149)" style="fill:#a8afc4"/><path d="M0 0c2.4375.8125 2.4375.8125 5 2l1 3-3 1C.8125 4.5625.8125 4.5625-1 3l1-3Z" transform="translate(194 111)" style="fill:#231a14"/><path d="M0 0h1v5l-11 1 2-4h2v2h6V0Z" transform="translate(80 106)" style="fill:#bec1c3"/><path d="M0 0v4l-9-3c4.17908-2.08954 4.804106-2.165526 9-1Z" transform="translate(202 107)" style="fill:#475583"/><path d="M0 0c3 4 3 4 3.074219 6.140625L2 12l-2-1V0Z" transform="translate(94 74)" style="fill:#704e38"/><path d="m0 0 1 3-6 1V1l-2-1c3.10046-1.033487 4.056102-1.17756 7 0Z" transform="translate(103 206)" style="fill:#29292a"/><path d="m0 0 1 2-4 1v4l-4-1C-5.902478 3.006757-5.323171 2.153891-2.375.75L0 0Z" transform="translate(214 202)" style="fill:#344385"/><path d="m0 0 3 1C1.77473 5.052817.301195 8.443608-2 12l-1-2 2-4c.382905-1.991104.726046-3.991005 1-6Z" transform="translate(236 173)" style="fill:#aaafc8"/><path d="M0 0h4c.125 3.375.125 3.375 0 7L2 9l-.4375-2.25C1.098125 4.479723.581364 2.242405 0 0Z" transform="translate(156 155)" style="fill:#2e1b0c"/><path d="m0 0 1 3c-1.75.6875-1.75.6875-4 1-2.25-1.4375-2.25-1.4375-4-3C-4.537212-.231394-2.720495-.071592 0 0Z" transform="translate(82 145)" style="fill:#271e14"/><path d="M0 0h3l1 2c-.934465 2.031446-1.932248 4.035336-3 6l-3-2 2-6Z" transform="translate(203 134)" style="fill:#c4cad7"/><path d="M0 0c2.899223.467617 3.866752.866752 6 3v4H4L3 4C1.003347 2.314614 1.003347 2.314614-1 1l1-1Z" transform="translate(75 121)" style="fill:#2a0c03"/><path d="m0 0 6 1v4L3 6V3h-4l1-3Z" transform="translate(190 114)" style="fill:#6d4e3b"/><path d="M0 0c2.023503 3.035255 2.32124 4.194262 2.625 7.6875l.226563 2.449219L3 12c-2-1-2-1-3-4-.127818-2.67395-.043919-5.320959 0-8Z" transform="translate(245 89)" style="fill:#b1b9d0"/><path d="M0 0c2.375.6875 2.375.6875 5 2 1.3125 2.625 1.3125 2.625 2 5L5 8C0 2.25 0 2.25 0 0Z" transform="translate(185 41)" style="fill:#455384"/><path d="M0 0c3.94139 1.667511 6.789281 4.227106 10 7-3.380235 0-5.83469-.874556-9-2L0 0Z" transform="translate(204 32)" style="fill:#a9b4c7"/><path d="M0 0c-2.853068 2.324722-5.540748 3.750826-9 5V1C-5.803591-.06547-3.342527-.074278 0 0Z" transform="translate(99 34)" style="fill:#4a5784"/><path d="M0 0v2l-9 1V1C-5.803591-.06547-3.342527-.074278 0 0Z" transform="translate(116 31)" style="fill:#f2f9fc"/><path d="m0 0 1 2-3 1-2-2-3 1-1-3c3.380484-1.207316 4.99435-.96922 8 1Z" transform="translate(115 208)" style="fill:#b8bbbb"/><path d="M0 0h2v2l4 1 1 6C4.035955 6.191957 1.55501 3.816842 0 0Z" transform="translate(40 189)" style="fill:#8690ae"/><path d="M0 0h2l2 10C1.2405 7.507548-.620301 5.79699-1 2l1-2Z" transform="translate(36 179)" style="fill:#7d87ae"/><path d="M0 0c-.5625 1.9375-.5625 1.9375-2 4-3.625.75-3.625.75-7 1 4.83871-5 4.83871-5 9-5Z" transform="translate(198 146)" style="fill:#e7eef9"/><path d="m0 0 4 1C1.384857 3.120386-1.196376 5.130917-4 7l2-5h2V0Z" transform="translate(70 106)" style="fill:#384677"/><path d="m0 0 2 1-2 4c-3 0-3 0-5-1l5-4Z" transform="translate(87 41)" style="fill:#cdd6df"/><path d="m0 0 5 1-1 4-6-1 2-1V0Z" transform="translate(168 205)" style="fill:#222223"/><path d="m0 0 4 1-9 6c2.636364-5.272727 2.636364-5.272727 5-7Z" transform="translate(175 179)" style="fill:#3b4978"/><path d="m0 0 1 3-5 4V3c2-1.75 2-1.75 4-3Z" transform="translate(176 175)" style="fill:#edf1fb"/><path d="M0 0h1c.285714 7.428571.285714 7.428571-2 11h-1c.875-7.625.875-7.625 2-11Z" transform="translate(182 152)" style="fill:#1e0f05"/><path d="M0 0v5h-3V2l-2-1c1-1 1-1 5-1Z" transform="translate(85 150)" style="fill:#f4f7f9"/><path d="m0 0 2 1 1 4 2 1v2c-3.875-.875-3.875-.875-5-2-.040808-1.999584-.042544-4.000453 0-6Z" transform="translate(122 136)" style="fill:#6f4f3c"/><path d="m0 0 4 1v4l-5-1 1-4Z" transform="translate(156 119)" style="fill:#21140f"/><path d="M0 0h3v2l2 1-2 2-3-1V0Z" transform="translate(97 15)" style="fill:#3a4b83"/><path d="M0 0c4.547486-.368715 4.547486-.368715 6.6875 1.375L8 3l2 2C5.598856 4.497012 3.28805 2.912273 0 0Z" transform="translate(192 212)" style="fill:#4b5780"/><path d="m0 0 4 1-4 4-3-2 3-1V0Z" transform="translate(162 209)" style="fill:#212224"/><path d="M0 0c1.9375.8125 1.9375.8125 4 2l1 3H1L0 0Z" transform="translate(88 168)" style="fill:#eaeff8"/><path d="M0 0h5l1 4-4 1-2-5Z" transform="translate(123 147)" style="fill:#8e5d40"/><path d="M0 0h1c.196222 4.218782-.197698 7.170109-2 11h-1c-.285714-7.428571-.285714-7.428571 2-11Z" transform="translate(87 144)" style="fill:#322318"/><path d="M0 0c2.153776 2.621988 3.400722 4.644042 4 8H0V0Z" transform="translate(236 68)" style="fill:#929cb8"/><path d="m0 0 3 1-3 6-3-4 3-3Z" transform="translate(93 46)" style="fill:#f8fbf9"/><path d="m0 0 10 1-1 3-9-3V0Z" transform="translate(156 31)" style="fill:#e6eef9"/><path d="M0 0c1 2 1 2 0 5-1.9375.8125-1.9375.8125-4 1l-2-2 6-4Z" transform="translate(156 207)" style="fill:#b3b5b3"/><path d="M0 0c4 4.625 4 4.625 4 8H2V5H0V0Z" transform="translate(86 168)" style="fill:#3f4e7b"/><path d="M0 0c1.207756 3.623267.543111 4.641464-1 8l-1-2-2-1 4-5Z" transform="translate(176 167)" style="fill:#22140d"/><path d="m0 0 4 2-1 5-2-1C.375 2.9375.375 2.9375 0 0Z" transform="translate(170 152)" style="fill:#8d5e40"/><path d="m0 0-2 9h-1c-.097656-6.152344-.097656-6.152344 0-8 1-1 1-1 3-1Z" transform="translate(67 118)" style="fill:#f6fafd"/><path d="M0 0v2l-1.875.8125C-4.299523 3.955568-4.299523 3.955568-6 7c-.125-2.375-.125-2.375 0-5 2-2 2-2 6-2Z" transform="translate(196 121)" style="fill:#240b04"/><path d="m0 0 1 3-3 3-3-2 5-4Z" transform="translate(84 45)" style="fill:#dee4ed"/><path d="M0 0c1.9375.3125 1.9375.3125 4 1l1 3h-6l1-4Z" transform="translate(117 33)" style="fill:#2a2a2a"/><path d="m0 0 5 2v3l-6-2 1-3Z" transform="translate(198 28)" style="fill:#7a82a9"/><path d="m0 0-2 2c-3.625-.375-3.625-.375-7-1 3.35081-2.109769 5.221023-2.049716 9-1Z" transform="translate(109 14)" style="fill:#455282"/></svg>